<?xml version="1.0" encoding="UTF-8"?>
<svg version="1.1" xmlns="http://www.w3.org/2000/svg" width="500" height="500">
<path d="M0 0 C58.74 0 117.48 0 178 0 C178 20.79 178 41.58 178 63 C185.92 63 193.84 63 202 63 C202 137.91 202 212.82 202 290 C127.42 290 52.84 290 -24 290 C-24 215.09 -24 140.18 -24 63 C-16.08 63 -8.16 63 0 63 C0 42.21 0 21.42 0 0 Z " fill="#4A1F8C" transform="translate(161,105)"/>
<path d="M0 0 C58.08 0 116.16 0 176 0 C176 57.75 176 115.5 176 175 C117.92 175 59.84 175 0 175 C0 117.25 0 59.5 0 0 Z " fill="#4B208C" transform="translate(162,106)"/>
<path d="M0 0 C58.08 0 116.16 0 176 0 C176 22.44 176 44.88 176 68 C117.92 68 59.84 68 0 68 C0 45.56 0 23.12 0 0 Z " fill="#6B32C1" transform="translate(162,282)"/>
<path d="M0 0 C58.08 0 116.16 0 176 0 C176 57.75 176 115.5 176 175 C117.92 175 59.84 175 0 175 C0 117.25 0 59.5 0 0 Z M4 3 C4 58.77 4 114.54 4 172 C59.44 172 114.88 172 172 172 C172 116.23 172 60.46 172 3 C116.56 3 61.12 3 4 3 Z " fill="#6B32C0" transform="translate(162,106)"/>
<path d="M0 0 C3.3 0 6.6 0 10 0 C10.49371094 1.50433594 10.98742187 3.00867188 11.49609375 4.55859375 C12.14307187 6.5182811 12.79021584 8.47791371 13.4375 10.4375 C13.76298828 11.43072266 14.08847656 12.42394531 14.42382812 13.44726562 C14.73642578 14.39150391 15.04902344 15.33574219 15.37109375 16.30859375 C15.65911865 17.18314209 15.94714355 18.05769043 16.24389648 18.95874023 C16.82533284 20.96448895 16.82533284 20.96448895 18 22 C18.20681396 21.36908447 18.41362793 20.73816895 18.62670898 20.08813477 C19.56053426 17.24522551 20.49895326 14.40385384 21.4375 11.5625 C21.76298828 10.56927734 22.08847656 9.57605469 22.42382812 8.55273438 C22.73642578 7.60849609 23.04902344 6.66425781 23.37109375 5.69140625 C23.65911865 4.81685791 23.94714355 3.94230957 24.24389648 3.04125977 C25 1 25 1 26 0 C29.3 0 32.6 0 36 0 C36 10.89 36 21.78 36 33 C33.69 33 31.38 33 29 33 C28.67 25.74 28.34 18.48 28 11 C25.69 18.26 23.38 25.52 21 33 C18.69 33 16.38 33 14 33 C11.23711605 25.74918274 8.95089408 18.51094221 7 11 C6.67 18.26 6.34 25.52 6 33 C4.02 33 2.04 33 0 33 C0 22.11 0 11.22 0 0 Z " fill="#6A31BF" transform="translate(246,135)"/>
<path d="M0 0 C2.701875 -0.061875 5.40375 -0.12375 8.1875 -0.1875 C9.02949951 -0.21481201 9.87149902 -0.24212402 10.73901367 -0.27026367 C15.34920289 -0.32122618 18.22808265 0.0662865 22 3 C24 5 24 5 24.3125 7.8125 C23.96840628 11.32225593 23.01272399 13.14864101 21 16 C21.48339844 16.40476563 21.96679688 16.80953125 22.46484375 17.2265625 C24.34745902 19.40139032 24.48964484 20.52879165 24.5625 23.375 C24.60503906 24.12523437 24.64757812 24.87546875 24.69140625 25.6484375 C23.82591913 28.59207167 22.32548658 30.17744078 19.9050293 32.02734375 C16.28766307 33.87427276 12.58884176 33.51635678 8.625 33.3125 C4.355625 33.1578125 4.355625 33.1578125 0 33 C0 22.11 0 11.22 0 0 Z " fill="#6A32C0" transform="translate(215,135)"/>
<path d="M0 0 C3.87533288 2.82576356 5.51888381 5.51801361 7 10 C7.87923503 17.98468091 7.4597836 24.24661341 3 31 C-1.21758192 33.81172128 -5.04844761 33.9318711 -10 33 C-12.86890102 30.8887997 -14.41311435 28.17377131 -16 25 C-16.17830582 22.2552596 -16.27767275 19.55920948 -16.3125 16.8125 C-16.34150391 16.06935547 -16.37050781 15.32621094 -16.40039062 14.56054688 C-16.46486656 8.90154406 -15.24991833 5.64877001 -12 1 C-8.2781653 -0.86091735 -4.05280619 -0.5680311 0 0 Z " fill="#6A32BF" transform="translate(240,219)"/>
<path d="M0 0 C0 10.89 0 21.78 0 33 C-2.31 33 -4.62 33 -7 33 C-7 25.08 -7 17.16 -7 9 C-8.32 9.99 -9.64 10.98 -11 12 C-11.99 12 -12.98 12 -14 12 C-14.66 10.68 -15.32 9.36 -16 8 C-14.47392422 6.6488499 -12.92837144 5.31967839 -11.375 4 C-10.51648438 3.2575 -9.65796875 2.515 -8.7734375 1.75 C-6 0 -6 0 0 0 Z " fill="#6A31BF" transform="translate(267,219)"/>
<path d="M0 0 C1.32 0 2.64 0 4 0 C4 2.97 4 5.94 4 9 C7.3 8.34 10.6 7.68 14 7 C14 8.65 14 10.3 14 12 C11.03 12 8.06 12 5 12 C6.2684375 13.6396875 6.2684375 13.6396875 7.5625 15.3125 C9.00390625 17.17578125 9.00390625 17.17578125 10 19 C9.67 19.99 9.34 20.98 9 22 C8.01 22.33 7.02 22.66 6 23 C3 17.25 3 17.25 3 15 C2.34 15 1.68 15 1 15 C0.71125 15.94875 0.4225 16.8975 0.125 17.875 C-1 21 -1 21 -3 23 C-3.99 22.34 -4.98 21.68 -6 21 C-4.87548273 18.0280615 -3.77706209 15.66559313 -2 13 C-4.64 12.67 -7.28 12.34 -10 12 C-10 10.35 -10 8.7 -10 7 C-5.05 7.99 -5.05 7.99 0 9 C0 6.03 0 3.06 0 0 Z " fill="#6831BD" transform="translate(248,184)"/>
<path d="M0 0 C2.375 0.3125 2.375 0.3125 5 1 C7.36543381 4.54815071 7.26923313 6.17256132 7.25 10.375 C7.25515625 11.49648437 7.2603125 12.61796875 7.265625 13.7734375 C7.00248069 16.96986689 6.51479382 19.18165912 5 22 C2.375 22.8125 2.375 22.8125 0 23 C-2.49931612 19.20143621 -2.2973378 15.32019162 -2.25 10.9375 C-2.25773438 10.21755859 -2.26546875 9.49761719 -2.2734375 8.75585938 C-2.25937918 4.97065637 -2.1475969 3.22139535 0 0 Z " fill="#4C208E" transform="translate(233,224)"/>
<path d="M0 0 C1.47906892 -0.02689216 2.95827483 -0.04634621 4.4375 -0.0625 C5.26121094 -0.07410156 6.08492187 -0.08570313 6.93359375 -0.09765625 C9 0 9 0 10 1 C10.04080783 2.99958364 10.04254356 5.00045254 10 7 C6.78548731 8.60725635 3.56387464 8.05748185 0 8 C0 5.36 0 2.72 0 0 Z " fill="#4C208D" transform="translate(222,154)"/>
<path d="M0 0 C6.0546875 -0.1953125 6.0546875 -0.1953125 8 0 C8.66 0.66 9.32 1.32 10 2 C9.46428571 5.53571429 9.46428571 5.53571429 8 7 C5.32941149 7.14115161 2.67567762 7.04247107 0 7 C0 4.69 0 2.38 0 0 Z " fill="#4C208E" transform="translate(222,141)"/>
</svg>
