<?xml version="1.0" encoding="UTF-8"?>
<svg version="1.1" xmlns="http://www.w3.org/2000/svg" width="500" height="500">
<path d="M0 0 C2.99841309 -0.38095093 2.99841309 -0.38095093 6.89648438 -0.38818359 C7.60557449 -0.39344055 8.31466461 -0.39869751 9.04524231 -0.40411377 C11.39496732 -0.41734451 13.74401781 -0.40856534 16.09375 -0.3984375 C17.72277965 -0.40045736 19.35180842 -0.40336807 20.98083496 -0.40713501 C24.39730425 -0.41156251 27.81353847 -0.40511379 31.22998047 -0.39111328 C35.61527974 -0.37402096 40.00002826 -0.3838599 44.38530731 -0.40183067 C47.74985932 -0.41265714 51.11428016 -0.40922745 54.47883606 -0.4014473 C56.09601404 -0.39944213 57.71320384 -0.40191564 59.33036804 -0.40888596 C61.58840604 -0.41648202 63.84554483 -0.40492344 66.10351562 -0.38818359 C67.38987915 -0.38579681 68.67624268 -0.38341003 70.00158691 -0.38095093 C70.99106323 -0.25523712 71.98053955 -0.12952332 73 0 C76.16605486 4.74908228 75.33385215 9.86485596 75.31567383 15.45166016 C75.31251076 17.49305454 75.33599127 19.53300319 75.36132812 21.57421875 C75.36197266 22.85941406 75.36261719 24.14460938 75.36328125 25.46875 C75.36626221 26.64888672 75.36924316 27.82902344 75.37231445 29.04492188 C75 32 75 32 73.90238953 33.65943909 C71.03960721 35.67676205 68.66359737 35.38898305 65.18945312 35.40405273 C64.15726906 35.41434761 64.15726906 35.41434761 63.10423279 35.42485046 C60.82969531 35.44315176 58.5558453 35.43927694 56.28125 35.43359375 C54.70088475 35.43815365 53.12052149 35.44345865 51.54016113 35.44947815 C48.22802677 35.4584155 44.91613345 35.45597878 41.60400391 35.44604492 C37.35659242 35.43454811 33.1100114 35.45477363 28.86270905 35.48396206 C25.59933171 35.50229459 22.33615454 35.50203767 19.07273865 35.49632454 C17.50661554 35.49617099 15.94047914 35.50224273 14.37440491 35.51461601 C12.18591961 35.52947151 9.9989832 35.51889209 7.81054688 35.50170898 C6.56494995 35.50154282 5.31935303 35.50137665 4.03601074 35.50120544 C1 35 1 35 -0.90238953 33.1546936 C-2.40472987 30.2054842 -2.37196818 27.89158307 -2.36328125 24.58984375 C-2.36263672 23.35298828 -2.36199219 22.11613281 -2.36132812 20.84179688 C-2.34521484 19.55337891 -2.32910156 18.26496094 -2.3125 16.9375 C-2.31572266 15.64521484 -2.31894531 14.35292969 -2.32226562 13.02148438 C-2.26705966 3.40058948 -2.26705966 3.40058948 0 0 Z M11 8 C8.73122465 10.41880929 8.73122465 10.41880929 7 13 C7.66 14.32 8.32 15.64 9 17 C12.18234105 15.24545615 12.18234105 15.24545615 15 13 C15.04063832 11.33382885 15.042721 9.66611905 15 8 C13.68 8 12.36 8 11 8 Z M26.24487305 9.09228516 C24.37591901 10.92201195 22.51569249 12.75437721 20.6875 14.625 C19.70040039 15.57052734 19.70040039 15.57052734 18.69335938 16.53515625 C16.94689801 18.29074229 15.37777497 19.94170694 14 22 C13.88969249 24.88332488 13.88969249 24.88332488 15 27 C19.56154319 25.57659875 22.46205895 23.02418411 25.75 19.6875 C26.24371094 19.21376953 26.73742187 18.74003906 27.24609375 18.25195312 C30.18365527 15.31036754 31.66498684 13.18005053 32 9 C29.04054503 7.8658456 29.04054503 7.8658456 26.24487305 9.09228516 Z " fill="#4B208C" transform="translate(213,165)"/>
<path d="M0 0 C2.06298828 -0.34057617 2.06298828 -0.34057617 4.5703125 -0.29296875 C5.46621094 -0.28330078 6.36210937 -0.27363281 7.28515625 -0.26367188 C8.69087891 -0.2259668 8.69087891 -0.2259668 10.125 -0.1875 C11.06988281 -0.17396484 12.01476562 -0.16042969 12.98828125 -0.14648438 C15.32608779 -0.11106306 17.66276237 -0.06167271 20 0 C20.48884523 3.49871541 20.96411623 6.99916188 21.4375 10.5 C21.57220703 11.46292969 21.70691406 12.42585938 21.84570312 13.41796875 C23.7656781 27.74753806 24.20642826 42.06404612 24.1875 56.5 C24.18722809 57.28616699 24.18695618 58.07233398 24.18667603 58.88232422 C24.16824344 70.60603909 23.85718547 82.29543353 23.1875 94 C23.13509659 95.01984985 23.13509659 95.01984985 23.08163452 96.06030273 C22.9796983 97.97856502 22.85557555 99.89560942 22.73046875 101.8125 C22.66239014 102.89144531 22.59431152 103.97039062 22.52416992 105.08203125 C21.92284932 108.42948531 21.20677878 110.39937684 19 113 C16.30078125 113.48828125 16.30078125 113.48828125 13.3125 113.3125 C12.31863281 113.26738281 11.32476562 113.22226563 10.30078125 113.17578125 C9.54152344 113.11777344 8.78226562 113.05976563 8 113 C8.01047363 112.05680908 8.02094727 111.11361816 8.03173828 110.1418457 C8.06590641 106.62879982 8.0909408 103.1159316 8.10986328 99.6027832 C8.11989545 98.08485114 8.13352438 96.56693827 8.15087891 95.04907227 C8.17525035 92.8620936 8.18651095 90.67537136 8.1953125 88.48828125 C8.20578613 87.17384033 8.21625977 85.85939941 8.22705078 84.50512695 C7.94754531 80.1902237 7.3253986 77.23703869 4.125 74.25 C2.03751118 73.0220654 0.34024232 72.52875768 -2 72 C-2.04631189 63.05534682 -2.08186333 54.11073482 -2.10362434 45.16598797 C-2.11406779 41.01271522 -2.12823719 36.85952441 -2.15087891 32.70629883 C-2.17258734 28.69925441 -2.1845644 24.69228888 -2.18975449 20.6851902 C-2.19345384 19.15535045 -2.20067765 17.62551508 -2.21146011 16.09570885 C-2.22594863 13.95523067 -2.22797908 11.81507975 -2.22705078 9.67456055 C-2.231492 8.45544479 -2.23593323 7.23632904 -2.24050903 5.98027039 C-2 3 -2 3 0 0 Z " fill="#4B208C" transform="translate(284,87)"/>
<path d="M0 0 C3.29150125 -0.08685287 6.5827096 -0.14033895 9.875 -0.1875 C10.81214844 -0.21263672 11.74929687 -0.23777344 12.71484375 -0.26367188 C13.61074219 -0.27333984 14.50664062 -0.28300781 15.4296875 -0.29296875 C16.25710449 -0.3086792 17.08452148 -0.32438965 17.93701172 -0.34057617 C18.61779785 -0.22818604 19.29858398 -0.1157959 20 0 C22.42920859 3.64381288 22.24285565 5.33612445 22.22705078 9.67456055 C22.22734283 10.347995 22.22763489 11.02142944 22.22793579 11.715271 C22.22654344 13.93921839 22.21098703 16.16282995 22.1953125 18.38671875 C22.19158203 19.92942624 22.18873522 21.4721361 22.18673706 23.0148468 C22.17910329 27.07388864 22.15945706 31.1327872 22.1373291 35.19177246 C22.11686512 39.3342088 22.10773416 43.4766683 22.09765625 47.61914062 C22.07621088 55.74615948 22.04207808 63.87306191 22 72 C20.906875 72.37125 19.81375 72.7425 18.6875 73.125 C15.75722299 74.39711245 15.01388158 74.98037401 13.08081055 77.71337891 C11.82835186 81.52196234 11.65893937 84.5782806 11.70703125 88.5859375 C11.71127609 89.28772125 11.71552094 89.989505 11.71989441 90.71255493 C11.73656401 92.9337756 11.77419128 95.15405788 11.8125 97.375 C11.82756212 98.88930973 11.84124784 100.40363381 11.85351562 101.91796875 C11.88642817 105.61227932 11.93812741 109.30604793 12 113 C10.20866022 113.05391993 8.41686101 113.09275571 6.625 113.125 C5.62726563 113.14820313 4.62953125 113.17140625 3.6015625 113.1953125 C1 113 1 113 -1 111 C-8.46279329 76.36873701 -5.81691315 34.59206863 0 0 Z " fill="#4B208C" transform="translate(195,87)"/>
<path d="M0 0 C22 0 22 0 27 2 C30.27884838 6.74645518 30.46236766 11.00494632 30.375 16.5625 C30.38660156 17.30435547 30.39820313 18.04621094 30.41015625 18.81054688 C30.38574704 23.37913707 29.82771568 26.2222317 27 30 C27.66 30.66 28.32 31.32 29 32 C30.03967079 35.04533816 30.12871747 37.89680207 30.1328125 41.09765625 C30.13474609 42.54688477 30.13474609 42.54688477 30.13671875 44.02539062 C30.13285156 45.02763672 30.12898438 46.02988281 30.125 47.0625 C30.13080078 48.57166992 30.13080078 48.57166992 30.13671875 50.11132812 C30.13542969 51.07619141 30.13414062 52.04105469 30.1328125 53.03515625 C30.13168457 53.9156665 30.13055664 54.79617676 30.12939453 55.70336914 C30 58 30 58 29 61 C25.04 61 21.08 61 17 61 C16.94392578 58.32777344 16.94392578 58.32777344 16.88671875 55.6015625 C16.82107844 53.27601992 16.75463045 50.95050004 16.6875 48.625 C16.66494141 47.449375 16.64238281 46.27375 16.61914062 45.0625 C16.58369141 43.94101562 16.54824219 42.81953125 16.51171875 41.6640625 C16.48553467 40.62717285 16.45935059 39.5902832 16.43237305 38.52197266 C16.28968994 37.68972168 16.14700684 36.8574707 16 36 C15.01 35.34 14.02 34.68 13 34 C13 42.91 13 51.82 13 61 C8.71 61 4.42 61 0 61 C0 40.87 0 20.74 0 0 Z M13 12 C13 15.63 13 19.26 13 23 C14.32 22.67 15.64 22.34 17 22 C18.19988045 16.71800407 18.19988045 16.71800407 16 12 C15.01 12 14.02 12 13 12 Z " fill="#4B208C" transform="translate(278,375)"/>
<path d="M0 0 C4.10923463 2.028755 6.02099817 3.84409616 8 8 C9.10587642 12.25351776 9.1770344 16.45986657 9.203125 20.828125 C9.20882507 21.57656677 9.21452515 22.32500854 9.22039795 23.09613037 C9.22981472 24.67621462 9.23636867 26.25631821 9.24023438 27.83642578 C9.2499132 30.22854749 9.28095604 32.61979926 9.3125 35.01171875 C9.36709278 42.80626348 9.3340744 49.79204867 6 57 C2.06507097 60.93492903 -1.33069197 62.15250868 -6.8125 62.3125 C-11.64763019 62.26316194 -14.29228734 61.25555258 -18 58 C-21.35285028 54.30030314 -22.11216955 50.87141419 -22.16113281 45.96923828 C-22.17074036 45.18807648 -22.1803479 44.40691467 -22.19024658 43.6020813 C-22.19449646 42.7665976 -22.19874634 41.93111389 -22.203125 41.0703125 C-22.20882507 40.20236053 -22.21452515 39.33440857 -22.22039795 38.44015503 C-22.22983108 36.60611179 -22.23637522 34.77205172 -22.24023438 32.93798828 C-22.24994116 30.14195015 -22.28098064 27.34664705 -22.3125 24.55078125 C-22.31903058 22.76562935 -22.32428084 20.98047221 -22.328125 19.1953125 C-22.3404718 18.36387726 -22.3528186 17.53244202 -22.36553955 16.67581177 C-22.34175796 10.43569788 -21.1784686 6.1784686 -16.625 1.625 C-11.22656769 -0.7949869 -5.82934071 -0.80983332 0 0 Z M-8 12 C-9.39523855 13.16748999 -9.39523855 13.16748999 -9.11352539 16.41821289 C-9.11336628 17.93636988 -9.10767226 19.45453229 -9.09765625 20.97265625 C-9.0962413 21.77029892 -9.09482635 22.56794159 -9.09336853 23.38975525 C-9.08775316 25.94737435 -9.07519812 28.50490718 -9.0625 31.0625 C-9.05748698 32.79231645 -9.05292373 34.52213426 -9.04882812 36.25195312 C-9.03777875 40.50133553 -9.02050386 44.75065312 -9 49 C-7.68 49 -6.36 49 -5 49 C-3.83261649 45.49784947 -3.87048428 42.72552777 -3.8671875 39.03125 C-3.86623077 38.35453247 -3.86527405 37.67781494 -3.86428833 36.98059082 C-3.86360868 35.55167549 -3.86544799 34.12275704 -3.86962891 32.69384766 C-3.87498025 30.5080674 -3.86967672 28.32249262 -3.86328125 26.13671875 C-3.86394207 24.74739538 -3.86522331 23.35807214 -3.8671875 21.96875 C-3.86887939 20.07286133 -3.86887939 20.07286133 -3.87060547 18.13867188 C-3.85614646 14.97009017 -3.85614646 14.97009017 -5 12 C-5.99 12 -6.98 12 -8 12 Z " fill="#4B208C" transform="translate(306,278)"/>
<path d="M0 0 C5.29009786 5.42931097 5.82861538 11.1827972 5.7734375 18.40625 C5.77630768 19.2453894 5.77917786 20.08452881 5.78213501 20.94909668 C5.78416618 22.71395548 5.77870296 24.47883728 5.76611328 26.24365234 C5.75004559 28.92987885 5.76599382 31.61460099 5.78515625 34.30078125 C5.78317365 36.02344079 5.77932962 37.7460994 5.7734375 39.46875 C5.78254654 40.66123352 5.78254654 40.66123352 5.7918396 41.87780762 C5.72640481 47.12067468 4.83907362 50.7845285 2.375 55.4375 C-2.50990409 59.96497208 -5.59269308 60.7420001 -12.0859375 60.6484375 C-15.5941635 60.35698488 -17.76189537 59.48257474 -20.625 57.4375 C-25.41024036 51.35895143 -25.7924729 46.54476813 -25.86328125 39.015625 C-25.871353 38.19680847 -25.87942474 37.37799194 -25.88774109 36.53436279 C-25.90155054 34.80287778 -25.91228669 33.0713659 -25.92016602 31.33984375 C-25.93167574 29.57869425 -25.9521117 27.81757935 -25.98168945 26.05664062 C-26.02458597 23.50106295 -26.04056531 20.94651904 -26.05078125 18.390625 C-26.06828934 17.61325989 -26.08579742 16.83589478 -26.10383606 16.03497314 C-26.08184403 10.41758096 -24.76575886 6.13117203 -21.625 1.4375 C-15.72455689 -3.52044305 -6.76516105 -2.91601769 0 0 Z M-11.625 10.4375 C-13.38104008 12.19354008 -12.75332585 14.49682323 -12.76394653 16.83580017 C-12.7619223 17.58994705 -12.75989807 18.34409393 -12.7578125 19.12109375 C-12.75876923 19.89179703 -12.75972595 20.66250031 -12.76071167 21.45655823 C-12.76139349 23.08993613 -12.75953909 24.72331673 -12.75537109 26.35668945 C-12.75003007 28.86090172 -12.75531224 31.36493403 -12.76171875 33.86914062 C-12.76105783 35.4531254 -12.75977637 37.03711006 -12.7578125 38.62109375 C-12.75983673 39.3732164 -12.76186096 40.12533905 -12.76394653 40.9002533 C-12.82196364 44.79681999 -12.82196364 44.79681999 -11.625 48.4375 C-10.635 48.4375 -9.645 48.4375 -8.625 48.4375 C-7.10151965 45.39053929 -7.48288443 42.21669939 -7.4921875 38.875 C-7.49123077 38.12790771 -7.49027405 37.38081543 -7.48928833 36.61108398 C-7.48860751 35.03076086 -7.49045497 33.45043494 -7.49462891 31.87011719 C-7.49997858 29.4472019 -7.49468065 27.024472 -7.48828125 24.6015625 C-7.48894205 23.06770792 -7.49022325 21.53385346 -7.4921875 20 C-7.49016327 19.27288818 -7.48813904 18.54577637 -7.48605347 17.79663086 C-7.43991337 13.99088499 -7.43991337 13.99088499 -8.625 10.4375 C-9.615 10.4375 -10.605 10.4375 -11.625 10.4375 Z " fill="#4B208C" transform="translate(167.625,376.5625)"/>
<path d="M0 0 C4.80102741 4.80102741 5.5996424 8.79892888 5.625 15.375 C5.5321875 17.8809375 5.5321875 17.8809375 5.4375 20.4375 C1.4775 20.4375 -2.4825 20.4375 -6.5625 20.4375 C-7.0575 15.4875 -7.0575 15.4875 -7.5625 10.4375 C-8.8825 10.4375 -10.2025 10.4375 -11.5625 10.4375 C-11.5871826 15.38541294 -11.60535166 20.3332902 -11.61743164 25.28125 C-11.62246653 26.96517562 -11.62929481 28.64909686 -11.63793945 30.33300781 C-11.65004196 32.75066203 -11.65573668 35.16825856 -11.66015625 37.5859375 C-11.66531754 38.3411972 -11.67047882 39.09645691 -11.67579651 39.87460327 C-11.75570188 43.78398109 -11.75570188 43.78398109 -10.5625 47.4375 C-9.9025 47.4375 -9.2425 47.4375 -8.5625 47.4375 C-7.34556124 45.00362247 -7.24290104 43.01911154 -7 40.3125 C-6.91621094 39.40242188 -6.83242188 38.49234375 -6.74609375 37.5546875 C-6.65521484 36.50667969 -6.65521484 36.50667969 -6.5625 35.4375 C-7.8825 35.4375 -9.2025 35.4375 -10.5625 35.4375 C-10.5625 31.4775 -10.5625 27.5175 -10.5625 23.4375 C-5.2825 23.4375 -0.0025 23.4375 5.4375 23.4375 C5.4375 35.3175 5.4375 47.1975 5.4375 59.4375 C3.4575 59.4375 1.4775 59.4375 -0.5625 59.4375 C-1.2225 58.7775 -1.8825 58.1175 -2.5625 57.4375 C-3.201875 57.9325 -3.84125 58.4275 -4.5 58.9375 C-8.61780773 60.95438542 -12.05552735 61.29445959 -16.5625 60.4375 C-20.30936875 58.43705312 -23.24273597 55.51677065 -24.5625 51.4375 C-25.69387569 44.66792057 -25.74860431 37.99822175 -25.74780273 31.15917969 C-25.74998726 29.07466134 -25.7681824 26.99067497 -25.78710938 24.90625 C-25.86412755 7.27027237 -25.86412755 7.27027237 -21.125 1.4375 C-15.26598236 -3.13539182 -6.60587042 -2.89731159 0 0 Z " fill="#4B208C" transform="translate(268.5625,376.5625)"/>
<path d="M0 0 C3.84889718 3.75020751 5.56919896 7.37536002 5.82568359 12.72460938 C5.84533484 14.38921043 5.84787214 16.05407573 5.8359375 17.71875 C5.83880768 18.60606812 5.84167786 19.49338623 5.84463501 20.40759277 C5.84666933 22.27678061 5.84118385 24.14599004 5.82861328 26.01513672 C5.81255044 28.866047 5.82848332 31.71553973 5.84765625 34.56640625 C5.84567371 36.38802394 5.8418298 38.20964076 5.8359375 40.03125 C5.84504654 41.30180237 5.84504654 41.30180237 5.8543396 42.59802246 C5.78173946 48.74777269 4.55849251 52.92260241 0.4375 57.6875 C-3.88210062 61.33216302 -9.20339786 60.81810829 -14.5625 60.375 C-19.4295416 58.8427832 -21.42267303 56.69139565 -23.80078125 52.38671875 C-26.39805937 45.52724065 -25.74861349 37.90728836 -25.74780273 30.68994141 C-25.74998681 28.51314666 -25.76817081 26.33686145 -25.78710938 24.16015625 C-25.85851222 7.14198909 -25.85851222 7.14198909 -21.125 1.4375 C-15.32595928 -3.23002058 -6.56610058 -2.99506342 0 0 Z M-11.5625 10.375 C-13.05357263 13.35714526 -12.72528536 16.41329801 -12.73046875 19.68359375 C-12.73379715 20.40611832 -12.73712555 21.12864288 -12.74055481 21.87306213 C-12.74561988 23.4021033 -12.74796326 24.93115553 -12.74780273 26.46020508 C-12.74998816 28.7998272 -12.7681448 31.13897703 -12.78710938 33.47851562 C-12.79004359 34.96354005 -12.7920282 36.44856672 -12.79296875 37.93359375 C-12.80015427 38.6336705 -12.80733978 39.33374725 -12.81474304 40.05503845 C-12.79747262 43.72623268 -12.6574823 45.23252656 -10.5625 48.375 C-9.0775 47.88 -9.0775 47.88 -7.5625 47.375 C-7.5625 35.495 -7.5625 23.615 -7.5625 11.375 C-8.8825 11.045 -10.2025 10.715 -11.5625 10.375 Z " fill="#4B208C" transform="translate(234.5625,376.625)"/>
<path d="M0 0 C6.93 0 13.86 0 21 0 C22.20730167 2.41460334 22.31882751 4.3051091 22.57250977 6.99707031 C22.72255211 8.55944427 22.72255211 8.55944427 22.87562561 10.15338135 C22.97983322 11.28354675 23.08404083 12.41371216 23.19140625 13.578125 C23.35575417 15.31712067 23.35575417 15.31712067 23.52342224 17.09124756 C23.75477101 19.54909455 23.98412985 22.00712952 24.21166992 24.46533203 C24.55980059 28.22087946 24.91514314 31.97569248 25.27148438 35.73046875 C25.49522419 38.11714699 25.71854509 40.50386455 25.94140625 42.890625 C26.04763809 44.01269348 26.15386993 45.13476196 26.26332092 46.29083252 C26.36019699 47.3450238 26.45707306 48.39921509 26.55688477 49.48535156 C26.64269302 50.40753479 26.72850128 51.32971802 26.81690979 52.27984619 C27.0130683 55.19415452 27.03045538 58.07997495 27 61 C25.02090602 61.02686553 23.04171029 61.04633375 21.0625 61.0625 C19.96035156 61.07410156 18.85820312 61.08570313 17.72265625 61.09765625 C15 61 15 61 14 60 C13.85884839 57.32941149 13.95752893 54.67567762 14 52 C11.69 52 9.38 52 7 52 C7 54.97 7 57.94 7 61 C2.71 61 -1.58 61 -6 61 C-4.96675463 46.69259052 -3.80470723 32.40404064 -2.4375 18.125 C-2.37356049 17.44670135 -2.30962097 16.76840271 -2.2437439 16.06954956 C-2.06043275 14.13197866 -1.87211195 12.19488371 -1.68359375 10.2578125 C-1.57587646 9.1455127 -1.46815918 8.03321289 -1.35717773 6.88720703 C-1 4 -1 4 0 0 Z M10 15 C9.34 23.58 8.68 32.16 8 41 C9.65 41 11.3 41 13 41 C12.34 32.42 11.68 23.84 11 15 C10.67 15 10.34 15 10 15 Z " fill="#4B208C" transform="translate(222,278)"/>
<path d="M0 0 C6.93 0 13.86 0 21 0 C22.74477795 13.14085014 23.98336664 26.29447671 25.125 39.5 C25.30832319 41.59507578 25.49191517 43.69012805 25.67578125 45.78515625 C26.12027977 50.85650584 26.56116425 55.9281574 27 61 C22.71 61 18.42 61 14 61 C14 58.03 14 55.06 14 52 C11.69 52 9.38 52 7 52 C7 54.97 7 57.94 7 61 C2.71 61 -1.58 61 -6 61 C-5.4264793 48.70703657 -4.48559503 36.48073319 -3.27050781 24.23486328 C-2.99480501 21.44747805 -2.72759461 18.65935744 -2.4609375 15.87109375 C-2.28695587 14.09109713 -2.11249572 12.31114721 -1.9375 10.53125 C-1.85830322 9.7012146 -1.77910645 8.8711792 -1.69750977 8.01599121 C-1.11495986 2.22991972 -1.11495986 2.22991972 0 0 Z M10 17 C9.66339508 20.24966985 9.33128921 23.49978428 9 26.75 C8.90460938 27.67039062 8.80921875 28.59078125 8.7109375 29.5390625 C8.62070312 30.42851562 8.53046875 31.31796875 8.4375 32.234375 C8.35371094 33.05131836 8.26992188 33.86826172 8.18359375 34.70996094 C8.01596798 36.80082499 8 38.90242738 8 41 C9.65 41 11.3 41 13 41 C12.34 33.08 11.68 25.16 11 17 C10.67 17 10.34 17 10 17 Z " fill="#4B208C" transform="translate(316,375)"/>
<path d="M0 0 C20 0 20 0 26 3 C31.10539582 9.86587713 30.5149077 17.77067158 30 26 C28.92039899 31.26305494 27.42728352 33.67953736 23 37 C18.05 37.495 18.05 37.495 13 38 C13 45.59 13 53.18 13 61 C8.71 61 4.42 61 0 61 C0 40.87 0 20.74 0 0 Z M13 12 C13 16.62 13 21.24 13 26 C13.99 25.67 14.98 25.34 16 25 C17.20272819 22.59454362 17.10071472 21.05003047 17.0625 18.375 C17.05347656 17.55773437 17.04445312 16.74046875 17.03515625 15.8984375 C17.02355469 15.27195312 17.01195312 14.64546875 17 14 C15.68 13.34 14.36 12.68 13 12 Z " fill="#4B208C" transform="translate(177,375)"/>
<path d="M0 0 C20 0 20 0 26 3 C31.10539582 9.86587713 30.5149077 17.77067158 30 26 C28.92039899 31.26305494 27.42728352 33.67953736 23 37 C18.05 37.495 18.05 37.495 13 38 C13 45.59 13 53.18 13 61 C8.71 61 4.42 61 0 61 C0 40.87 0 20.74 0 0 Z M13 12 C13 16.62 13 21.24 13 26 C13.99 25.67 14.98 25.34 16 25 C17.20272819 22.59454362 17.10071472 21.05003047 17.0625 18.375 C17.05347656 17.55773437 17.04445312 16.74046875 17.03515625 15.8984375 C17.02355469 15.27195312 17.01195312 14.64546875 17 14 C15.68 13.34 14.36 12.68 13 12 Z " fill="#4B208C" transform="translate(157,278)"/>
<path d="M0 0 C8.25 0 16.5 0 25 0 C25 4.29 25 8.58 25 13 C21.04 13 17.08 13 13 13 C13 16.63 13 20.26 13 24 C16.63 24 20.26 24 24 24 C24 27.96 24 31.92 24 36 C20.37 36 16.74 36 13 36 C13 40.29 13 44.58 13 49 C17.29 49 21.58 49 26 49 C26 52.96 26 56.92 26 61 C17.42 61 8.84 61 0 61 C0 40.87 0 20.74 0 0 Z " fill="#4B208C" transform="translate(319,278)"/>
<path d="M0 0 C4.29 0 8.58 0 13 0 C13.07425173 7.1532973 13.12865107 14.30636938 13.16479492 21.45996094 C13.17986534 23.89261789 13.20032523 26.32524774 13.22631836 28.7578125 C13.2627774 32.25788061 13.2797442 35.7575889 13.29296875 39.2578125 C13.30845261 40.34240753 13.32393646 41.42700256 13.33988953 42.54446411 C13.34112438 48.10642049 13.23330911 52.24136322 10 57 C5.25870264 61.38570006 1.55634093 62.29403559 -4.71484375 62.22265625 C-8.79218935 61.82537642 -11.7106223 60.0670712 -14.8125 57.5 C-17.14330226 54.55582872 -17.11941436 51.70336904 -17.09765625 48.11328125 C-17.09443359 47.17548828 -17.09121094 46.23769531 -17.08789062 45.27148438 C-17.07532227 43.80678711 -17.07532227 43.80678711 -17.0625 42.3125 C-17.05798828 41.32443359 -17.05347656 40.33636719 -17.04882812 39.31835938 C-17.0370432 36.87888042 -17.01910783 34.43943259 -17 32 C-13.04 32 -9.08 32 -5 32 C-4.93941406 33.05960937 -4.87882812 34.11921875 -4.81640625 35.2109375 C-4.73199873 36.59897221 -4.64735083 37.98699232 -4.5625 39.375 C-4.50352539 40.42300781 -4.50352539 40.42300781 -4.44335938 41.4921875 C-4.25719866 45.37360492 -4.25719866 45.37360492 -3 49 C-2.34 49 -1.68 49 -1 49 C-0.67 32.83 -0.34 16.66 0 0 Z " fill="#4B208C" transform="translate(268,278)"/>
<path d="M0 0 C8.25 0 16.5 0 25 0 C25 4.29 25 8.58 25 13 C21.04 13 17.08 13 13 13 C13 15.97 13 18.94 13 22 C16.63 22 20.26 22 24 22 C24 25.96 24 29.92 24 34 C20.37 34 16.74 34 13 34 C13 42.91 13 51.82 13 61 C8.71 61 4.42 61 0 61 C0 40.87 0 20.74 0 0 Z " fill="#4B208C" transform="translate(346,375)"/>
<path d="M0 0 C1.21821693 -0.0131424 1.21821693 -0.0131424 2.46104431 -0.02655029 C5.1320518 -0.0484668 7.80138931 -0.0340214 10.47241211 -0.01708984 C12.33516252 -0.0204599 14.19791078 -0.0253141 16.06065369 -0.03158569 C19.95861817 -0.03894621 23.85600864 -0.02827688 27.75390625 -0.00488281 C32.7466521 0.02362447 37.73805522 0.00718368 42.73075199 -0.02274513 C46.57500811 -0.04082347 50.41894645 -0.035058 54.2632122 -0.02210617 C56.10398964 -0.01877466 57.94479607 -0.02285028 59.78553963 -0.03450394 C62.35910474 -0.04722404 64.93050237 -0.02782248 67.50390625 0 C68.64099533 -0.01518173 68.64099533 -0.01518173 69.80105591 -0.03067017 C73.72831705 0.04787113 75.5066285 0.50342665 78.61790466 2.97598267 C81.10905904 6.19141001 81.93101123 8.8239056 82.87475586 12.77197266 C83.03492188 13.42560791 83.19508789 14.07924316 83.36010742 14.75268555 C84.69979074 20.33992896 85.79069964 25.97271553 86.68725586 31.64697266 C83.71725586 31.64697266 80.74725586 31.64697266 77.68725586 31.64697266 C77.28893555 30.01888672 77.28893555 30.01888672 76.88256836 28.35791016 C76.52592504 26.91256619 76.16914705 25.46725544 75.81225586 24.02197266 C75.5512207 22.95269531 75.5512207 22.95269531 75.28491211 21.86181641 C74.26075132 17.72724138 73.2399784 13.62047523 71.68725586 9.64697266 C68.76448549 8.18558747 66.17829763 8.50349162 62.91430664 8.48583984 C61.8701207 8.47839249 61.8701207 8.47839249 60.80484009 8.47079468 C58.49740619 8.45616616 56.19004105 8.44936993 53.88256836 8.44384766 C52.28075152 8.43809675 50.67893471 8.43233901 49.07711792 8.42657471 C45.7162036 8.41606275 42.35531322 8.41022137 38.99438477 8.40673828 C34.68780471 8.40125323 30.38154078 8.37722601 26.07505989 8.34876633 C22.76536129 8.33014232 19.45573886 8.32493448 16.14599228 8.3234024 C14.55836127 8.32037478 12.97073164 8.3123425 11.38315201 8.29921722 C9.16152146 8.28216122 6.94066361 8.28403544 4.71899414 8.29052734 C2.82275803 8.2850589 2.82275803 8.2850589 0.88821411 8.27947998 C-2.52830682 8.67172078 -3.90043881 9.25047988 -6.31274414 11.64697266 C-7.19291014 13.60651675 -7.19291014 13.60651675 -7.54321289 15.80712891 C-7.7062793 16.60054687 -7.8693457 17.39396484 -8.03735352 18.21142578 C-8.19010742 19.03578125 -8.34286133 19.86013672 -8.50024414 20.70947266 C-8.82511748 22.34657949 -9.15185305 23.98331821 -9.48071289 25.61962891 C-9.61759521 26.3441626 -9.75447754 27.06869629 -9.89550781 27.81518555 C-10.31274414 29.64697266 -10.31274414 29.64697266 -11.31274414 31.64697266 C-13.95274414 31.64697266 -16.59274414 31.64697266 -19.31274414 31.64697266 C-19.0457081 25.2247559 -18.13732135 19.01814494 -16.62524414 12.77197266 C-16.33262695 11.53705078 -16.04000977 10.30212891 -15.73852539 9.02978516 C-12.5852311 1.54827048 -7.68067426 -0.10282233 0 0 Z " fill="#4B208C" transform="translate(216.312744140625,49.35302734375)"/>
<path d="M0 0 C8.91 0 17.82 0 27 0 C27 4.29 27 8.58 27 13 C24.69 13 22.38 13 20 13 C20 28.84 20 44.68 20 61 C15.71 61 11.42 61 7 61 C7 45.16 7 29.32 7 13 C4.69 13 2.38 13 0 13 C0 8.71 0 4.42 0 0 Z " fill="#4B208C" transform="translate(113,375)"/>
<path d="M0 0 C4.29 0 8.58 0 13 0 C13 16.5 13 33 13 50 C16.96 50 20.92 50 25 50 C25 53.63 25 57.26 25 61 C16.75 61 8.5 61 0 61 C0 40.87 0 20.74 0 0 Z " fill="#4B208C" transform="translate(190,278)"/>
<path d="M0 0 C4.29 0 8.58 0 13 0 C13 20.13 13 40.26 13 61 C8.71 61 4.42 61 0 61 C0 40.87 0 20.74 0 0 Z " fill="#4B208C" transform="translate(373,375)"/>
<path d="M0 0 C32.01 0 64.02 0 97 0 C97 2.31 97 4.62 97 7 C64.99 7 32.98 7 0 7 C0 4.69 0 2.38 0 0 Z " fill="#4B208C" transform="translate(201,233)"/>
<path d="M0 0 C32.01 0 64.02 0 97 0 C97 2.31 97 4.62 97 7 C64.99 7 32.98 7 0 7 C0 4.69 0 2.38 0 0 Z " fill="#4B208B" transform="translate(201,206)"/>
<path d="M0 0 C3.83748898 3.64561454 5.31093617 6.6104043 5.875 11.875 C5.31093617 17.1395957 3.83748898 20.10438546 0 23.75 C-4.90924556 26.02929258 -9.17466573 26.15161125 -14.5 25.375 C-18.38924158 23.5692807 -20.01165031 22.10752453 -22.375 18.5625 C-23.87965797 14.29930242 -24.43170493 10.80444565 -22.7734375 6.48046875 C-18.05555869 -2.62925659 -8.98443837 -4.17134639 0 0 Z " fill="#4B208C" transform="translate(258.5,102.625)"/>
<path d="M0 0 C7 0 7 0 9 1 C9.02888514 4.14581423 9.04675923 7.29159469 9.0625 10.4375 C9.07087891 11.33533203 9.07925781 12.23316406 9.08789062 13.15820312 C9.09111328 14.01220703 9.09433594 14.86621094 9.09765625 15.74609375 C9.10289307 16.53685303 9.10812988 17.3276123 9.11352539 18.14233398 C9 20 9 20 8 21 C5.69 21 3.38 21 1 21 C0.67 14.07 0.34 7.14 0 0 Z " fill="#4B208C" transform="translate(312,124)"/>
<path d="M0 0 C2.31 0 4.62 0 7 0 C6.67 6.93 6.34 13.86 6 21 C3.69 21 1.38 21 -1 21 C-1.02888146 17.68751813 -1.04675799 14.37506833 -1.0625 11.0625 C-1.07087891 10.11697266 -1.07925781 9.17144531 -1.08789062 8.19726562 C-1.09111328 7.29814453 -1.09433594 6.39902344 -1.09765625 5.47265625 C-1.10289307 4.64000244 -1.10812988 3.80734863 -1.11352539 2.94946289 C-1 1 -1 1 0 0 Z " fill="#4B208C" transform="translate(180,124)"/>
<path d="M0 0 C2.97 0 5.94 0 9 0 C9 4.95 9 9.9 9 15 C6.03 15 3.06 15 0 15 C0 10.05 0 5.1 0 0 Z " fill="#4B208C" transform="translate(268,107)"/>
<path d="M0 0 C2.97 0 5.94 0 9 0 C9 4.95 9 9.9 9 15 C6.03 15 3.06 15 0 15 C0 10.05 0 5.1 0 0 Z " fill="#4B208C" transform="translate(222,107)"/>
<path d="M0 0 C4.95 0 9.9 0 15 0 C15 2.64 15 5.28 15 8 C10.05 8 5.1 8 0 8 C0 5.36 0 2.72 0 0 Z " fill="#4B208C" transform="translate(276,219)"/>
<path d="M0 0 C4.95 0 9.9 0 15 0 C15 2.64 15 5.28 15 8 C10.05 8 5.1 8 0 8 C0 5.36 0 2.72 0 0 Z " fill="#4B208C" transform="translate(242,219)"/>
<path d="M0 0 C4.95 0 9.9 0 15 0 C15 2.64 15 5.28 15 8 C10.05 8 5.1 8 0 8 C0 5.36 0 2.72 0 0 Z " fill="#4B208C" transform="translate(208,219)"/>
</svg>
