<?xml version="1.0" encoding="UTF-8"?>
<svg version="1.1" xmlns="http://www.w3.org/2000/svg" width="500" height="500">
<path d="M0 0 C165 0 330 0 500 0 C500 165 500 330 500 500 C335 500 170 500 0 500 C0 335 0 170 0 0 Z " fill="#FEFEFE" transform="translate(0,0)"/>
<path d="M0 0 C58.08 0 116.16 0 176 0 C176 21.12 176 42.24 176 64 C184.25 64 192.5 64 201 64 C201 138.25 201 212.5 201 289 C126.42 289 51.84 289 -25 289 C-25 214.75 -25 140.5 -25 64 C-16.75 64 -8.5 64 0 64 C0 42.88 0 21.76 0 0 Z " fill="#4B1F8C" transform="translate(162,105)"/>
<path d="M0 0 C58.08 0 116.16 0 176 0 C176 58.08 176 116.16 176 176 C117.92 176 59.84 176 0 176 C-0.185625 158.84 -0.37125 141.68 -0.5625 124 C-0.62381104 118.73546875 -0.68512207 113.4709375 -0.74829102 108.046875 C-1.10256074 71.98155462 -0.56398039 36.09474466 0 0 Z " fill="#4B1F8C" transform="translate(162,105)"/>
<path d="M0 0 C58.08 0 116.16 0 176 0 C176 22.77 176 45.54 176 69 C117.92 68.67 59.84 68.34 0 68 C0 45.56 0 23.12 0 0 Z " fill="#6B32C1" transform="translate(162,282)"/>
<path d="M0 0 C58.08 0 116.16 0 176 0 C176 58.08 176 116.16 176 176 C117.92 176 59.84 176 0 176 C-0.185625 158.84 -0.37125 141.68 -0.5625 124 C-0.62381104 118.73546875 -0.68512207 113.4709375 -0.74829102 108.046875 C-1.10256074 71.98155462 -0.56398039 36.09474466 0 0 Z M4 4 C4 59.77 4 115.54 4 173 C59.44 173 114.88 173 172 173 C172 117.23 172 61.46 172 4 C116.56 4 61.12 4 4 4 Z " fill="#6835B7" transform="translate(162,105)"/>
<path d="M0 0 C7.92 0 15.84 0 24 0 C24 0.33 24 0.66 24 1 C13.11 1.495 13.11 1.495 2 2 C2.33 74.6 2.66 147.2 3 222 C6.85623389 223.2854113 10.49134376 223.13782938 14.50953674 223.12698364 C15.38865264 223.12854363 16.26776854 223.13010362 17.17352432 223.13171089 C20.13075507 223.13571193 23.08793484 223.13253469 26.04516602 223.12939453 C28.16056346 223.13074896 30.27596066 223.13252912 32.39135742 223.13470459 C38.14526865 223.13927371 43.899162 223.13749156 49.65307355 223.1343255 C55.66462583 223.13179956 61.67617654 223.13414007 67.68772888 223.13571167 C77.78327714 223.13753254 87.87881809 223.13512907 97.97436523 223.13037109 C109.66062396 223.12492716 121.34686525 223.12669242 133.03312355 223.1321975 C143.05266678 223.13672923 153.07220474 223.13737893 163.09174865 223.13475883 C169.0822061 223.13319658 175.07265534 223.13300092 181.06311226 223.13629532 C186.69286799 223.13917494 192.32260115 223.13719664 197.95235443 223.13140106 C200.02365265 223.13007402 202.09495275 223.13046664 204.16625023 223.13266373 C206.98334182 223.13537737 209.80036004 223.13199145 212.6174469 223.12698364 C213.86046966 223.13032973 213.86046966 223.13032973 215.12860399 223.13374341 C219.19560178 223.21832479 219.19560178 223.21832479 223 222 C223.02334055 194.03656598 223.04098488 166.07313341 223.05181217 138.10969162 C223.05697266 125.12634709 223.06401068 112.14300861 223.07543945 99.15966797 C223.0853938 87.84592505 223.09185523 76.53218651 223.09408849 65.21843934 C223.09539432 59.22563526 223.09847212 53.23284371 223.10573006 47.24004364 C223.11250209 41.6029381 223.11461453 35.96585029 223.11310768 30.32874107 C223.11338347 28.25667156 223.11538159 26.18460148 223.11920547 24.11253548 C223.12416115 21.28941817 223.12299129 18.46636829 223.12025452 15.64324951 C223.12316736 14.81834699 223.1260802 13.99344448 223.12908131 13.14354491 C223.1197341 9.59021703 222.95667513 6.41889542 222 3 C220.46279297 3.01740234 220.46279297 3.01740234 218.89453125 3.03515625 C217.533856 3.04454022 216.17317876 3.05363977 214.8125 3.0625 C214.13896484 3.07087891 213.46542969 3.07925781 212.77148438 3.08789062 C209.04565869 3.10606538 205.6211958 2.89299392 202 2 C202 1.34 202 0.68 202 0 C209.92 0 217.84 0 226 0 C226 74.25 226 148.5 226 225 C151.42 225 76.84 225 0 225 C0 150.75 0 76.5 0 0 Z " fill="#442968" transform="translate(137,169)"/>
<path d="M0 0 C58.08 0 116.16 0 176 0 C176 21.12 176 42.24 176 64 C175.67 64 175.34 64 175 64 C174.98969254 63.2947821 174.97938507 62.58956421 174.96876526 61.86297607 C174.87073102 55.21244557 174.76820821 48.56200112 174.66066074 41.91161728 C174.60552929 38.49270528 174.55212523 35.07378458 174.50268555 31.65478516 C174.44575324 27.72289387 174.38127763 23.79114364 174.31640625 19.859375 C174.29133751 18.02013458 174.29133751 18.02013458 174.26576233 16.14373779 C174.24581711 15.00285706 174.22587189 13.86197632 174.20532227 12.68652344 C174.18977798 11.68280701 174.1742337 10.67909058 174.15821838 9.6449585 C174.01699693 7.28413996 173.66949144 5.26008669 173 3 C172.00355469 3.16265854 171.00710938 3.32531708 169.98046875 3.49290466 C163.12517441 4.34134624 156.20793964 4.13073081 149.3125 4.11352539 C147.72513328 4.113243 146.13776643 4.11340227 144.55039978 4.1139679 C140.25967649 4.11425383 135.96898138 4.10839003 131.67826462 4.10139394 C127.1872853 4.09512649 122.69630528 4.09455392 118.20532227 4.09336853 C109.70929193 4.0902652 101.21327452 4.08206529 92.71724987 4.07201904 C83.0413131 4.06082688 73.36537569 4.05533964 63.68943405 4.05032361 C43.79294883 4.03988182 23.89647523 4.02230174 4 4 C4.33 4.99 4.66 5.98 5 7 C5.06076934 8.94852896 5.05850454 10.89925924 5.02172852 12.84838867 C5.00163223 14.0494072 4.98153595 15.25042572 4.96083069 16.48783875 C4.92027809 18.4332531 4.92027809 18.4332531 4.87890625 20.41796875 C4.85459886 21.75888765 4.83075561 23.09981504 4.80735779 24.44075012 C4.74457831 27.96717001 4.67549444 31.49343931 4.60510254 35.01971436 C4.53436357 38.61919304 4.46957992 42.21877834 4.40429688 45.81835938 C4.27536372 52.87902206 4.13977087 59.93954287 4 67 C3.01 67 2.02 67 1 67 C-11.38968416 48.41547376 -0.3489546 22.33309472 0 0 Z " fill="#6737AE" transform="translate(162,105)"/>
<path d="M0 0 C3.3 0 6.6 0 10 0 C10.49371094 1.50433594 10.98742187 3.00867188 11.49609375 4.55859375 C12.14307187 6.5182811 12.79021584 8.47791371 13.4375 10.4375 C13.76298828 11.43072266 14.08847656 12.42394531 14.42382812 13.44726562 C14.73642578 14.39150391 15.04902344 15.33574219 15.37109375 16.30859375 C15.65911865 17.18314209 15.94714355 18.05769043 16.24389648 18.95874023 C16.82533284 20.96448895 16.82533284 20.96448895 18 22 C18.20681396 21.36908447 18.41362793 20.73816895 18.62670898 20.08813477 C19.56053426 17.24522551 20.49895326 14.40385384 21.4375 11.5625 C21.76298828 10.56927734 22.08847656 9.57605469 22.42382812 8.55273438 C22.73642578 7.60849609 23.04902344 6.66425781 23.37109375 5.69140625 C23.65911865 4.81685791 23.94714355 3.94230957 24.24389648 3.04125977 C25 1 25 1 26 0 C29.3 0 32.6 0 36 0 C36 10.89 36 21.78 36 33 C33.69 33 31.38 33 29 33 C28.67 26.07 28.34 19.14 28 12 C25.69 18.93 23.38 25.86 21 33 C18.69 33 16.38 33 14 33 C11.69 25.74 9.38 18.48 7 11 C6.67 18.26 6.34 25.52 6 33 C4.02 33 2.04 33 0 33 C0 22.11 0 11.22 0 0 Z " fill="#F5EDF7" transform="translate(246,136)"/>
<path d="M0 0 C2.701875 -0.061875 5.40375 -0.12375 8.1875 -0.1875 C9.02949951 -0.21481201 9.87149902 -0.24212402 10.73901367 -0.27026367 C15.34920289 -0.32122618 18.22808265 0.0662865 22 3 C24 5 24 5 24.3125 7.8125 C23.96840628 11.32225593 23.01272399 13.14864101 21 16 C21.66 16.53625 22.32 17.0725 23 17.625 C25 20 25 20 25.375 23 C24.79591837 27.63265306 24.79591837 27.63265306 23 30 C17.93414961 33.20524485 13.9000963 33.37687489 8.125 33.1875 C5.44375 33.125625 2.7625 33.06375 0 33 C0 22.11 0 11.22 0 0 Z " fill="#FCF8FB" transform="translate(215,136)"/>
<path d="M0 0 C4.21286022 2.06512756 6.90259056 4.23571569 8.52734375 8.75 C9.92163479 15.38728626 10.135318 22.47440668 7.1875 28.6875 C5 32 5 32 2 34 C-1.76904461 34.6820176 -5.45628171 34.83098707 -8.88671875 32.984375 C-11.5498242 30.84357352 -12.91352869 29.25941392 -14 26 C-14.14880933 23.21554845 -14.23107 20.47257615 -14.25 17.6875 C-14.270625 16.94048828 -14.29125 16.19347656 -14.3125 15.42382812 C-14.34683778 10.53498672 -13.68477055 7.24283883 -11 3 C-7.38149613 0.06607794 -4.60901522 -0.65843075 0 0 Z " fill="#F4EDF9" transform="translate(238,219)"/>
<path d="M0 0 C55.11 0 110.22 0 167 0 C167 55.77 167 111.54 167 169 C111.56 169 56.12 169 -1 169 C-1 168.34 -1 167.68 -1 167 C80.675 167.495 80.675 167.495 164 168 C165.13243022 164.60270935 165.13905637 161.99645911 165.15821838 158.41316223 C165.16561287 157.40719498 165.16561287 157.40719498 165.17315674 156.38090515 C165.18855687 154.12218485 165.19690015 151.86349267 165.20532227 149.60473633 C165.21503616 147.9623499 165.22518155 146.31996597 165.23572445 144.67758465 C165.26280371 140.27298469 165.28396462 135.86837474 165.30391693 131.46373749 C165.32352012 127.33302184 165.3484376 123.20234499 165.3729248 119.07165527 C165.44146747 106.98529934 165.50145932 94.89889615 165.5625 82.8125 C165.706875 55.814375 165.85125 28.81625 166 1 C111.22 1 56.44 1 0 1 C0 0.67 0 0.34 0 0 Z " fill="#52219E" transform="translate(167,109)"/>
<path d="M0 0 C58.08 0 116.16 0 176 0 C176 0.33 176 0.66 176 1 C120.23 1.33 64.46 1.66 7 2 C7 2.66 7 3.32 7 4 C6.01 4 5.02 4 4 4 C4.33 4.99 4.66 5.98 5 7 C5.06076934 8.94852896 5.05850454 10.89925924 5.02172852 12.84838867 C5.00163223 14.0494072 4.98153595 15.25042572 4.96083069 16.48783875 C4.92027809 18.4332531 4.92027809 18.4332531 4.87890625 20.41796875 C4.85459886 21.75888765 4.83075561 23.09981504 4.80735779 24.44075012 C4.74457831 27.96717001 4.67549444 31.49343931 4.60510254 35.01971436 C4.53436357 38.61919304 4.46957992 42.21877834 4.40429688 45.81835938 C4.27536372 52.87902206 4.13977087 59.93954287 4 67 C3.01 67 2.02 67 1 67 C-11.38968416 48.41547376 -0.3489546 22.33309472 0 0 Z " fill="#7852AE" transform="translate(162,105)"/>
<path d="M0 0 C0.99 0.495 0.99 0.495 2 1 C2 36.31 2 71.62 2 108 C1.01 108.495 1.01 108.495 0 109 C0 108.01 0 107.02 0 106 C-58.08 106 -116.16 106 -176 106 C-176 105.67 -176 105.34 -176 105 C-117.92 105 -59.84 105 0 105 C0 70.35 0 35.7 0 0 Z " fill="#501D9F" transform="translate(338,176)"/>
<path d="M0 0 C0.33 0 0.66 0 1 0 C1 10.23 1 20.46 1 31 C5.5841963 29.54711014 5.5841963 29.54711014 7 28 C7.07205511 26.31391034 7.08386068 24.62499341 7.0625 22.9375 C7.04896484 21.55884766 7.04896484 21.55884766 7.03515625 20.15234375 C7.02355469 19.44207031 7.01195312 18.73179687 7 18 C11.43076923 15.90769231 11.43076923 15.90769231 14.3125 16.375 C15.1478125 16.684375 15.1478125 16.684375 16 17 C16.3403125 16.071875 16.3403125 16.071875 16.6875 15.125 C18.37929835 12.38589791 19.99244161 11.94975528 23 11 C22.34 12.65 21.68 14.3 21 16 C21.66 16.53625 22.32 17.0725 23 17.625 C25 20 25 20 25.375 23 C24.79591837 27.63265306 24.79591837 27.63265306 23 30 C17.93414961 33.20524485 13.9000963 33.37687489 8.125 33.1875 C5.44375 33.125625 2.7625 33.06375 0 33 C0 22.11 0 11.22 0 0 Z " fill="#F5EDFB" transform="translate(215,136)"/>
<path d="M0 0 C0.90105469 0.11085937 1.80210937 0.22171875 2.73046875 0.3359375 C3.76107422 0.47902344 3.76107422 0.47902344 4.8125 0.625 C6.96544651 5.91330549 9.09183894 11.17623997 10.8125 16.625 C11.8025 16.295 12.7925 15.965 13.8125 15.625 C13.93625 14.820625 14.06 14.01625 14.1875 13.1875 C14.496875 11.9190625 14.496875 11.9190625 14.8125 10.625 C15.4725 10.295 16.1325 9.965 16.8125 9.625 C15.64598574 15.55363717 14.05730642 21.01298394 11.8125 26.625 C10.0580884 23.9933826 9.23091456 22.19731956 8.3046875 19.24609375 C8.04042969 18.40755859 7.77617187 17.56902344 7.50390625 16.70507812 C7.23449219 15.83302734 6.96507812 14.96097656 6.6875 14.0625 C6.41035156 13.18658203 6.13320313 12.31066406 5.84765625 11.40820312 C3.8125 4.89670567 3.8125 4.89670567 3.8125 2.625 C0.5125 2.625 -2.7875 2.625 -6.1875 2.625 C-6.1875 13.515 -6.1875 24.405 -6.1875 35.625 C-4.2075 35.625 -2.2275 35.625 -0.1875 35.625 C-0.1875 27.375 -0.1875 19.125 -0.1875 10.625 C2.24978039 14.28092058 3.26041843 17.81861944 4.5 22 C4.73783203 22.75539062 4.97566406 23.51078125 5.22070312 24.2890625 C6.44946715 28.41136762 7.20370771 31.39235592 5.8125 35.625 C4.8225 35.625 3.8325 35.625 2.8125 35.625 C1.141875 36.6459375 1.141875 36.6459375 -0.5625 37.6875 C-3.22988006 39.30151978 -3.89293938 39.65006899 -7.125 39.375 C-7.805625 39.1275 -8.48625 38.88 -9.1875 38.625 C-8.8575 37.635 -8.5275 36.645 -8.1875 35.625 C-8.13823385 33.06151805 -8.14360922 30.52633568 -8.1953125 27.96484375 C-8.21282129 26.43425134 -8.22973028 24.90365196 -8.24609375 23.37304688 C-8.27712812 20.96098687 -8.31275302 18.54927238 -8.35888672 16.13745117 C-8.40109648 13.80903722 -8.4246231 11.48103466 -8.4453125 9.15234375 C-8.46393341 8.42836899 -8.48255432 7.70439423 -8.5017395 6.95848083 C-8.51220703 4.92553711 -8.51220703 4.92553711 -8.1875 1.625 C-4.73535147 -0.67643236 -3.95270676 -0.51333854 0 0 Z " fill="#442577" transform="translate(252.1875,133.375)"/>
<path d="M0 0 C0 10.89 0 21.78 0 33 C-2.31 33 -4.62 33 -7 33 C-7.33 25.08 -7.66 17.16 -8 9 C-9.32 9.99 -10.64 10.98 -12 12 C-13.32 11.34 -14.64 10.68 -16 10 C-16 7 -16 7 -14.27734375 5.17578125 C-13.50519531 4.56089844 -12.73304688 3.94601563 -11.9375 3.3125 C-11.18339844 2.68988281 -10.42929687 2.06726563 -9.65234375 1.42578125 C-7 0 -7 0 0 0 Z " fill="#F4ECF7" transform="translate(268,220)"/>
<path d="M0 0 C0.80824219 0.11085937 1.61648437 0.22171875 2.44921875 0.3359375 C3.37154297 0.47902344 3.37154297 0.47902344 4.3125 0.625 C4.6425 1.945 4.9725 3.265 5.3125 4.625 C4.178125 4.74875 3.04375 4.8725 1.875 5 C0.1115625 5.309375 0.1115625 5.309375 -1.6875 5.625 C-2.86176264 7.97352528 -2.80258173 9.36274065 -2.78515625 11.9765625 C-2.78193359 12.82734375 -2.77871094 13.678125 -2.77539062 14.5546875 C-2.76701172 15.44414062 -2.75863281 16.33359375 -2.75 17.25 C-2.74548828 18.1471875 -2.74097656 19.044375 -2.73632812 19.96875 C-2.72452591 22.18756648 -2.70806155 24.40625018 -2.6875 26.625 C-0.66927083 26.52734375 1.34895833 26.4296875 3.3671875 26.33203125 C4.00914062 26.42871094 4.65109375 26.52539062 5.3125 26.625 C5.9725 27.615 6.6325 28.605 7.3125 29.625 C6.6525 29.625 5.9925 29.625 5.3125 29.625 C5.3125 30.615 5.3125 31.605 5.3125 32.625 C0.54488247 33.10176175 -3.31982515 33.46324 -7.1875 30.3125 C-11.20577862 25.99285049 -10.89933753 21.92715337 -10.9375 16.3125 C-10.958125 15.56548828 -10.97875 14.81847656 -11 14.04882812 C-11.0342609 9.17093285 -10.41353121 5.83506222 -7.6875 1.625 C-4.33422361 -0.61051759 -3.78006343 -0.54783528 0 0 Z " fill="#F6F0FA" transform="translate(234.6875,220.375)"/>
<path d="M0 0 C0.9583374 0.00523682 1.9166748 0.01047363 2.90405273 0.01586914 C4.45576172 0.02070313 4.45576172 0.02070313 6.03881836 0.02563477 C7.12743164 0.03401367 8.21604492 0.04239258 9.33764648 0.05102539 C10.97636719 0.05779297 10.97636719 0.05779297 12.64819336 0.06469727 C15.35723144 0.07652713 18.06616248 0.09300996 20.77514648 0.11352539 C20.77514648 1.10352539 20.77514648 2.09352539 20.77514648 3.11352539 C14.50514648 2.78352539 8.23514648 2.45352539 1.77514648 2.11352539 C1.44514648 2.77352539 1.11514648 3.43352539 0.77514648 4.11352539 C0.44514648 4.44352539 0.11514648 4.77352539 -0.22485352 5.11352539 C-0.32717857 7.87794507 -0.36371111 10.61753013 -0.35856628 13.3825531 C-0.36083184 14.25996015 -0.3630974 15.1373672 -0.36543161 16.04136235 C-0.37180195 19.00480152 -0.37094031 21.96819532 -0.37011719 24.93164062 C-0.37310678 27.04674337 -0.37650884 29.16184556 -0.3802948 31.27694702 C-0.38915914 37.03923793 -0.39147393 42.801514 -0.39211059 48.56381106 C-0.39305761 53.36532851 -0.39673349 58.16684247 -0.40028268 62.96835858 C-0.40843643 74.29124474 -0.41086607 85.61412295 -0.41015625 96.93701172 C-0.40955515 108.63801097 -0.42011122 120.33896416 -0.43589991 132.03995174 C-0.44895165 142.06794784 -0.45434115 152.09592884 -0.45370084 162.12393337 C-0.45344516 168.12114106 -0.45633464 174.11830785 -0.46687889 180.11550713 C-0.47652021 185.75346164 -0.47666648 191.39133581 -0.46936226 197.02929306 C-0.46831147 199.10381626 -0.47070835 201.17834436 -0.47672272 203.25285912 C-0.48437611 206.07450699 -0.47984238 208.89587277 -0.47209167 211.71751404 C-0.47723524 212.54756012 -0.4823788 213.3776062 -0.48767823 214.23280519 C-0.64067027 218.64261304 -0.64067027 218.64261304 1.77514648 222.11352539 C0.45514648 221.78352539 -0.86485352 221.45352539 -2.22485352 221.11352539 C-2.37858997 192.44638776 -2.52662756 163.77922565 -2.66781712 135.11202335 C-2.73350278 121.80236757 -2.80107736 108.49272859 -2.87304688 95.18310547 C-2.93574588 83.58704197 -2.99495369 71.9909669 -3.04990906 60.39486402 C-3.07915063 54.25067835 -3.11018114 48.10651311 -3.14538765 41.96235847 C-3.17842835 36.18657087 -3.20682291 30.41077959 -3.23155975 24.63495064 C-3.24150366 22.50839861 -3.25318625 20.38185394 -3.26668358 18.2553215 C-3.28477291 15.36549028 -3.29676674 12.47569832 -3.30714417 9.58583069 C-3.31394795 8.7327349 -3.32075174 7.87963912 -3.32776171 7.00069195 C-3.33157384 5.03800701 -3.2840736 3.0753204 -3.22485352 1.11352539 C-2.22485352 0.11352539 -2.22485352 0.11352539 0 0 Z " fill="#472381" transform="translate(141.224853515625,169.886474609375)"/>
<path d="M0 0 C0.33 2.31 0.66 4.62 1 7 C1.99 7 2.98 7 4 7 C4 7.66 4 8.32 4 9 C5.32 9 6.64 9 8 9 C8.66666667 11.66666667 9.33333333 14.33333333 10 17 C9.34 17 8.68 17 8 17 C8 16.34 8 15.68 8 15 C7.34 15 6.68 15 6 15 C6.02320313 15.79664063 6.04640625 16.59328125 6.0703125 17.4140625 C6.25058609 27.99869758 6.25058609 27.99869758 4 33 C3.7525 33.7425 3.505 34.485 3.25 35.25 C1.24773594 38.05316969 -0.66288057 38.33257611 -4 39 C-7.03747114 38.86621253 -10.00130842 38.49311817 -13 38 C-13 37.34 -13 36.68 -13 36 C-12.39671875 35.97421875 -11.7934375 35.9484375 -11.171875 35.921875 C-6.03742755 35.58834954 -6.03742755 35.58834954 -1.5625 33.25 C2.80368656 26.96269136 2.73273956 20.41675411 2 13 C0.84221165 9.09694031 -0.3985181 5.97175748 -3.95703125 3.8125 C-6.81301514 2.67665937 -8.94922415 2.68869634 -12 3 C-15.00645322 4.29824116 -16.56092098 5.18303764 -18.12109375 8.0859375 C-19.27970232 11.92736858 -19.32983329 15.44737579 -19.3125 19.4375 C-19.32861328 20.17548828 -19.34472656 20.91347656 -19.36132812 21.67382812 C-19.36564302 26.52808286 -18.55915264 29.73924719 -16 34 C-17.32 34 -18.64 34 -20 34 C-21.5465074 28.76732857 -21.1843102 23.4098958 -21.1875 18 C-21.19974609 16.906875 -21.21199219 15.81375 -21.22460938 14.6875 C-21.22654297 13.635625 -21.22847656 12.58375 -21.23046875 11.5 C-21.23457764 10.5409375 -21.23868652 9.581875 -21.24291992 8.59375 C-20.98958757 5.88882243 -20.44343861 4.2832984 -19 2 C-15.83471407 -0.18808356 -12.71650101 -0.4018506 -8.9375 -0.6875 C-7.37322266 -0.81705078 -7.37322266 -0.81705078 -5.77734375 -0.94921875 C-3 -1 -3 -1 0 0 Z " fill="#492977" transform="translate(244,217)"/>
<path d="M0 0 C56.43 0 112.86 0 171 0 C171 20.79 171 41.58 171 63 C170.67 63 170.34 63 170 63 C169.98969254 62.2947821 169.97938507 61.58956421 169.96876526 60.86297607 C169.87073102 54.21244557 169.76820821 47.56200112 169.66066074 40.91161728 C169.60552929 37.49270528 169.55212523 34.07378458 169.50268555 30.65478516 C169.44575324 26.72289387 169.38127763 22.79114364 169.31640625 18.859375 C169.29133751 17.02013458 169.29133751 17.02013458 169.26576233 15.14373779 C169.24581711 14.00285706 169.22587189 12.86197632 169.20532227 11.68652344 C169.18977798 10.68280701 169.1742337 9.67909058 169.15821838 8.6449585 C169.066074 5.74247083 169.066074 5.74247083 168 2 C84.84 1.505 84.84 1.505 0 1 C0 0.67 0 0.34 0 0 Z " fill="#633D97" transform="translate(167,106)"/>
<path d="M0 0 C1.32 0 2.64 0 4 0 C4 2.97 4 5.94 4 9 C7.3 8.34 10.6 7.68 14 7 C14 8.65 14 10.3 14 12 C11.03 12 8.06 12 5 12 C6.2684375 13.6396875 6.2684375 13.6396875 7.5625 15.3125 C9.00390625 17.17578125 9.00390625 17.17578125 10 19 C9.67 19.99 9.34 20.98 9 22 C8.01 22.33 7.02 22.66 6 23 C3 17.25 3 17.25 3 15 C2.34 15 1.68 15 1 15 C0.71125 15.94875 0.4225 16.8975 0.125 17.875 C-1 21 -1 21 -3 23 C-3.99 22.34 -4.98 21.68 -6 21 C-4.7508258 17.54074837 -3.32472205 14.85306797 -1 12 C-3.97 12 -6.94 12 -10 12 C-10 10.35 -10 8.7 -10 7 C-5.05 7.99 -5.05 7.99 0 9 C0 6.03 0 3.06 0 0 Z " fill="#EDE4F3" transform="translate(248,186)"/>
<path d="M0 0 C6.93 0 13.86 0 21 0 C21 0.66 21 1.32 21 2 C21.66 2 22.32 2 23 2 C22.67 2.99 22.34 3.98 22 5 C21.52046875 4.68289062 21.0409375 4.36578125 20.546875 4.0390625 C16.83690126 2.52548425 13.22106802 2.53363221 9.25 2.375 C5.16625 2.189375 5.16625 2.189375 1 2 C1 12.89 1 23.78 1 35 C3.68125 34.896875 6.3625 34.79375 9.125 34.6875 C9.95789551 34.66260498 10.79079102 34.63770996 11.64892578 34.61206055 C16.48921865 34.37472335 19.67719786 33.3453501 24 31 C24.66 31.33 25.32 31.66 26 32 C25 35 25 35 21.9375 36.625 C15.29222101 38.95389594 7.96900504 38.75473162 1 39 C0.5359375 38.0409375 0.5359375 38.0409375 0.0625 37.0625 C-0.8345163 35.06389179 -0.8345163 35.06389179 -2 34 C-2.49350624 26.49580223 -1.91044026 18.8798968 -1.5625 11.375 C-1.52334473 10.48578857 -1.48418945 9.59657715 -1.44384766 8.68041992 C-1.38076416 7.42708862 -1.38076416 7.42708862 -1.31640625 6.1484375 C-1.27974854 5.39739746 -1.24309082 4.64635742 -1.20532227 3.87255859 C-1 2 -1 2 0 0 Z " fill="#462875" transform="translate(214,134)"/>
<path d="M0 0 C1.32 0 2.64 0 4 0 C4 0.66 4 1.32 4 2 C3.34 2 2.68 2 2 2 C2 2.66 2 3.32 2 4 C2.99 3.67 3.98 3.34 5 3 C6.40912096 5.81824192 6.11183553 8.17251282 6.09765625 11.3203125 C6.09443359 12.57714844 6.09121094 13.83398438 6.08789062 15.12890625 C6.07951172 16.44761719 6.07113281 17.76632813 6.0625 19.125 C6.05748489 20.46484211 6.05292201 21.804686 6.04882812 23.14453125 C6.03701086 26.42973206 6.02053617 29.71484397 6 33 C4.02 33 2.04 33 0 33 C0 22.11 0 11.22 0 0 Z " fill="#F6EAFE" transform="translate(246,136)"/>
<path d="M0 0 C2.375 0.1875 2.375 0.1875 5 1 C6.9352973 4.67904641 7.29673557 7.88022907 7.3125 12 C7.32925781 13.010625 7.34601563 14.02125 7.36328125 15.0625 C6.95275089 18.38205734 5.89579443 20.27885971 4 23 C2.35 22.67 0.7 22.34 -1 22 C-2.23315333 18.30054001 -2.18407267 14.85232442 -2.1875 11 C-2.20586914 9.91332031 -2.20586914 9.91332031 -2.22460938 8.8046875 C-2.23515833 4.99299702 -2.1642464 3.2463696 0 0 Z " fill="#46237C" transform="translate(233,225)"/>
<path d="M0 0 C1.60725635 3.21451269 1.05748185 6.43612536 1 10 C2.65 9.67 4.3 9.34 6 9 C6 9.66 6 10.32 6 11 C3.69 11.33 1.38 11.66 -1 12 C-1 9.03 -1 6.06 -1 3 C-2.32 3 -3.64 3 -5 3 C-5 5.97 -5 8.94 -5 12 C-8.46941546 11.54177532 -11.67395049 11.10868317 -15 10 C-15 11.65 -15 13.3 -15 15 C-12.03 15 -9.06 15 -6 15 C-6.66 16.32 -7.32 17.64 -8 19 C-8.67966676 20.66140763 -9.34938905 22.32700041 -10 24 C-9.34 24.66 -8.68 25.32 -8 26 C-9.65 26.33 -11.3 26.66 -13 27 C-13.08004482 23.4780279 -13.04005702 20.38018531 -12 17 C-13.65 16.67 -15.3 16.34 -17 16 C-17.38063221 13.6739143 -17.71269945 11.33944736 -18 9 C-17 8 -17 8 -13.4375 7.9375 C-12.303125 7.958125 -11.16875 7.97875 -10 8 C-9.731875 7.05125 -9.46375 6.1025 -9.1875 5.125 C-7.3085539 0.180405 -4.91529567 -0.26569166 0 0 Z " fill="#48287B" transform="translate(253,183)"/>
<path d="M0 0 C0.33 0 0.66 0 1 0 C1 10.89 1 21.78 1 33 C-1.31 33 -3.62 33 -6 33 C-6.05429278 30.29139335 -6.09381211 27.58389099 -6.125 24.875 C-6.14175781 24.11445313 -6.15851563 23.35390625 -6.17578125 22.5703125 C-6.21546246 17.96729269 -5.75907577 14.33535996 -4 10 C-3.01 10.33 -2.02 10.66 -1 11 C-0.67 7.37 -0.34 3.74 0 0 Z M-3 12 C-2.34 12.66 -1.68 13.32 -1 14 C-1 13.34 -1 12.68 -1 12 C-1.66 12 -2.32 12 -3 12 Z " fill="#EBE2F0" transform="translate(281,136)"/>
<path d="M0 0 C8.00067705 0.34190928 8.00067705 0.34190928 11.5625 2.6875 C13.38720463 5.62289441 13.30859658 7.60543766 13 11 C12.34 10.01 11.68 9.02 11 8 C8.41619823 7.74969023 8.41619823 7.74969023 6 8 C5.87625 8.639375 5.7525 9.27875 5.625 9.9375 C5.41875 10.618125 5.2125 11.29875 5 12 C2.04335481 13.4783226 -0.74229737 13.06032783 -4 13 C-4 10.36 -4 7.72 -4 5 C-2.35 4.67 -0.7 4.34 1 4 C0.67 2.68 0.34 1.36 0 0 Z " fill="#EEE5F5" transform="translate(226,136)"/>
<path d="M0 0 C0.33 0 0.66 0 1 0 C1 8.25 1 16.5 1 25 C-0.98 24.67 -2.96 24.34 -5 24 C-5.99 24.66 -6.98 25.32 -8 26 C-10.1875 25.625 -10.1875 25.625 -12 25 C-10.35 24.67 -8.7 24.34 -7 24 C-6.773125 22.824375 -6.54625 21.64875 -6.3125 20.4375 C-4.77989164 13.45686044 -2.328741 6.74623825 0 0 Z " fill="#4F2F7B" transform="translate(274,145)"/>
<path d="M0 0 C3 3 3 3 3.35644531 5.95507812 C3.34709961 7.13521484 3.33775391 8.31535156 3.328125 9.53125 C3.32296875 10.81644531 3.3178125 12.10164062 3.3125 13.42578125 C3.3021875 14.09432129 3.291875 14.76286133 3.28125 15.45166016 C3.25011138 17.49269947 3.24027884 19.53296547 3.234375 21.57421875 C3.15443538 31.53669386 3.15443538 31.53669386 2 35 C-1.465 35.495 -1.465 35.495 -5 36 C-5.495 34.515 -5.495 34.515 -6 33 C-4.02 33 -2.04 33 0 33 C0 22.11 0 11.22 0 0 Z " fill="#48237D" transform="translate(282,136)"/>
<path d="M0 0 C3.3 0.33 6.6 0.66 10 1 C14.28571429 11.57142857 14.28571429 11.57142857 16 17 C16.99 16.67 17.98 16.34 19 16 C19.12375 15.195625 19.2475 14.39125 19.375 13.5625 C19.684375 12.2940625 19.684375 12.2940625 20 11 C20.66 10.67 21.32 10.34 22 10 C20.83348574 15.92863717 19.24480642 21.38798394 17 27 C15.2455884 24.3683826 14.41841456 22.57231956 13.4921875 19.62109375 C13.22792969 18.78255859 12.96367187 17.94402344 12.69140625 17.08007812 C12.42199219 16.20802734 12.15257812 15.33597656 11.875 14.4375 C11.59785156 13.56158203 11.32070313 12.68566406 11.03515625 11.78320312 C9 5.27170567 9 5.27170567 9 3 C5.7 3 2.4 3 -1 3 C-0.67 2.01 -0.34 1.02 0 0 Z " fill="#4A2D76" transform="translate(247,133)"/>
<path d="M0 0 C0.99 0 1.98 0 3 0 C3 0.66 3 1.32 3 2 C2.34 2 1.68 2 1 2 C1 2.66 1 3.32 1 4 C1.99 3.67 2.98 3.34 4 3 C6.23624251 7.47248501 5.59505104 13.78239701 4.328125 18.50390625 C3.62259893 20.36423206 2.82073239 22.18754931 2 24 C1.34 24 0.68 24 0 24 C0 16.08 0 8.16 0 0 Z " fill="#FDF9FD" transform="translate(247,136)"/>
<path d="M0 0 C1.47906892 -0.02689216 2.95827483 -0.04634621 4.4375 -0.0625 C5.26121094 -0.07410156 6.08492187 -0.08570313 6.93359375 -0.09765625 C9 0 9 0 10 1 C10.04080783 2.99958364 10.04254356 5.00045254 10 7 C6.78548731 8.60725635 3.56387464 8.05748185 0 8 C0 5.36 0 2.72 0 0 Z " fill="#4C2E78" transform="translate(222,155)"/>
<path d="M0 0 C0.33 0 0.66 0 1 0 C0.61418532 5.86704396 0.02715477 10.88515229 -3 16 C-7.89253441 18.79573395 -12.66330953 17.8775891 -18 17 C-18 16.34 -18 15.68 -18 15 C-17.09507812 14.96132812 -17.09507812 14.96132812 -16.171875 14.921875 C-10.99554487 14.60368361 -10.99554487 14.60368361 -6.5625 12.125 C-5.33002045 10.44882782 -4.15406426 8.73109639 -3 7 C-2.34 7 -1.68 7 -1 7 C-0.67 4.69 -0.34 2.38 0 0 Z " fill="#49287F" transform="translate(249,238)"/>
<path d="M0 0 C2.10900699 3.16351048 3.0584157 5.88040844 4.1875 9.5 C4.55230469 10.6446875 4.91710937 11.789375 5.29296875 12.96875 C6 16 6 16 5 19 C4.34 18.01 3.68 17.02 3 16 C2.34 18.97 1.68 21.94 1 25 C0.67 25 0.34 25 0 25 C0 16.75 0 8.5 0 0 Z " fill="#675285" transform="translate(252,144)"/>
<path d="M0 0 C0.33 0 0.66 0 1 0 C1 1.65 1 3.3 1 5 C1.99 5.33 2.98 5.66 4 6 C3.54857225 7.77260631 3.08859477 9.5430368 2.625 11.3125 C2.36976563 12.29863281 2.11453125 13.28476563 1.8515625 14.30078125 C1 17 1 17 -1 20 C-1.33 18.02 -1.66 16.04 -2 14 C-2.66 14 -3.32 14 -4 14 C-3.52188823 12.22888156 -3.0424722 10.45811517 -2.5625 8.6875 C-2.29566406 7.70136719 -2.02882813 6.71523437 -1.75390625 5.69921875 C-1.21920575 3.78482474 -0.62855462 1.88566385 0 0 Z " fill="#F0E4F6" transform="translate(268,146)"/>
<path d="M0 0 C0 3.96 0 7.92 0 12 C-1.65 11.67 -3.3 11.34 -5 11 C-4.67 9.68 -4.34 8.36 -4 7 C-4.66 6.67 -5.32 6.34 -6 6 C-6.72159424 4.35636866 -7.39351421 2.68949614 -8 1 C-5 0 -5 0 0 0 Z M-3 12 C-2.34 12 -1.68 12 -1 12 C-1.33 12.66 -1.66 13.32 -2 14 C-2.33 13.34 -2.66 12.68 -3 12 Z " fill="#FDF9FC" transform="translate(281,136)"/>
<path d="M0 0 C6.0546875 -0.1953125 6.0546875 -0.1953125 8 0 C8.66 0.66 9.32 1.32 10 2 C9.75 4.0625 9.75 4.0625 9 6 C6.04335481 7.4783226 3.25770263 7.06032783 0 7 C0 4.69 0 2.38 0 0 Z " fill="#4F347B" transform="translate(222,142)"/>
<path d="M0 0 C0.99 0.33 1.98 0.66 3 1 C2.75 3.375 2.75 3.375 2 6 C-0.0625 7.3125 -0.0625 7.3125 -2 8 C-1.67 8.66 -1.34 9.32 -1 10 C-1.33 10.99 -1.66 11.98 -2 13 C-5.35620271 11.61122646 -7.07298728 10.08322035 -9 7 C-9 6.34 -9 5.68 -9 5 C-6.03 5 -3.06 5 0 5 C0 3.35 0 1.7 0 0 Z " fill="#47247A" transform="translate(262,193)"/>
<path d="M0 0 C1.65 0.33 3.3 0.66 5 1 C4.67 4.3 4.34 7.6 4 11 C3.01 11 2.02 11 1 11 C1.49113281 11.55171875 1.98226562 12.1034375 2.48828125 12.671875 C4.30109424 15.46370069 4.3172951 16.96185741 4.1875 20.25 C4.16042969 21.14203125 4.13335937 22.0340625 4.10546875 22.953125 C4.07066406 23.62859375 4.03585938 24.3040625 4 25 C3.34 25 2.68 25 2 25 C2.061875 23.741875 2.12375 22.48375 2.1875 21.1875 C2.23792372 17.90730483 2.23792372 17.90730483 0.625 15.125 C0.08875 14.75375 -0.4475 14.3825 -1 14 C-1.66 13.34 -2.32 12.68 -3 12 C-2.34 11.46375 -1.68 10.9275 -1 10.375 C1.28566853 8.11454281 1.28566853 8.11454281 1.3125 4.875 C1.17528074 2.06060827 1.17528074 2.06060827 0 0 Z " fill="#4D2C79" transform="translate(237,139)"/>
<path d="M0 0 C2.375 0.1875 2.375 0.1875 5 1 C7.04229588 4.80860582 7.21882972 8.04324762 7.125 12.3125 C7.10695312 13.38113281 7.08890625 14.44976562 7.0703125 15.55078125 C7.03550781 16.76314453 7.03550781 16.76314453 7 18 C6.67 18 6.34 18 6 18 C5.7834375 16.39125 5.7834375 16.39125 5.5625 14.75 C5.376875 13.5125 5.19125 12.275 5 11 C4.9175 10.2575 4.835 9.515 4.75 8.75 C3.59775264 6.06142283 1.5237177 5.2942142 -1 4 C-0.67 2.68 -0.34 1.36 0 0 Z " fill="#5A3C86" transform="translate(233,225)"/>
<path d="M0 0 C0 3.3 0 6.6 0 10 C-2.31 10 -4.62 10 -7 10 C-7 8.68 -7 7.36 -7 6 C-6.34 6 -5.68 6 -5 6 C-4.896875 5.38125 -4.79375 4.7625 -4.6875 4.125 C-3.92730223 1.77529781 -2.85021248 0 0 0 Z " fill="#FCF1FD" transform="translate(267,159)"/>
<path d="M0 0 C-1.41807378 4.47238653 -3.11304374 8.71146306 -5 13 C-5.35191406 12.03320312 -5.35191406 12.03320312 -5.7109375 11.046875 C-6.81161073 8.7922092 -6.81161073 8.7922092 -9.1640625 8.390625 C-10.38222656 8.32101563 -10.38222656 8.32101563 -11.625 8.25 C-12.85089844 8.16492188 -12.85089844 8.16492188 -14.1015625 8.078125 C-14.72804687 8.05234375 -15.35453125 8.0265625 -16 8 C-14.3125 6.4375 -14.3125 6.4375 -12 5 C-9.25 5.3125 -9.25 5.3125 -7 6 C-6.731875 5.38125 -6.46375 4.7625 -6.1875 4.125 C-4.67436553 1.41728569 -3.21502868 0 0 0 Z " fill="#F1EEF4" transform="translate(238,147)"/>
<path d="M0 0 C2.475 0.495 2.475 0.495 5 1 C5 1.66 5 2.32 5 3 C5.66 3.33 6.32 3.66 7 4 C6.34 4 5.68 4 5 4 C4.9729957 5.45823212 4.95360213 6.91660675 4.9375 8.375 C4.92589844 9.18710938 4.91429687 9.99921875 4.90234375 10.8359375 C4.85533666 13.04937142 4.85533666 13.04937142 6 15 C5.34 15 4.68 15 4 15 C3.67 15.99 3.34 16.98 3 18 C2.86722656 16.95199219 2.73445312 15.90398437 2.59765625 14.82421875 C2.41942765 13.44529222 2.24103359 12.06638707 2.0625 10.6875 C1.97548828 9.99720703 1.88847656 9.30691406 1.79882812 8.59570312 C1.40789865 5.59857712 0.9584996 2.87549881 0 0 Z " fill="#4F248D" transform="translate(231,228)"/>
<path d="M0 0 C0.33 0 0.66 0 1 0 C1.07406517 4.5206339 1.12856045 9.040916 1.16479492 13.56201172 C1.17989711 15.10048574 1.20038046 16.63891661 1.22631836 18.17724609 C1.26264074 20.38650141 1.27971119 22.59518848 1.29296875 24.8046875 C1.30845261 25.49432587 1.32393646 26.18396423 1.33988953 26.89450073 C1.34057617 28.83544922 1.34057617 28.83544922 1 32 C-2 34 -2 34 -4.1875 33.625 C-4.785625 33.41875 -5.38375 33.2125 -6 33 C-6 32.34 -6 31.68 -6 31 C-4.02 31 -2.04 31 0 31 C0 20.77 0 10.54 0 0 Z " fill="#472A6F" transform="translate(282,138)"/>
<path d="M0 0 C0 7.59 0 15.18 0 23 C-0.66 23 -1.32 23 -2 23 C-2 22.34 -2 21.68 -2 21 C-2.66 20.67 -3.32 20.34 -4 20 C-3.01 20 -2.02 20 -1 20 C-1.33 15.38 -1.66 10.76 -2 6 C-2.99 6 -3.98 6 -5 6 C-4.6875 4.125 -4.6875 4.125 -4 2 C-1 0 -1 0 0 0 Z " fill="#462874" transform="translate(260,229)"/>
<path d="M0 0 C0.66 0.99 1.32 1.98 2 3 C-1.3 3.33 -4.6 3.66 -8 4 C-8.66 5.98 -9.32 7.96 -10 10 C-10.33 10 -10.66 10 -11 10 C-11 7.69 -11 5.38 -11 3 C-10.34 3 -9.68 3 -9 3 C-9 2.34 -9 1.68 -9 1 C-5.92859432 0.08995387 -3.20100846 -0.33694826 0 0 Z " fill="#4D2E7B" transform="translate(280,133)"/>
<path d="M0 0 C0 2.64 0 5.28 0 8 C1.65 7.67 3.3 7.34 5 7 C5 7.66 5 8.32 5 9 C2.69 9.33 0.38 9.66 -2 10 C-2 7.03 -2 4.06 -2 1 C-3.32 1 -4.64 1 -6 1 C-6.33 1.99 -6.66 2.98 -7 4 C-7 2.68 -7 1.36 -7 0 C-2.25 -1.125 -2.25 -1.125 0 0 Z " fill="#583D80" transform="translate(254,185)"/>
<path d="M0 0 C0.33 0 0.66 0 1 0 C1 8.25 1 16.5 1 25 C0.67 25 0.34 25 0 25 C0 20.05 0 15.1 0 10 C-0.66 10 -1.32 10 -2 10 C-1.54177532 6.53058454 -1.10868317 3.32604951 0 0 Z " fill="#483364" transform="translate(274,145)"/>
<path d="M0 0 C0.99 0.495 0.99 0.495 2 1 C2.31241371 3.54941373 2.51303421 6.00361513 2.625 8.5625 C2.66367188 9.27341797 2.70234375 9.98433594 2.7421875 10.71679688 C2.83671783 12.47742425 2.91945817 14.23867728 3 16 C2.34 16 1.68 16 1 16 C-0.50156874 12.99686252 -0.09281204 10.20932478 -0.0625 6.875 C-0.05347656 5.59367188 -0.04445312 4.31234375 -0.03515625 2.9921875 C-0.02355469 2.00476563 -0.01195312 1.01734375 0 0 Z " fill="#462771" transform="translate(231,230)"/>
<path d="M0 0 C0 1.65 0 3.3 0 5 C-2.64 5 -5.28 5 -8 5 C-7.67 3.68 -7.34 2.36 -7 1 C-4.50935112 0.31292445 -2.62113708 0 0 0 Z " fill="#E7D6F1" transform="translate(262,193)"/>
<path d="M0 0 C1.5 1.125 1.5 1.125 3 3 C3.45185216 6.53950857 3.42109443 8.33326715 1.5 11.375 C1.005 11.91125 0.51 12.4475 0 13 C-1.73007571 9.73207922 -2.12486769 8.45487517 -1.125 4.8125 C-0.75375 3.884375 -0.3825 2.95625 0 2 C0 1.34 0 0.68 0 0 Z " fill="#E4D5EC" transform="translate(237,153)"/>
<path d="M0 0 C0.66 0 1.32 0 2 0 C3.4606285 2.64738916 4 3.89448334 4 7 C2.02 7 0.04 7 -2 7 C-1.125 2.25 -1.125 2.25 0 0 Z " fill="#4F3275" transform="translate(249,201)"/>
<path d="M0 0 C0.94875 0.165 1.8975 0.33 2.875 0.5 C5.80168901 1.0526635 5.80168901 1.0526635 8 1 C8.33 2.32 8.66 3.64 9 5 C6.03 4.67 3.06 4.34 0 4 C0 2.68 0 1.36 0 0 Z " fill="#FEFAFC" transform="translate(231,220)"/>
<path d="M0 0 C0.66 0.33 1.32 0.66 2 1 C1 4 1 4 -0.7421875 4.984375 C-1.44601563 5.23703125 -2.14984375 5.4896875 -2.875 5.75 C-3.57367188 6.01296875 -4.27234375 6.2759375 -4.9921875 6.546875 C-7 7 -7 7 -10 6 C-8.68 5.67 -7.36 5.34 -6 5 C-6 4.34 -6 3.68 -6 3 C-4.03533587 1.93224776 -2.03144641 0.93446535 0 0 Z " fill="#4C2A7A" transform="translate(238,165)"/>
<path d="M0 0 C7.59 0 15.18 0 23 0 C23 0.33 23 0.66 23 1 C22.37955811 1.02505615 21.75911621 1.0501123 21.11987305 1.07592773 C18.30887603 1.19196721 15.49820759 1.31465759 12.6875 1.4375 C11.71103516 1.47681641 10.73457031 1.51613281 9.72851562 1.55664062 C8.79072266 1.59853516 7.85292969 1.64042969 6.88671875 1.68359375 C5.59060669 1.73858032 5.59060669 1.73858032 4.26831055 1.79467773 C1.8352174 1.92747354 1.8352174 1.92747354 -1 3 C-0.67 2.01 -0.34 1.02 0 0 Z " fill="#452672" transform="translate(139,170)"/>
<path d="M0 0 C0.33 0 0.66 0 1 0 C1.03738281 0.86882812 1.07476562 1.73765625 1.11328125 2.6328125 C1.52448963 11.28042899 1.52448963 11.28042899 5 19 C3.68 19 2.36 19 1 19 C-0.26582219 15.13276369 -0.1118765 11.26848738 -0.0625 7.25 C-0.05798828 6.55261719 -0.05347656 5.85523438 -0.04882812 5.13671875 C-0.0371002 3.42444197 -0.01916653 1.71220967 0 0 Z " fill="#5A3D83" transform="translate(223,232)"/>
<path d="M0 0 C1.32 0 2.64 0 4 0 C3.67 2.64 3.34 5.28 3 8 C2.01 7.67 1.02 7.34 0 7 C0 4.69 0 2.38 0 0 Z " fill="#FCF0FE" transform="translate(248,186)"/>
<path d="M0 0 C0.66 0.33 1.32 0.66 2 1 C2 2.98 2 4.96 2 7 C-4.625 6.25 -4.625 6.25 -8 4 C-2.25 3.875 -2.25 3.875 0 5 C0 3.35 0 1.7 0 0 Z " fill="#4C3373" transform="translate(246,188)"/>
<path d="M0 0 C0.33 0.66 0.66 1.32 1 2 C1.66 2.33 2.32 2.66 3 3 C-0.09478879 4.03159626 -1.52631393 3.97482862 -4.6875 3.5625 C-5.89986328 3.40974609 -5.89986328 3.40974609 -7.13671875 3.25390625 C-7.75160156 3.17011719 -8.36648437 3.08632812 -9 3 C-9 2.34 -9 1.68 -9 1 C-4.545 0.505 -4.545 0.505 0 0 Z " fill="#593A85" transform="translate(240,252)"/>
<path d="M0 0 C2.97 0 5.94 0 9 0 C9 0.99 9 1.98 9 3 C6.36 3 3.72 3 1 3 C0.67 2.01 0.34 1.02 0 0 Z " fill="#462573" transform="translate(259,253)"/>
<path d="M0 0 C2.64 0 5.28 0 8 0 C7.01 0.66 6.02 1.32 5 2 C5.33 3.32 5.66 4.64 6 6 C5.01 6 4.02 6 3 6 C0 2.66666667 0 2.66666667 0 0 Z " fill="#4A3472" transform="translate(253,198)"/>
<path d="M0 0 C2.97 0.495 2.97 0.495 6 1 C5.67 2.32 5.34 3.64 5 5 C3.35 5 1.7 5 0 5 C0 3.35 0 1.7 0 0 Z " fill="#E6D1F5" transform="translate(238,193)"/>
<path d="M0 0 C2.475 0.495 2.475 0.495 5 1 C5 2.32 5 3.64 5 5 C4.01 5.33 3.02 5.66 2 6 C1.34 4.02 0.68 2.04 0 0 Z " fill="#F7E5FB" transform="translate(252,203)"/>
<path d="M0 0 C0.33 0 0.66 0 1 0 C1 4.62 1 9.24 1 14 C-0.32 13.67 -1.64 13.34 -3 13 C-2.34 12.01 -1.68 11.02 -1 10 C-0.54398739 7.49103314 -0.54398739 7.49103314 -0.375 4.8125 C-0.30023438 3.91144531 -0.22546875 3.01039063 -0.1484375 2.08203125 C-0.09945313 1.39496094 -0.05046875 0.70789063 0 0 Z " fill="#46247C" transform="translate(273,155)"/>
<path d="M0 0 C0 1.98 0 3.96 0 6 C-1.65 5.67 -3.3 5.34 -5 5 C-3.33333333 0 -3.33333333 0 0 0 Z " fill="#FDFCF7" transform="translate(267,159)"/>
<path d="M0 0 C-0.33 1.32 -0.66 2.64 -1 4 C-1.33 3.34 -1.66 2.68 -2 2 C-4.35599235 1.53248212 -4.35599235 1.53248212 -7.0625 1.375 C-7.98160156 1.30023438 -8.90070313 1.22546875 -9.84765625 1.1484375 C-10.55792969 1.09945312 -11.26820313 1.05046875 -12 1 C-12 0.67 -12 0.34 -12 0 C-10.56359829 -0.19573608 -9.12580496 -0.38127816 -7.6875 -0.5625 C-6.88699219 -0.66691406 -6.08648437 -0.77132812 -5.26171875 -0.87890625 C-3 -1 -3 -1 0 0 Z " fill="#462280" transform="translate(244,217)"/>
<path d="M0 0 C5.41538462 -0.36923077 5.41538462 -0.36923077 8.375 1.5 C8.91125 1.995 9.4475 2.49 10 3 C9.01 3.33 8.02 3.66 7 4 C7 3.34 7 2.68 7 2 C5.02 2.33 3.04 2.66 1 3 C0.67 2.01 0.34 1.02 0 0 Z " fill="#DDCDEA" transform="translate(232,219)"/>
<path d="M0 0 C2.64 0 5.28 0 8 0 C8.33 2.31 8.66 4.62 9 7 C8.34 7 7.68 7 7 7 C6.6596875 6.0409375 6.6596875 6.0409375 6.3125 5.0625 C5.14749104 2.72806339 5.14749104 2.72806339 2.375 2.25 C1.59125 2.1675 0.8075 2.085 0 2 C0 1.34 0 0.68 0 0 Z " fill="#532E8F" transform="translate(246,207)"/>
<path d="M0 0 C0.66 0.33 1.32 0.66 2 1 C2 2.32 2 3.64 2 5 C2.66 5.66 3.32 6.32 4 7 C2.35 7.33 0.7 7.66 -1 8 C-1.125 2.25 -1.125 2.25 0 0 Z " fill="#522D7F" transform="translate(241,202)"/>
<path d="M0 0 C2.31 0 4.62 0 7 0 C7 0.99 7 1.98 7 3 C4.36 3 1.72 3 -1 3 C-0.67 2.01 -0.34 1.02 0 0 Z " fill="#48297C" transform="translate(263,217)"/>
<path d="M0 0 C0.99 0 1.98 0 3 0 C2.67 1.65 2.34 3.3 2 5 C0.35 4.67 -1.3 4.34 -3 4 C-2.01 3.67 -1.02 3.34 0 3 C0 2.01 0 1.02 0 0 Z " fill="#563B7A" transform="translate(235,243)"/>
<path d="M0 0 C1.65 0.33 3.3 0.66 5 1 C5 1.99 5 2.98 5 4 C2.03 3.505 2.03 3.505 -1 3 C-0.67 2.01 -0.34 1.02 0 0 Z " fill="#594378" transform="translate(233,225)"/>
<path d="M0 0 C0.33 1.65 0.66 3.3 1 5 C-0.65 4.67 -2.3 4.34 -4 4 C-4 3.01 -4 2.02 -4 1 C-2 0 -2 0 0 0 Z " fill="#4C2A80" transform="translate(228,144)"/>
<path d="M0 0 C0.99 0.33 1.98 0.66 3 1 C3.33 2.98 3.66 4.96 4 7 C2.68 7 1.36 7 0 7 C0 4.69 0 2.38 0 0 Z " fill="#4E386C" transform="translate(222,142)"/>
<path d="M0 0 C2.8992226 0.46761655 3.86675182 0.86675182 6 3 C4.68 3 3.36 3 2 3 C2 3.66 2 4.32 2 5 C1.34 5 0.68 5 0 5 C-0.5625 3.0625 -0.5625 3.0625 -1 1 C-0.67 0.67 -0.34 0.34 0 0 Z " fill="#411F75" transform="translate(261,169)"/>
<path d="M0 0 C0.9075 0.391875 1.815 0.78375 2.75 1.1875 C2.42 1.8475 2.09 2.5075 1.75 3.1875 C-1.22 2.8575 -4.19 2.5275 -7.25 2.1875 C-4.52596974 -0.53653026 -3.86366821 -0.96591705 0 0 Z " fill="#E0D4EC" transform="translate(229.25,152.8125)"/>
</svg>
