<?xml version="1.0" encoding="UTF-8"?>
<svg version="1.1" xmlns="http://www.w3.org/2000/svg" width="500" height="500">
<path d="M0 0 C1.11674511 0.95042087 2.23252489 1.90197608 3.34790039 2.85400391 C3.9693544 3.38377838 4.59080841 3.91355286 5.23109436 4.4593811 C7.39444368 6.34353861 9.42699013 8.32921803 11.4375 10.375 C12.11683594 11.06335938 12.79617188 11.75171875 13.49609375 12.4609375 C14.24052734 13.22277344 14.24052734 13.22277344 15 14 C13.39822218 17.98087165 10.61769406 20.65493174 7.6171875 23.61328125 C7.08408966 24.14592087 6.55099182 24.67856049 6.0017395 25.2273407 C4.87266483 26.35339921 3.74116559 27.4770312 2.60742188 28.59838867 C0.89664129 30.29108744 -0.80617492 31.99147489 -2.5078125 33.69335938 C-7.62611244 38.79416927 -12.77857682 43.76272769 -18.27246094 48.46166992 C-21.24743202 51.11080683 -23.88098116 54.05934279 -26.5625 57 C-34.27666388 65.29243412 -42.167558 73.41180708 -50.12619019 81.46923828 C-51.54246741 82.90682285 -52.95420169 84.34889715 -54.36135864 85.79541016 C-56.35919394 87.84711867 -58.37261625 89.88221839 -60.390625 91.9140625 C-61.30070564 92.85809433 -61.30070564 92.85809433 -62.22917175 93.82119751 C-63.95410156 95.53759766 -63.95410156 95.53759766 -67 98 C-70.20874078 97.58585499 -71.78726239 96.57837036 -74.015625 94.27734375 C-74.54414063 93.73916016 -75.07265625 93.20097656 -75.6171875 92.64648438 C-76.15601563 92.08251953 -76.69484375 91.51855469 -77.25 90.9375 C-77.80429688 90.36966797 -78.35859375 89.80183594 -78.9296875 89.21679688 C-80.29334214 87.81787531 -81.64760417 86.40980886 -83 85 C-81.62792243 81.92321319 -80.06507306 79.81719358 -77.68441772 77.44390869 C-77.00012192 76.75686356 -76.31582611 76.06981842 -75.61079407 75.36195374 C-74.48546516 74.24741066 -74.48546516 74.24741066 -73.33740234 73.11035156 C-72.54707108 72.31972824 -71.75673981 71.52910492 -70.94245911 70.71452332 C-68.32833109 68.10178891 -65.70718956 65.49621046 -63.0859375 62.890625 C-61.27232057 61.08073808 -59.45914463 59.27040917 -57.64639282 57.45965576 C-53.36125966 53.18137929 -49.07170349 48.90758699 -44.77997172 44.63593364 C-39.89336221 39.77168982 -35.0124401 34.90175614 -30.13198543 30.03133821 C-20.09430211 20.01455201 -10.04950407 10.00492579 0 0 Z " fill="#481F8E" transform="translate(282,261)"/>
<path d="M0 0 C3.07678681 1.37207757 5.18280642 2.93492694 7.55609131 5.31558228 C8.58665901 6.34202599 8.58665901 6.34202599 9.63804626 7.38920593 C10.38107498 8.1394252 11.1241037 8.88964447 11.88964844 9.66259766 C12.68027176 10.45292892 13.47089508 11.24326019 14.28547668 12.05754089 C16.89821109 14.67166891 19.50378954 17.29281044 22.109375 19.9140625 C23.91926192 21.72767943 25.72959083 23.54085537 27.54034424 25.35360718 C31.81862071 29.63874034 36.09241301 33.92829651 40.36406636 38.22002828 C45.22831018 43.10663779 50.09824386 47.9875599 54.96866179 52.86801457 C64.98544799 62.90569789 74.99507421 72.95049593 85 83 C84.04957913 84.11674511 83.09802392 85.23252489 82.14599609 86.34790039 C81.61622162 86.9693544 81.08644714 87.59080841 80.5406189 88.23109436 C78.65646139 90.39444368 76.67078197 92.42699013 74.625 94.4375 C73.93664062 95.11683594 73.24828125 95.79617187 72.5390625 96.49609375 C71.77722656 97.24052734 71.77722656 97.24052734 71 98 C64.04007529 92.24885462 57.80180995 85.8581673 51.47070312 79.43164062 C47.66840011 75.59453392 43.8738482 71.82032086 39.7734375 68.30078125 C36.08652768 65.13577328 32.82989604 61.71495858 29.5625 58.125 C20.79715715 48.643776 11.64050017 39.55456828 2.5 30.4375 C1.73833527 29.67769836 0.97667053 28.91789673 0.19192505 28.1350708 C-4.20203869 23.75334652 -8.59958964 19.37524968 -13 15 C-11.16307611 10.99625569 -8.50882084 8.28042066 -5.375 5.25 C-4.859375 4.74339844 -4.34375 4.23679688 -3.8125 3.71484375 C-2.54616661 2.47196098 -1.2736856 1.23534724 0 0 Z " fill="#4A1F8C" transform="translate(212,149)"/>
<path d="M0 0 C4.00374431 1.83692389 6.71957934 4.49117916 9.75 7.625 C10.25660156 8.140625 10.76320313 8.65625 11.28515625 9.1875 C12.52803902 10.45383339 13.76465276 11.7263144 15 13 C13.34316245 17.30042863 10.09555681 20.17043452 6.88549805 23.34155273 C6.25925537 23.96808746 5.6330127 24.59462219 4.98779297 25.24014282 C2.91714047 27.30940262 0.83949122 29.37148535 -1.23828125 31.43359375 C-2.68119722 32.8727772 -4.12367049 34.31240463 -5.5657196 35.75245667 C-9.36521972 39.54432109 -13.17068203 43.33014679 -16.97741699 47.11474609 C-20.83943438 50.95637225 -24.69586535 54.80359691 -28.55273438 58.65039062 C-34.78975978 64.86983949 -41.03018711 71.08585007 -47.27513123 77.29734802 C-50.52157968 80.52676394 -53.76351701 83.76058839 -57 87 C-60.66666667 90.66666667 -64.33333333 94.33333333 -68 98 C-73.29012124 93.59156563 -78.18808428 88.92440206 -83 84 C-78.64304101 78.78936078 -74.0641384 73.92583419 -69.25048828 69.13696289 C-68.49858719 68.38491577 -67.7466861 67.63286865 -66.97200012 66.85803223 C-64.507136 64.39386004 -62.03875789 61.93324049 -59.5703125 59.47265625 C-57.85231025 57.75652073 -56.13452988 56.04016306 -54.41696167 54.32359314 C-49.91143139 49.82186792 -45.40290529 45.32315483 -40.89373779 40.82507324 C-36.28671199 36.22830491 -31.68254087 31.62867923 -27.078125 27.02929688 C-18.05486698 18.01674068 -9.02853652 9.00726818 0 0 Z " fill="#4A1F8C" transform="translate(394,149)"/>
<path d="M0 0 C5.21063922 4.35695899 10.07416581 8.9358616 14.86303711 13.74951172 C15.61508423 14.50141281 16.36713135 15.2533139 17.14196777 16.02799988 C19.60613996 18.492864 22.06675951 20.96124211 24.52734375 23.4296875 C26.24347927 25.14768975 27.95983694 26.86547012 29.67640686 28.58303833 C34.17813208 33.08856861 38.67684517 37.59709471 43.17492676 42.10626221 C47.77169509 46.71328801 52.37132077 51.31745913 56.97070312 55.921875 C65.98325932 64.94513302 74.99273182 73.97146348 84 83 C82.16307611 87.00374431 79.50882084 89.71957934 76.375 92.75 C75.859375 93.25660156 75.34375 93.76320313 74.8125 94.28515625 C73.54616661 95.52803902 72.2736856 96.76465276 71 98 C67.92321319 96.62792243 65.81719358 95.06507306 63.44390869 92.68441772 C62.75686356 92.00012192 62.06981842 91.31582611 61.36195374 90.61079407 C60.24741066 89.48546516 60.24741066 89.48546516 59.11035156 88.33740234 C58.31972824 87.54707108 57.52910492 86.75673981 56.71452332 85.94245911 C54.10178891 83.32833109 51.49621046 80.70718956 48.890625 78.0859375 C47.08073808 76.27232057 45.27040917 74.45914463 43.45965576 72.64639282 C39.18137929 68.36125966 34.90758699 64.07170349 30.63593364 59.77997172 C25.77168982 54.89336221 20.90175614 50.0124401 16.03133821 45.13198543 C6.01455201 35.09430211 -3.99507421 25.04950407 -14 15 C-13.04957913 13.88325489 -12.09802392 12.76747511 -11.14599609 11.65209961 C-10.61622162 11.0306456 -10.08644714 10.40919159 -9.5406189 9.76890564 C-7.65646139 7.60555632 -5.67078197 5.57300987 -3.625 3.5625 C-2.93664062 2.88316406 -2.24828125 2.20382812 -1.5390625 1.50390625 C-1.03117187 1.00761719 -0.52328125 0.51132812 0 0 Z " fill="#4A1F8C" transform="translate(325,261)"/>
<path d="M0 0 C8.58 0 17.16 0 26 0 C26 3.3 26 6.6 26 10 C20.39 10 14.78 10 9 10 C9 10.99 9 11.98 9 13 C9.99 12.67 10.98 12.34 12 12 C18.40393132 11.46633906 21.79604752 12.14907516 27 16 C29.50225123 19.91656714 29.71170276 24.46289491 29 29 C27.25552041 32.55605455 25.65776378 34.50667717 22.5 36.875 C16.2088146 38.89716673 9.76442924 38.93793135 3.5 36.8125 C0.67693585 34.76577849 -1.16122178 32.97033405 -3 30 C-3.1015625 27.3359375 -3.1015625 27.3359375 -3 25 C0.36404514 24.7688824 3.64314691 24.6340871 7 25 C9.3125 27.0625 9.3125 27.0625 11 29 C13.70705512 28.85974801 13.70705512 28.85974801 16 28 C16.69159401 26.15274948 16.69159401 26.15274948 17 24 C16.34 23.01 15.68 22.02 15 21 C12.45792029 20.66656449 12.45792029 20.66656449 10 21 C9.67 21.33 9.34 21.66 9 22 C7.00390625 22.16796875 7.00390625 22.16796875 4.5625 22.1875 C3.35787109 22.20876953 3.35787109 22.20876953 2.12890625 22.23046875 C0 22 0 22 -2 20 C-2.04345703 17.93701172 -2.04345703 17.93701172 -1.7578125 15.4296875 C-1.67160645 14.62257324 -1.58540039 13.81545898 -1.49658203 12.98388672 C-1.37395996 11.9579541 -1.25133789 10.93202148 -1.125 9.875 C-0.75375 6.61625 -0.3825 3.3575 0 0 Z " fill="#4A1F8C" transform="translate(95,198)"/>
<path d="M0 0 C2.72081997 2.21552483 3.50030641 3.84489603 3.9375 7.3125 C4.19020448 10.70752974 4.00884355 11.98039039 2.5625 15.1875 C-0.65966407 18.72402154 -4.08039007 21.25627305 -8 24 C-4.04 24.33 -0.08 24.66 4 25 C4 28.3 4 31.6 4 35 C-6.23 35 -16.46 35 -27 35 C-27 27.08986175 -27 27.08986175 -24.125 24.0625 C-23.4959375 23.39734375 -22.866875 22.7321875 -22.21875 22.046875 C-19.0158457 19.092083 -15.57771133 16.49609197 -12.0390625 13.95703125 C-9.64785844 11.66202505 -9.30291029 10.24787144 -9 7 C-11.31 7 -13.62 7 -16 7 C-16 8.65 -16 10.3 -16 12 C-19.63 12 -23.26 12 -27 12 C-27.35213747 8.30255651 -27.0961114 6.20423674 -25.5 2.8125 C-18.69915249 -4.83845344 -8.56833317 -4.53617638 0 0 Z " fill="#4A1E8C" transform="translate(155,200)"/>
<path d="M0 0 C2.64 0 5.28 0 8 0 C7.34 3.63 6.68 7.26 6 11 C7.32 10.67 8.64 10.34 10 10 C10.13277344 9.36191406 10.26554687 8.72382813 10.40234375 8.06640625 C10.57894531 7.24011719 10.75554687 6.41382813 10.9375 5.5625 C11.19853516 4.32693359 11.19853516 4.32693359 11.46484375 3.06640625 C12 1 12 1 13 0 C15.33297433 -0.04092937 17.66705225 -0.04241723 20 0 C19.34 3.63 18.68 7.26 18 11 C19.65 11 21.3 11 23 11 C23 13.31 23 15.62 23 18 C20.69 18 18.38 18 16 18 C16 19.32 16 20.64 16 22 C17.65 22.33 19.3 22.66 21 23 C21 25.31 21 27.62 21 30 C18.69 30.33 16.38 30.66 14 31 C13.34 33.64 12.68 36.28 12 39 C9.36 39 6.72 39 4 39 C4.66 36.03 5.32 33.06 6 30 C4.35 30 2.7 30 1 30 C0.855625 31.299375 0.71125 32.59875 0.5625 33.9375 C0.125 37.875 0.125 37.875 -1 39 C-3.33297433 39.04092937 -5.66705225 39.04241723 -8 39 C-7.67 36.36 -7.34 33.72 -7 31 C-8.32 30.67 -9.64 30.34 -11 30 C-11 27.69 -11 25.38 -11 23 C-9.02 22.67 -7.04 22.34 -5 22 C-4.67 20.68 -4.34 19.36 -4 18 C-5.65 18 -7.3 18 -9 18 C-9 15.69 -9 13.38 -9 11 C-6.69 11 -4.38 11 -2 11 C-1.34 7.37 -0.68 3.74 0 0 Z M4 18 C3.67 19.65 3.34 21.3 3 23 C4.65 23 6.3 23 8 23 C8.33 21.35 8.66 19.7 9 18 C7.35 18 5.7 18 4 18 Z " fill="#4A1F8C" transform="translate(67,197)"/>
<path d="M0 0 C4.32504836 1.65863505 7.09418825 4.871041 10.25 8.125 C10.80429687 8.68832031 11.35859375 9.25164062 11.9296875 9.83203125 C13.29104485 11.21686028 14.64614859 12.60783204 16 14 C11.59156563 19.29012124 6.92440206 24.18808428 2 29 C-3.29012124 24.59156563 -8.18808428 19.92440206 -13 15 C-11.38989473 10.92623969 -8.46177729 8.23492931 -5.375 5.25 C-4.859375 4.74339844 -4.34375 4.23679688 -3.8125 3.71484375 C-2.54616661 2.47196098 -1.2736856 1.23534724 0 0 Z " fill="#492193" transform="translate(303,240)"/>
<path d="M0 0 C2.375 1.625 2.375 1.625 4 4 C4.61195145 7.6717087 4.48706506 9.28813568 2.375 12.375 C-0.71186432 14.48706506 -2.3282913 14.61195145 -6 14 C-8.375 12.375 -8.375 12.375 -10 10 C-10.61195145 6.3282913 -10.48706506 4.71186432 -8.375 1.625 C-5.28813568 -0.48706506 -3.6717087 -0.61195145 0 0 Z " fill="#F4F1F8" transform="translate(307,247)"/>
<path d="M0 0 C1.2065625 0.0309375 1.2065625 0.0309375 2.4375 0.0625 C2.4375 2.0425 2.4375 4.0225 2.4375 6.0625 C0.7875 6.0625 -0.8625 6.0625 -2.5625 6.0625 C-2.94468767 4.40635343 -3.27645102 2.73792976 -3.5625 1.0625 C-2.5625 0.0625 -2.5625 0.0625 0 0 Z " fill="#4F258E" transform="translate(304.5625,250.9375)"/>
</svg>
