<?xml version="1.0" encoding="UTF-8"?>
<svg version="1.1" xmlns="http://www.w3.org/2000/svg" width="500" height="500">
<path d="M0 0 C100.32 0 200.64 0 304 0 C304 51.48 304 102.96 304 156 C233.05 156.33 162.1 156.66 89 157 C92.96 157.66 96.92 158.32 101 159 C101 159.66 101 160.32 101 161 C103.31 161.33 105.62 161.66 108 162 C108 162.66 108 163.32 108 164 C109.5778125 164.1546875 109.5778125 164.1546875 111.1875 164.3125 C114.90104094 164.98215492 116.99303465 165.78899607 120 168 C120.33 168.66 120.66 169.32 121 170 C121.99 170.33 122.98 170.66 124 171 C124 171.66 124 172.32 124 173 C124.99 173.33 125.98 173.66 127 174 C127 174.66 127 175.32 127 176 C128.65 176.66 130.3 177.32 132 178 C132 178.66 132 179.32 132 180 C132.61875 180.309375 133.2375 180.61875 133.875 180.9375 C135.25 181.625 136.625 182.3125 138 183 C138.33 183.99 138.66 184.98 139 186 C140.2065625 186.928125 140.2065625 186.928125 141.4375 187.875 C144.20924463 190.17351994 144.83349348 191.67994299 146 195 C146.66 195.33 147.32 195.66 148 196 C148.625 198.5625 148.625 198.5625 149 201 C149.66 201 150.32 201 151 201 C151.33 201.99 151.66 202.98 152 204 C152.66 204.33 153.32 204.66 154 205 C154.625 208.0625 154.625 208.0625 155 211 C155.66 211 156.32 211 157 211 C158 213 159 215 160 217 C160.35964844 217.67289063 160.71929687 218.34578125 161.08984375 219.0390625 C161.45207031 219.72742188 161.81429687 220.41578125 162.1875 221.125 C162.53167969 221.76695312 162.87585938 222.40890625 163.23046875 223.0703125 C164 225 164 225 164 229 C164.66 229 165.32 229 166 229 C170.40774487 239.37357631 170.40774487 239.37357631 171 245 C171.66 245 172.32 245 173 245 C173 246.32 173 247.64 173 249 C173.66 249 174.32 249 175 249 C175.33 247.68 175.66 246.36 176 245 C176.99 245 177.98 245 179 245 C180.15136852 249.60547409 180 252.93994143 180 258 C191.88 258 203.76 258 216 258 C216.33 256.02 216.66 254.04 217 252 C217.66 252 218.32 252 219 252 C219.020625 250.96875 219.04125 249.9375 219.0625 248.875 C219.59827537 244.36961621 221.42534545 240.57454298 223.4375 236.5625 C223.75017822 235.93520996 224.06285645 235.30791992 224.38500977 234.66162109 C226.73020126 230.13489937 226.73020126 230.13489937 229 229 C229.33 228.01 229.66 227.02 230 226 C230.66 226 231.32 226 232 226 C232.33 225.01 232.66 224.02 233 223 C233.66 223 234.32 223 235 223 C235.165 222.319375 235.33 221.63875 235.5 220.9375 C237.68991933 216.64890797 241.12000999 213.80490944 245 211 C245.66 211 246.32 211 247 211 C247.33 210.01 247.66 209.02 248 208 C248.66 208 249.32 208 250 208 C250 207.34 250 206.68 250 206 C252.64738916 204.5393715 253.89448334 204 257 204 C257 203.34 257 202.68 257 202 C258.98 201.67 260.96 201.34 263 201 C263 200.34 263 199.68 263 199 C265.31 198.67 267.62 198.34 270 198 C270 197.34 270 196.68 270 196 C271.64432706 195.63890458 273.2905208 195.28629924 274.9375 194.9375 C275.85402344 194.74027344 276.77054687 194.54304687 277.71484375 194.33984375 C278.84599609 194.17162109 278.84599609 194.17162109 280 194 C281 195 281 195 281.12025452 197.77772522 C281.11803391 199.01904709 281.11581329 200.26036896 281.11352539 201.53930664 C281.11367142 202.22220261 281.11381744 202.90509857 281.1139679 203.60868835 C281.11326876 205.87587614 281.1054764 208.14298274 281.09765625 210.41015625 C281.09579207 211.97814387 281.09436817 213.54613207 281.09336853 215.11412048 C281.08954334 219.24876503 281.07971306 223.38337466 281.06866455 227.51800537 C281.05845044 231.73400398 281.05387091 235.95000822 281.04882812 240.16601562 C281.03809079 248.44402647 281.02101436 256.7220089 281 265 C278.36 265 275.72 265 273 265 C273 265.66 273 266.32 273 267 C271.04402816 268.39712274 269.0340906 269.71927629 267 271 C265.948125 271.7425 264.89625 272.485 263.8125 273.25 C261 275 261 275 258 275 C257.67 275.99 257.34 276.98 257 278 C256.01 278 255.02 278 254 278 C254 278.66 254 279.32 254 280 C252.35 280.33 250.7 280.66 249 281 C248.67 281.99 248.34 282.98 248 284 C247.01 284 246.02 284 245 284 C245 284.66 245 285.32 245 286 C243.02 286.33 241.04 286.66 239 287 C239 287.66 239 288.32 239 289 C238.17757813 289.31453125 237.35515625 289.6290625 236.5078125 289.953125 C234.83332031 290.59507812 234.83332031 290.59507812 233.125 291.25 C231.93003906 291.70632813 230.73507812 292.16265625 229.50390625 292.6328125 C226.66015342 293.74241505 223.86506868 294.91788361 221.0625 296.125 C215.80090993 298.26957549 210.37325117 299.31451888 204.80859375 300.38671875 C202.10851877 300.71148777 202.10851877 300.71148777 201 302 C193.11423109 303.25114993 185.19649777 303.15254326 177.23413086 303.13037109 C174.93922342 303.12500403 172.64451093 303.13034607 170.34960938 303.13671875 C168.86718708 303.13605799 167.3847649 303.13477686 165.90234375 303.1328125 C165.22815903 303.13483673 164.5539743 303.13686096 163.85935974 303.13894653 C159.15455696 303.11616757 154.64940615 302.65203704 150 302 C150 301.34 150 300.68 150 300 C149.05253906 300.01353516 149.05253906 300.01353516 148.0859375 300.02734375 C139.1368645 299.73076064 132.64322221 296.27350965 125 292 C125 291.34 125 290.68 125 290 C124.195625 289.87625 123.39125 289.7525 122.5625 289.625 C121.2940625 289.315625 121.2940625 289.315625 120 289 C119.67 288.34 119.34 287.68 119 287 C118.01 286.67 117.02 286.34 116 286 C116 285.34 116 284.68 116 284 C115.01 283.67 114.02 283.34 113 283 C113 282.34 113 281.68 113 281 C112.01 280.67 111.02 280.34 110 280 C110 279.34 110 278.68 110 278 C109.01 277.67 108.02 277.34 107 277 C107 276.34 107 275.68 107 275 C106.01 274.67 105.02 274.34 104 274 C104 273.01 104 272.02 104 271 C103.01 270.67 102.02 270.34 101 270 C100.67 268.35 100.34 266.7 100 265 C45.88 265 -8.24 265 -64 265 C-64 262.69 -64 260.38 -64 258 C-59.05 258 -54.1 258 -49 258 C-48.67 255.03 -48.34 252.06 -48 249 C-47.34 249 -46.68 249 -46 249 C-45.67 245.7 -45.34 242.4 -45 239 C-44.34 239 -43.68 239 -43 239 C-42.67 236.03 -42.34 233.06 -42 230 C-41.34 230 -40.68 230 -40 230 C-39.67 227.69 -39.34 225.38 -39 223 C-38.34 223 -37.68 223 -37 223 C-36.67 220.36 -36.34 217.72 -36 215 C-35.34 215 -34.68 215 -34 215 C-33.67 212.69 -33.34 210.38 -33 208 C-32.34 208 -31.68 208 -31 208 C-30.896875 207.278125 -30.79375 206.55625 -30.6875 205.8125 C-29.93652335 202.7403228 -28.67985763 200.65977458 -27 198 C-26.67 197.01 -26.34 196.02 -26 195 C-25.34 195 -24.68 195 -24 195 C-23.814375 193.7934375 -23.814375 193.7934375 -23.625 192.5625 C-23.41875 191.716875 -23.2125 190.87125 -23 190 C-22.34 189.67 -21.68 189.34 -21 189 C-20.67 188.01 -20.34 187.02 -20 186 C-19.34 186 -18.68 186 -18 186 C-17.67 185.01 -17.34 184.02 -17 183 C-16.34 183 -15.68 183 -15 183 C-14.67 181.68 -14.34 180.36 -14 179 C-13.34 179 -12.68 179 -12 179 C-11.67 178.01 -11.34 177.02 -11 176 C-10.34 176 -9.68 176 -9 176 C-8.67 175.01 -8.34 174.02 -8 173 C-7.34 173 -6.68 173 -6 173 C-5.67 172.01 -5.34 171.02 -5 170 C-4.34 170 -3.68 170 -3 170 C-2.67 169.01 -2.34 168.02 -2 167 C-1.01 167 -0.02 167 1 167 C1.33 166.01 1.66 165.02 2 164 C2.99 164 3.98 164 5 164 C5 163.34 5 162.68 5 162 C6.98 161.67 8.96 161.34 11 161 C11 160.34 11 159.68 11 159 C15.455 158.01 15.455 158.01 20 157 C10.1 156.505 10.1 156.505 0 156 C0 104.52 0 53.04 0 0 Z M37 156 C37.33 156.66 37.66 157.32 38 158 C41.96 158 45.92 158 50 158 C50.33 157.34 50.66 156.68 51 156 C46.38 156 41.76 156 37 156 Z M59 160 C56.34536879 160.45459858 53.67810862 160.70243238 51 161 C52.28965176 162.37562854 53.62689293 163.70766393 55 165 C55.66 165 56.32 165 57 165 C57 165.66 57 166.32 57 167 C57.99 167.33 58.98 167.66 60 168 C61.34423339 169.65788785 62.67618483 171.32576317 64 173 C65.65893182 174.34294481 67.32476605 175.67744688 69 177 C69.66 177.99 70.32 178.98 71 180 C71.66 180 72.32 180 73 180 C73.33 181.32 73.66 182.64 74 184 C74.66 184 75.32 184 76 184 C76.12375 184.804375 76.2475 185.60875 76.375 186.4375 C76.58125 187.283125 76.7875 188.12875 77 189 C77.66 189.33 78.32 189.66 79 190 C79.33 190.99 79.66 191.98 80 193 C80.66 193 81.32 193 82 193 C82.33 194.98 82.66 196.96 83 199 C83.66 199 84.32 199 85 199 C85.495 201.97 85.495 201.97 86 205 C86.66 205 87.32 205 88 205 C88.0825 205.94875 88.165 206.8975 88.25 207.875 C88.68107119 210.98487075 89.57981052 213.46011706 90.875 216.3125 C94.07017281 223.810661 94.84805412 231.98874 96 240 C96.66 240 97.32 240 98 240 C98.495 248.91 98.495 248.91 99 258 C121.44 258 143.88 258 167 258 C166.67 256.35 166.34 254.7 166 253 C165.34 253 164.68 253 164 253 C164.495 251.515 164.495 251.515 165 250 C165.66 249.67 166.32 249.34 167 249 C167 249.66 167 250.32 167 251 C167.99 251 168.98 251 170 251 C169.67 249.35 169.34 247.7 169 246 C168.34 246 167.68 246 167 246 C166.505 242.535 166.505 242.535 166 239 C165.34 239 164.68 239 164 239 C163.505 235.04 163.505 235.04 163 231 C162.34 231 161.68 231 161 231 C160.67 229.02 160.34 227.04 160 225 C159.34 225 158.68 225 158 225 C157.71125 224.113125 157.4225 223.22625 157.125 222.3125 C156.16851252 219.49617576 155.13201054 216.74916844 154 214 C153.34 214 152.68 214 152 214 C151.855625 213.236875 151.71125 212.47375 151.5625 211.6875 C151.0367406 208.91827092 151.0367406 208.91827092 150 206 C149.34 206 148.68 206 148 206 C147.505 204.02 147.505 204.02 147 202 C146.34 202 145.68 202 145 202 C144.896875 201.443125 144.79375 200.88625 144.6875 200.3125 C143.85988599 197.52870742 142.62262248 195.40148127 141 193 C140.34 192.67 139.68 192.34 139 192 C138.67 191.01 138.34 190.02 138 189 C137.34 189 136.68 189 136 189 C135.505 187.515 135.505 187.515 135 186 C134.34 186 133.68 186 133 186 C132.505 184.515 132.505 184.515 132 183 C131.34 183 130.68 183 130 183 C129.505 181.515 129.505 181.515 129 180 C128.34 180 127.68 180 127 180 C127 179.34 127 178.68 127 178 C126.360625 177.896875 125.72125 177.79375 125.0625 177.6875 C124.381875 177.460625 123.70125 177.23375 123 177 C122.505 175.515 122.505 175.515 122 174 C120.35 173.67 118.7 173.34 117 173 C117 172.34 117 171.68 117 171 C115.56570999 170.32645501 114.12742943 169.66140299 112.6875 169 C111.88699219 168.62875 111.08648437 168.2575 110.26171875 167.875 C107.93786041 166.81959333 107.93786041 166.81959333 105 167 C105 166.34 105 165.68 105 165 C102.36 164.67 99.72 164.34 97 164 C97 163.34 97 162.68 97 162 C95.85660156 161.86722656 94.71320313 161.73445312 93.53515625 161.59765625 C92.0442438 161.4194969 90.55335982 161.24109918 89.0625 161.0625 C88.30775391 160.97548828 87.55300781 160.88847656 86.77539062 160.79882812 C81.11328125 160.11328125 81.11328125 160.11328125 80 159 C78.52347336 158.90119203 77.04232764 158.86920755 75.5625 158.8671875 C74.66789062 158.86589844 73.77328125 158.86460937 72.8515625 158.86328125 C71.44003906 158.86908203 71.44003906 158.86908203 70 158.875 C69.05898437 158.87113281 68.11796875 158.86726562 67.1484375 158.86328125 C65.80652344 158.86521484 65.80652344 158.86521484 64.4375 158.8671875 C63.19806641 158.86887939 63.19806641 158.86887939 61.93359375 158.87060547 C59.99320961 158.78735193 59.99320961 158.78735193 59 160 Z " fill="#FEFEFE" transform="translate(134,0)"/>
<path d="M0 0 C4.00610972 0.23011596 7.99515951 0.26781982 12 0 C12.33 -0.33 12.66 -0.66 13 -1 C15.72724279 -1.10099488 18.42862523 -1.13970529 21.15625 -1.1328125 C21.97371704 -1.13376923 22.79118408 -1.13472595 23.63342285 -1.13571167 C25.36515378 -1.13639345 27.09688724 -1.13453929 28.82861328 -1.13037109 C31.48866482 -1.12502279 34.1485475 -1.13031612 36.80859375 -1.13671875 C38.48697954 -1.13605797 40.16536523 -1.1347768 41.84375 -1.1328125 C42.64478149 -1.13483673 43.44581299 -1.13686096 44.27111816 -1.13894653 C49.88504921 -1.11495079 49.88504921 -1.11495079 51 0 C53.01311449 0.39569108 55.03597208 0.74252191 57.0625 1.0625 C58.16722656 1.23910156 59.27195313 1.41570312 60.41015625 1.59765625 C61.26480469 1.73042969 62.11945313 1.86320313 63 2 C63 2.66 63 3.32 63 4 C65.31 4.33 67.62 4.66 70 5 C70 5.66 70 6.32 70 7 C71.5778125 7.1546875 71.5778125 7.1546875 73.1875 7.3125 C76.90104094 7.98215492 78.99303465 8.78899607 82 11 C82.33 11.66 82.66 12.32 83 13 C83.99 13.33 84.98 13.66 86 14 C86 14.66 86 15.32 86 16 C86.99 16.33 87.98 16.66 89 17 C89 17.66 89 18.32 89 19 C90.65 19.66 92.3 20.32 94 21 C94 21.66 94 22.32 94 23 C94.61875 23.309375 95.2375 23.61875 95.875 23.9375 C97.25 24.625 98.625 25.3125 100 26 C100.33 26.99 100.66 27.98 101 29 C102.2065625 29.928125 102.2065625 29.928125 103.4375 30.875 C106.20924463 33.17351994 106.83349348 34.67994299 108 38 C108.66 38.33 109.32 38.66 110 39 C110.625 41.5625 110.625 41.5625 111 44 C111.66 44 112.32 44 113 44 C113.33 44.99 113.66 45.98 114 47 C114.66 47.33 115.32 47.66 116 48 C116.625 51.0625 116.625 51.0625 117 54 C117.66 54 118.32 54 119 54 C120 56 121 58 122 60 C122.53947266 61.00933594 122.53947266 61.00933594 123.08984375 62.0390625 C123.45207031 62.72742188 123.81429687 63.41578125 124.1875 64.125 C124.53167969 64.76695312 124.87585938 65.40890625 125.23046875 66.0703125 C126 68 126 68 126 72 C126.66 72 127.32 72 128 72 C132.40774487 82.37357631 132.40774487 82.37357631 133 88 C133.66 88 134.32 88 135 88 C135 89.32 135 90.64 135 92 C135.66 92 136.32 92 137 92 C137.33 90.68 137.66 89.36 138 88 C138.99 88 139.98 88 141 88 C142.15136852 92.60547409 142 95.93994143 142 101 C153.88 101 165.76 101 178 101 C178.33 99.02 178.66 97.04 179 95 C179.66 95 180.32 95 181 95 C181.020625 93.96875 181.04125 92.9375 181.0625 91.875 C181.59827537 87.36961621 183.42534545 83.57454298 185.4375 79.5625 C185.75017822 78.93520996 186.06285645 78.30791992 186.38500977 77.66162109 C188.73020126 73.13489937 188.73020126 73.13489937 191 72 C191.33 71.01 191.66 70.02 192 69 C192.66 69 193.32 69 194 69 C194.33 68.01 194.66 67.02 195 66 C195.66 66 196.32 66 197 66 C197.165 65.319375 197.33 64.63875 197.5 63.9375 C199.68991933 59.64890797 203.12000999 56.80490944 207 54 C207.66 54 208.32 54 209 54 C209.33 53.01 209.66 52.02 210 51 C210.66 51 211.32 51 212 51 C212 50.34 212 49.68 212 49 C214.64738916 47.5393715 215.89448334 47 219 47 C219 46.34 219 45.68 219 45 C220.98 44.67 222.96 44.34 225 44 C225 43.34 225 42.68 225 42 C228.465 41.505 228.465 41.505 232 41 C232 40.34 232 39.68 232 39 C233.64432706 38.63890458 235.2905208 38.28629924 236.9375 37.9375 C237.85402344 37.74027344 238.77054687 37.54304688 239.71484375 37.33984375 C240.46894531 37.22769531 241.22304688 37.11554688 242 37 C243 38 243 38 243.12025452 40.77772522 C243.11803391 42.01904709 243.11581329 43.26036896 243.11352539 44.53930664 C243.11367142 45.22220261 243.11381744 45.90509857 243.1139679 46.60868835 C243.11326876 48.87587614 243.1054764 51.14298274 243.09765625 53.41015625 C243.09579207 54.97814387 243.09436817 56.54613207 243.09336853 58.11412048 C243.08954334 62.24876503 243.07971306 66.38337466 243.06866455 70.51800537 C243.05845044 74.73400398 243.05387091 78.95000822 243.04882812 83.16601562 C243.03809079 91.44402647 243.02101436 99.7220089 243 108 C240.36 108 237.72 108 235 108 C235 108.66 235 109.32 235 110 C233.04402816 111.39712274 231.0340906 112.71927629 229 114 C227.948125 114.7425 226.89625 115.485 225.8125 116.25 C223 118 223 118 220 118 C219.67 118.99 219.34 119.98 219 121 C218.01 121 217.02 121 216 121 C216 121.66 216 122.32 216 123 C214.35 123.33 212.7 123.66 211 124 C210.67 124.99 210.34 125.98 210 127 C209.01 127 208.02 127 207 127 C207 127.66 207 128.32 207 129 C205.02 129.33 203.04 129.66 201 130 C201 130.66 201 131.32 201 132 C200.17757813 132.31453125 199.35515625 132.6290625 198.5078125 132.953125 C197.39148438 133.38109375 196.27515625 133.8090625 195.125 134.25 C193.33255859 134.93449219 193.33255859 134.93449219 191.50390625 135.6328125 C188.66015342 136.74241505 185.86506868 137.91788361 183.0625 139.125 C177.80090993 141.26957549 172.37325117 142.31451888 166.80859375 143.38671875 C164.10851877 143.71148777 164.10851877 143.71148777 163 145 C155.11423109 146.25114993 147.19649777 146.15254326 139.23413086 146.13037109 C136.93922342 146.12500403 134.64451093 146.13034607 132.34960938 146.13671875 C130.86718708 146.13605799 129.3847649 146.13477686 127.90234375 146.1328125 C127.22815903 146.13483673 126.5539743 146.13686096 125.85935974 146.13894653 C121.15455696 146.11616757 116.64940615 145.65203704 112 145 C112 144.34 112 143.68 112 143 C111.36835938 143.00902344 110.73671875 143.01804687 110.0859375 143.02734375 C101.1368645 142.73076064 94.64322221 139.27350965 87 135 C87 134.34 87 133.68 87 133 C85.7934375 132.814375 85.7934375 132.814375 84.5625 132.625 C83.716875 132.41875 82.87125 132.2125 82 132 C81.67 131.34 81.34 130.68 81 130 C80.01 129.67 79.02 129.34 78 129 C78 128.34 78 127.68 78 127 C77.01 126.67 76.02 126.34 75 126 C75 125.34 75 124.68 75 124 C74.01 123.67 73.02 123.34 72 123 C72 122.34 72 121.68 72 121 C71.01 120.67 70.02 120.34 69 120 C69 119.34 69 118.68 69 118 C68.01 117.67 67.02 117.34 66 117 C66 116.01 66 115.02 66 114 C65.01 113.67 64.02 113.34 63 113 C62.67 111.35 62.34 109.7 62 108 C7.88 108 -46.24 108 -102 108 C-102 105.69 -102 103.38 -102 101 C-97.05 101 -92.1 101 -87 101 C-86.67 98.03 -86.34 95.06 -86 92 C-85.34 92 -84.68 92 -84 92 C-83.67 88.7 -83.34 85.4 -83 82 C-82.34 82 -81.68 82 -81 82 C-80.67 79.03 -80.34 76.06 -80 73 C-79.34 73 -78.68 73 -78 73 C-77.67 70.69 -77.34 68.38 -77 66 C-76.34 66 -75.68 66 -75 66 C-74.67 63.36 -74.34 60.72 -74 58 C-73.34 58 -72.68 58 -72 58 C-71.67 55.69 -71.34 53.38 -71 51 C-70.34 51 -69.68 51 -69 51 C-68.8453125 49.9171875 -68.8453125 49.9171875 -68.6875 48.8125 C-67.93652335 45.7403228 -66.67985763 43.65977458 -65 41 C-64.67 40.01 -64.34 39.02 -64 38 C-63.34 38 -62.68 38 -62 38 C-61.814375 36.7934375 -61.814375 36.7934375 -61.625 35.5625 C-61.41875 34.716875 -61.2125 33.87125 -61 33 C-60.34 32.67 -59.68 32.34 -59 32 C-58.67 31.01 -58.34 30.02 -58 29 C-57.34 29 -56.68 29 -56 29 C-55.505 27.515 -55.505 27.515 -55 26 C-54.34 26 -53.68 26 -53 26 C-52.67 24.68 -52.34 23.36 -52 22 C-51.34 22 -50.68 22 -50 22 C-49.505 20.515 -49.505 20.515 -49 19 C-48.34 19 -47.68 19 -47 19 C-46.505 17.515 -46.505 17.515 -46 16 C-45.34 16 -44.68 16 -44 16 C-43.505 14.515 -43.505 14.515 -43 13 C-42.34 13 -41.68 13 -41 13 C-40.67 12.01 -40.34 11.02 -40 10 C-39.01 10 -38.02 10 -37 10 C-36.67 9.01 -36.34 8.02 -36 7 C-35.01 7 -34.02 7 -33 7 C-33 6.34 -33 5.68 -33 5 C-30.03 4.505 -30.03 4.505 -27 4 C-27 3.34 -27 2.68 -27 2 C-26.36191406 1.86722656 -25.72382813 1.73445312 -25.06640625 1.59765625 C-24.24011719 1.42105469 -23.41382813 1.24445313 -22.5625 1.0625 C-21.73878906 0.88847656 -20.91507812 0.71445313 -20.06640625 0.53515625 C-18.02338796 0.19247006 -18.02338796 0.19247006 -17 -1 C-10.69148517 -2.06395736 -6.0448272 -2.09718495 0 0 Z M21 3 C18.34536879 3.45459858 15.67810862 3.70243238 13 4 C14.28965176 5.37562854 15.62689293 6.70766393 17 8 C17.66 8 18.32 8 19 8 C19 8.66 19 9.32 19 10 C19.99 10.33 20.98 10.66 22 11 C23.34423339 12.65788785 24.67618483 14.32576317 26 16 C27.65893182 17.34294481 29.32476605 18.67744688 31 20 C31.66 20.99 32.32 21.98 33 23 C33.66 23 34.32 23 35 23 C35.33 24.32 35.66 25.64 36 27 C36.66 27 37.32 27 38 27 C38.12375 27.804375 38.2475 28.60875 38.375 29.4375 C38.58125 30.283125 38.7875 31.12875 39 32 C39.66 32.33 40.32 32.66 41 33 C41.33 33.99 41.66 34.98 42 36 C42.66 36 43.32 36 44 36 C44.33 37.98 44.66 39.96 45 42 C45.66 42 46.32 42 47 42 C47.495 44.97 47.495 44.97 48 48 C48.66 48 49.32 48 50 48 C50.0825 48.94875 50.165 49.8975 50.25 50.875 C50.68107119 53.98487075 51.57981052 56.46011706 52.875 59.3125 C56.07017281 66.810661 56.84805412 74.98874 58 83 C58.66 83 59.32 83 60 83 C60.495 91.91 60.495 91.91 61 101 C83.44 101 105.88 101 129 101 C128.67 99.35 128.34 97.7 128 96 C127.34 96 126.68 96 126 96 C126.495 94.515 126.495 94.515 127 93 C127.66 92.67 128.32 92.34 129 92 C129 92.66 129 93.32 129 94 C129.99 94 130.98 94 132 94 C131.67 92.35 131.34 90.7 131 89 C130.34 89 129.68 89 129 89 C128.505 85.535 128.505 85.535 128 82 C127.34 82 126.68 82 126 82 C125.505 78.04 125.505 78.04 125 74 C124.34 74 123.68 74 123 74 C122.67 72.02 122.34 70.04 122 68 C121.34 68 120.68 68 120 68 C119.71125 67.113125 119.4225 66.22625 119.125 65.3125 C118.16851252 62.49617576 117.13201054 59.74916844 116 57 C115.34 57 114.68 57 114 57 C113.855625 56.236875 113.71125 55.47375 113.5625 54.6875 C113.0367406 51.91827092 113.0367406 51.91827092 112 49 C111.34 49 110.68 49 110 49 C109.505 47.02 109.505 47.02 109 45 C108.34 45 107.68 45 107 45 C106.896875 44.443125 106.79375 43.88625 106.6875 43.3125 C105.85988599 40.52870742 104.62262248 38.40148127 103 36 C102.34 35.67 101.68 35.34 101 35 C100.67 34.01 100.34 33.02 100 32 C99.34 32 98.68 32 98 32 C97.505 30.515 97.505 30.515 97 29 C96.34 29 95.68 29 95 29 C94.505 27.515 94.505 27.515 94 26 C93.34 26 92.68 26 92 26 C91.505 24.515 91.505 24.515 91 23 C90.34 23 89.68 23 89 23 C89 22.34 89 21.68 89 21 C88.360625 20.896875 87.72125 20.79375 87.0625 20.6875 C86.381875 20.460625 85.70125 20.23375 85 20 C84.505 18.515 84.505 18.515 84 17 C82.35 16.67 80.7 16.34 79 16 C79 15.34 79 14.68 79 14 C77.56570999 13.32645501 76.12742943 12.66140299 74.6875 12 C73.88699219 11.62875 73.08648437 11.2575 72.26171875 10.875 C69.93786041 9.81959333 69.93786041 9.81959333 67 10 C67 9.34 67 8.68 67 8 C64.36 7.67 61.72 7.34 59 7 C59 6.34 59 5.68 59 5 C57.85660156 4.86722656 56.71320313 4.73445312 55.53515625 4.59765625 C54.0442438 4.4194969 52.55335982 4.24109918 51.0625 4.0625 C50.30775391 3.97548828 49.55300781 3.88847656 48.77539062 3.79882812 C43.11328125 3.11328125 43.11328125 3.11328125 42 2 C40.52347336 1.90119203 39.04232764 1.86920755 37.5625 1.8671875 C36.66789062 1.86589844 35.77328125 1.86460937 34.8515625 1.86328125 C33.44003906 1.86908203 33.44003906 1.86908203 32 1.875 C31.05898437 1.87113281 30.11796875 1.86726562 29.1484375 1.86328125 C27.80652344 1.86521484 27.80652344 1.86521484 26.4375 1.8671875 C25.19806641 1.86887939 25.19806641 1.86887939 23.93359375 1.87060547 C21.99320961 1.78735193 21.99320961 1.78735193 21 3 Z " fill="#010101" transform="translate(172,157)"/>
<path d="M0 0 C0.76570313 0.28230469 1.53140625 0.56460938 2.3203125 0.85546875 C5.55258134 2.23601506 8.31921407 3.9992832 11.25 5.9375 C12.30703125 6.62714844 13.3640625 7.31679687 14.453125 8.02734375 C17 10 17 10 18 13 C19.485 13.495 19.485 13.495 21 14 C21 14.66 21 15.32 21 16 C22.134375 16.268125 23.26875 16.53625 24.4375 16.8125 C25.613125 17.204375 26.78875 17.59625 28 18 C28.495 19.485 28.495 19.485 29 21 C29.515625 21.495 30.03125 21.99 30.5625 22.5 C32 24 32 24 32 27 C33.485 27.495 33.485 27.495 35 28 C35 28.99 35 29.98 35 31 C35.66 31 36.32 31 37 31 C37.33 32.98 37.66 34.96 38 37 C38.66 37 39.32 37 40 37 C40.33 38.98 40.66 40.96 41 43 C41.66 43 42.32 43 43 43 C43.50660156 44.64548828 43.50660156 44.64548828 44.0234375 46.32421875 C44.47385102 47.77867907 44.92437784 49.23310431 45.375 50.6875 C45.59671875 51.40873047 45.8184375 52.12996094 46.046875 52.87304688 C46.37558594 53.93168945 46.37558594 53.93168945 46.7109375 55.01171875 C47.00943604 55.97791138 47.00943604 55.97791138 47.31396484 56.96362305 C47.99905423 59.08760495 47.99905423 59.08760495 49.04101562 61.42407227 C50.03929795 64.10555822 50.39582831 66.35827308 50.6328125 69.203125 C50.71660156 70.18410156 50.80039063 71.16507812 50.88671875 72.17578125 C50.96535156 73.19027344 51.04398438 74.20476562 51.125 75.25 C51.21136719 76.24902344 51.29773438 77.24804688 51.38671875 78.27734375 C51.87828224 84.246329 52 89.9686534 52 96 C4.81 96 -42.38 96 -91 96 C-89.515 90.06 -89.515 90.06 -88 84 C-87.41482522 81.25473558 -86.84825948 78.50533447 -86.3125 75.75 C-86.06113281 74.46609375 -85.80976562 73.1821875 -85.55078125 71.859375 C-85.36902344 70.91578125 -85.18726562 69.9721875 -85 69 C-84.34 69 -83.68 69 -83 69 C-83 67.68 -83 66.36 -83 65 C-83.66 64.67 -84.32 64.34 -85 64 C-84.67 63.01 -84.34 62.02 -84 61 C-83.34 61 -82.68 61 -82 61 C-81.67 58.36 -81.34 55.72 -81 53 C-80.34 53 -79.68 53 -79 53 C-78.67 50.69 -78.34 48.38 -78 46 C-77.34 46 -76.68 46 -76 46 C-75.896875 45.278125 -75.79375 44.55625 -75.6875 43.8125 C-74.93652335 40.7403228 -73.67985763 38.65977458 -72 36 C-71.67 35.01 -71.34 34.02 -71 33 C-70.34 33 -69.68 33 -69 33 C-68.87625 32.195625 -68.7525 31.39125 -68.625 30.5625 C-68.41875 29.716875 -68.2125 28.87125 -68 28 C-67.34 27.67 -66.68 27.34 -66 27 C-65.67 26.01 -65.34 25.02 -65 24 C-64.34 24 -63.68 24 -63 24 C-62.67 23.01 -62.34 22.02 -62 21 C-61.34 21 -60.68 21 -60 21 C-59.67 19.68 -59.34 18.36 -59 17 C-58.34 17 -57.68 17 -57 17 C-56.505 15.515 -56.505 15.515 -56 14 C-55.34 14 -54.68 14 -54 14 C-53.505 12.515 -53.505 12.515 -53 11 C-52.34 11 -51.68 11 -51 11 C-50.67 10.01 -50.34 9.02 -50 8 C-49.34 8 -48.68 8 -48 8 C-47.67 7.01 -47.34 6.02 -47 5 C-44.85546875 4.0859375 -44.85546875 4.0859375 -42.1875 3.375 C-41.31480469 3.13523438 -40.44210938 2.89546875 -39.54296875 2.6484375 C-37.36347042 2.09268217 -35.18357091 1.53953034 -33 1 C-33 0.34 -33 -0.32 -33 -1 C-22.12663006 -3.86545278 -10.33168616 -4.97451556 0 0 Z " fill="#00FC01" transform="translate(179,162)"/>
<path d="M0 0 C9.46616872 -0.06946019 18.93224994 -0.12279088 28.39861774 -0.15543652 C32.79407555 -0.1711035 37.18935922 -0.19236044 41.5847168 -0.22631836 C45.82518924 -0.25887524 50.06549401 -0.27684523 54.30608177 -0.28463173 C55.92525053 -0.29018187 57.54440994 -0.30101979 59.16350746 -0.31719017 C61.42862523 -0.33891617 63.69304703 -0.34196903 65.95825195 -0.34057617 C67.24842728 -0.34723801 68.5386026 -0.35389984 69.86787415 -0.36076355 C73 0 73 0 74.87760925 1.33378601 C76 3 76 3 77 6 C77.99 6.495 77.99 6.495 79 7 C78.505 4.03 78.505 4.03 78 1 C107.37 1 136.74 1 167 1 C166.34 2.32 165.68 3.64 165 5 C164.34 5 163.68 5 163 5 C163 5.66 163 6.32 163 7 C160.69 7.66 158.38 8.32 156 9 C155.67 10.65 155.34 12.3 155 14 C154.01 14 153.02 14 152 14 C152 14.66 152 15.32 152 16 C150.35 16.33 148.7 16.66 147 17 C146.67 17.99 146.34 18.98 146 20 C145.01 20 144.02 20 143 20 C143 20.66 143 21.32 143 22 C140.03 22.495 140.03 22.495 137 23 C137 23.66 137 24.32 137 25 C136.17757812 25.31453125 135.35515625 25.6290625 134.5078125 25.953125 C133.39148438 26.38109375 132.27515625 26.8090625 131.125 27.25 C129.93003906 27.70632813 128.73507812 28.16265625 127.50390625 28.6328125 C124.66015342 29.74241505 121.86506868 30.91788361 119.0625 32.125 C113.80090993 34.26957549 108.37325117 35.31451888 102.80859375 36.38671875 C100.10851877 36.71148777 100.10851877 36.71148777 99 38 C91.11423109 39.25114993 83.19649777 39.15254326 75.23413086 39.13037109 C72.93922342 39.12500403 70.64451093 39.13034607 68.34960938 39.13671875 C66.86718708 39.13605799 65.3847649 39.13477686 63.90234375 39.1328125 C63.22815903 39.13483673 62.5539743 39.13686096 61.85935974 39.13894653 C57.15455696 39.11616757 52.64940615 38.65203704 48 38 C48 37.34 48 36.68 48 36 C47.05253906 36.01353516 47.05253906 36.01353516 46.0859375 36.02734375 C37.1368645 35.73076064 30.64322221 32.27350965 23 28 C23 27.34 23 26.68 23 26 C22.195625 25.87625 21.39125 25.7525 20.5625 25.625 C19.716875 25.41875 18.87125 25.2125 18 25 C17.67 24.34 17.34 23.68 17 23 C16.01 22.67 15.02 22.34 14 22 C14 21.34 14 20.68 14 20 C13.01 19.67 12.02 19.34 11 19 C10.30741771 17.00882592 9.64252365 15.0078864 9 13 C7.4587688 11.29078411 7.4587688 11.29078411 6 10 C6 9.34 6 8.68 6 8 C5.01 7.67 4.02 7.34 3 7 C0 2.66666667 0 2.66666667 0 0 Z " fill="#01F502" transform="translate(236,264)"/>
<path d="M0 0 C0.99 0 1.98 0 3 0 C3 20.46 3 40.92 3 62 C-17.79 62 -38.58 62 -60 62 C-59.505 59.03 -59.505 59.03 -59 56 C-58.34 56 -57.68 56 -57 56 C-56.87238281 54.48599609 -56.87238281 54.48599609 -56.7421875 52.94140625 C-56.14276201 48.76120218 -54.32107163 45.49135785 -52.125 41.9375 C-49.57865733 37.69825918 -47.15642891 33.45526351 -45 29 C-44.01 29 -43.02 29 -42 29 C-41.731875 28.278125 -41.46375 27.55625 -41.1875 26.8125 C-39.98738377 23.97011947 -38.80813489 21.50357139 -37 19 C-35.66923011 18.65657551 -34.33568021 18.32380126 -33 18 C-32.01 16.7625 -32.01 16.7625 -31 15.5 C-29 13 -29 13 -26.75 12.1875 C-26.1725 12.125625 -25.595 12.06375 -25 12 C-25 11.34 -25 10.68 -25 10 C-22.03 9.34 -19.06 8.68 -16 8 C-16 7.34 -16 6.68 -16 6 C-15.01 5.9175 -14.02 5.835 -13 5.75 C-8.49750009 5.12516328 -3.27840168 3.27840168 0 0 Z " fill="#0000F7" transform="translate(412,197)"/>
<path d="M0 0 C4.00610972 0.23011596 7.99515951 0.26781982 12 0 C12.33 -0.33 12.66 -0.66 13 -1 C15.72724279 -1.10099488 18.42862523 -1.13970529 21.15625 -1.1328125 C21.97371704 -1.13376923 22.79118408 -1.13472595 23.63342285 -1.13571167 C25.36515378 -1.13639345 27.09688724 -1.13453929 28.82861328 -1.13037109 C31.48866482 -1.12502279 34.1485475 -1.13031612 36.80859375 -1.13671875 C38.48697954 -1.13605797 40.16536523 -1.1347768 41.84375 -1.1328125 C42.64478149 -1.13483673 43.44581299 -1.13686096 44.27111816 -1.13894653 C49.88504921 -1.11495079 49.88504921 -1.11495079 51 0 C53.01311449 0.39569108 55.03597208 0.74252191 57.0625 1.0625 C58.16722656 1.23910156 59.27195312 1.41570312 60.41015625 1.59765625 C61.26480469 1.73042969 62.11945313 1.86320313 63 2 C63 2.66 63 3.32 63 4 C65.31 4.33 67.62 4.66 70 5 C70 5.66 70 6.32 70 7 C71.051875 7.103125 72.10375 7.20625 73.1875 7.3125 C76.90104094 7.98215492 78.99303465 8.78899607 82 11 C82.495 11.99 82.495 11.99 83 13 C83.99 13.33 84.98 13.66 86 14 C86 14.66 86 15.32 86 16 C87.485 16.495 87.485 16.495 89 17 C89 17.66 89 18.32 89 19 C90.65 19.66 92.3 20.32 94 21 C94 21.66 94 22.32 94 23 C94.61875 23.309375 95.2375 23.61875 95.875 23.9375 C97.25 24.625 98.625 25.3125 100 26 C100.33 26.99 100.66 27.98 101 29 C102.2065625 29.928125 102.2065625 29.928125 103.4375 30.875 C106.20924463 33.17351994 106.83349348 34.67994299 108 38 C108.66 38.33 109.32 38.66 110 39 C110.625 41.5625 110.625 41.5625 111 44 C111.66 44 112.32 44 113 44 C113.33 44.99 113.66 45.98 114 47 C114.66 47.33 115.32 47.66 116 48 C116.625 51.0625 116.625 51.0625 117 54 C117.66 54 118.32 54 119 54 C120 56 121 58 122 60 C122.53947266 61.00933594 122.53947266 61.00933594 123.08984375 62.0390625 C123.45207031 62.72742188 123.81429687 63.41578125 124.1875 64.125 C124.53167969 64.76695312 124.87585938 65.40890625 125.23046875 66.0703125 C126 68 126 68 126 72 C126.66 72 127.32 72 128 72 C132.40774487 82.37357631 132.40774487 82.37357631 133 88 C133.66 88 134.32 88 135 88 C135 89.32 135 90.64 135 92 C135.66 92 136.32 92 137 92 C137.33 90.68 137.66 89.36 138 88 C138.99 88 139.98 88 141 88 C142.10228696 92.40914783 142.07654536 96.48382401 142 101 C141.34 101 140.68 101 140 101 C139.67 99.02 139.34 97.04 139 95 C138.01 95.66 137.02 96.32 136 97 C132.8125 96.625 132.8125 96.625 130 96 C130.33 97.32 130.66 98.64 131 100 C131.66 100 132.32 100 133 100 C133 100.66 133 101.32 133 102 C131.68 101.67 130.36 101.34 129 101 C128.67 99.35 128.34 97.7 128 96 C127.34 96 126.68 96 126 96 C126.33 94.68 126.66 93.36 127 92 C127.66 92 128.32 92 129 92 C129 92.66 129 93.32 129 94 C129.99 94 130.98 94 132 94 C131.67 92.35 131.34 90.7 131 89 C130.34 89 129.68 89 129 89 C128.67 86.69 128.34 84.38 128 82 C127.34 82 126.68 82 126 82 C125.67 79.36 125.34 76.72 125 74 C124.34 74 123.68 74 123 74 C122.67 72.02 122.34 70.04 122 68 C121.34 68 120.68 68 120 68 C119.32591692 66.73308493 118.66099503 65.46129251 118 64.1875 C117.62875 63.47980469 117.2575 62.77210938 116.875 62.04296875 C116 60 116 60 116 57 C115.34 57 114.68 57 114 57 C112.74335022 54.09399739 112 52.20395416 112 49 C111.34 49 110.68 49 110 49 C109.67 48.01 109.34 47.02 109 46 C108.34 45.67 107.68 45.34 107 45 C105.9296875 43.44140625 105.9296875 43.44140625 104.875 41.5625 C104.34519531 40.63630859 104.34519531 40.63630859 103.8046875 39.69140625 C103 38 103 38 103 36 C102.01 35.67 101.02 35.34 100 35 C100 34.01 100 33.02 100 32 C99.34 32 98.68 32 98 32 C96.66104368 30.33784732 95.32869858 28.67036393 94 27 C92.63875 25.9171875 92.63875 25.9171875 91.25 24.8125 C90.5075 24.214375 89.765 23.61625 89 23 C89 22.34 89 21.68 89 21 C88.360625 20.87625 87.72125 20.7525 87.0625 20.625 C86.381875 20.41875 85.70125 20.2125 85 20 C84.505 19.01 84.505 19.01 84 18 C82.35636866 17.27840576 80.68949614 16.60648579 79 16 C79 15.34 79 14.68 79 14 C78.319375 13.896875 77.63875 13.79375 76.9375 13.6875 C73.37084011 12.85274981 70.33777806 11.50527246 67 10 C67 9.34 67 8.68 67 8 C64.36 7.67 61.72 7.34 59 7 C59 6.34 59 5.68 59 5 C57.85660156 4.93941406 56.71320313 4.87882813 55.53515625 4.81640625 C54.04425695 4.73201572 52.55337225 4.64736698 51.0625 4.5625 C50.30775391 4.52318359 49.55300781 4.48386719 48.77539062 4.44335938 C43.11328125 4.11328125 43.11328125 4.11328125 42 3 C38.79961091 2.74711401 35.58418658 2.81476318 32.375 2.8125 C31.48425781 2.80025391 30.59351563 2.78800781 29.67578125 2.77539062 C24.38086624 2.76369346 20.00843009 3.26420162 15 5 C15.66 5.45375 16.32 5.9075 17 6.375 C17.66 6.91125 18.32 7.4475 19 8 C19 8.66 19 9.32 19 10 C20.32 10.33 21.64 10.66 23 11 C23 11.66 23 12.32 23 13 C23.99 13.33 24.98 13.66 26 14 C26 14.66 26 15.32 26 16 C26.99 16.33 27.98 16.66 29 17 C29 17.66 29 18.32 29 19 C30.485 19.495 30.485 19.495 32 20 C32 20.66 32 21.32 32 22 C30.3125 21.875 30.3125 21.875 28 21 C26.88733064 19.58387536 25.77492506 18.16754241 24.6640625 16.75 C17.95330168 9.69267407 5.61995013 3.27282219 -4.22265625 2.8671875 C-11.53510094 2.88206531 -18.73845063 3.04318408 -26 4 C-26 4.66 -26 5.32 -26 6 C-27.4562545 6.67119549 -28.91507867 7.33681807 -30.375 8 C-31.59316406 8.556875 -31.59316406 8.556875 -32.8359375 9.125 C-35 10 -35 10 -37 10 C-36.67 9.01 -36.34 8.02 -36 7 C-35.01 7 -34.02 7 -33 7 C-33 6.34 -33 5.68 -33 5 C-31.02 4.67 -29.04 4.34 -27 4 C-27 3.34 -27 2.68 -27 2 C-26.04287109 1.80083984 -26.04287109 1.80083984 -25.06640625 1.59765625 C-24.24011719 1.42105469 -23.41382813 1.24445313 -22.5625 1.0625 C-21.73878906 0.88847656 -20.91507813 0.71445313 -20.06640625 0.53515625 C-18.02338796 0.19247006 -18.02338796 0.19247006 -17 -1 C-10.69148517 -2.06395736 -6.0448272 -2.09718495 0 0 Z " fill="#686868" transform="translate(172,157)"/>
<path d="M0 0 C4.00610972 0.23011596 7.99515951 0.26781982 12 0 C12.33 -0.33 12.66 -0.66 13 -1 C15.52094076 -1.08847743 18.01430893 -1.11527301 20.53515625 -1.09765625 C21.66503212 -1.09553383 21.66503212 -1.09553383 22.81773376 -1.09336853 C25.2326956 -1.08775376 27.64756601 -1.07519883 30.0625 -1.0625 C31.69596221 -1.0574869 33.32942586 -1.05292366 34.96289062 -1.04882812 C38.97529585 -1.03777954 42.98763241 -1.02050506 47 -1 C46.34 -0.01 45.68 0.98 45 2 C42.77270508 2.40063477 42.77270508 2.40063477 40.01953125 2.44140625 C38.5200293 2.48104492 38.5200293 2.48104492 36.99023438 2.52148438 C35.94158203 2.53501953 34.89292969 2.54855469 33.8125 2.5625 C27.20424161 2.67422384 21.27081758 2.79146595 15 5 C15.66 5.45375 16.32 5.9075 17 6.375 C17.66 6.91125 18.32 7.4475 19 8 C19 8.66 19 9.32 19 10 C20.32 10.33 21.64 10.66 23 11 C23 11.66 23 12.32 23 13 C23.99 13.33 24.98 13.66 26 14 C26 14.66 26 15.32 26 16 C26.99 16.33 27.98 16.66 29 17 C29 17.66 29 18.32 29 19 C30.485 19.495 30.485 19.495 32 20 C32 20.66 32 21.32 32 22 C30.3125 21.875 30.3125 21.875 28 21 C26.88733064 19.58387536 25.77492506 18.16754241 24.6640625 16.75 C17.95330168 9.69267407 5.61995013 3.27282219 -4.22265625 2.8671875 C-11.53510094 2.88206531 -18.73845063 3.04318408 -26 4 C-26 4.66 -26 5.32 -26 6 C-27.4562545 6.67119549 -28.91507867 7.33681807 -30.375 8 C-31.59316406 8.556875 -31.59316406 8.556875 -32.8359375 9.125 C-35 10 -35 10 -37 10 C-36.67 9.01 -36.34 8.02 -36 7 C-35.01 7 -34.02 7 -33 7 C-33 6.34 -33 5.68 -33 5 C-31.02 4.67 -29.04 4.34 -27 4 C-27 3.34 -27 2.68 -27 2 C-26.04287109 1.80083984 -26.04287109 1.80083984 -25.06640625 1.59765625 C-24.24011719 1.42105469 -23.41382813 1.24445313 -22.5625 1.0625 C-21.73878906 0.88847656 -20.91507813 0.71445313 -20.06640625 0.53515625 C-18.02338796 0.19247006 -18.02338796 0.19247006 -17 -1 C-10.69148517 -2.06395736 -6.0448272 -2.09718495 0 0 Z " fill="#4D704C" transform="translate(172,157)"/>
<path d="M0 0 C0 0.66 0 1.32 0 2 C-6.30529616 5.78317769 -11.44650525 8.35969023 -19 8 C-19 8.66 -19 9.32 -19 10 C-21.97 10.66 -24.94 11.32 -28 12 C-28 12.66 -28 13.32 -28 14 C-29.99330842 15.34331654 -31.99384866 16.67594012 -34 18 C-34.66 18.99 -35.32 19.98 -36 21 C-36.64839844 21.1340625 -37.29679687 21.268125 -37.96484375 21.40625 C-40.19435028 21.82226134 -40.19435028 21.82226134 -41.37890625 24.03125 C-41.76949219 24.8459375 -42.16007812 25.660625 -42.5625 26.5 C-43.75390625 28.96875 -43.75390625 28.96875 -45 31 C-46.485 31.495 -46.485 31.495 -48 32 C-49.52468269 34.43751758 -49.52468269 34.43751758 -50.875 37.4375 C-51.39191406 38.51902344 -51.90882813 39.60054687 -52.44140625 40.71484375 C-52.95574219 41.79894531 -53.47007812 42.88304687 -54 44 C-55.33235192 46.61851564 -56.67437553 49.23179715 -58.01953125 51.84375 C-58.95102594 53.89229609 -59.53572034 55.80340804 -60 58 C-60.66 58 -61.32 58 -62 58 C-62.495 60.475 -62.495 60.475 -63 63 C-63.66 63 -64.32 63 -65 63 C-64.505 60.03 -64.505 60.03 -64 57 C-63.34 57 -62.68 57 -62 57 C-61.979375 55.96875 -61.95875 54.9375 -61.9375 53.875 C-61.40172463 49.36961621 -59.57465455 45.57454298 -57.5625 41.5625 C-57.24982178 40.93520996 -56.93714355 40.30791992 -56.61499023 39.66162109 C-54.26979874 35.13489937 -54.26979874 35.13489937 -52 34 C-51.67 33.01 -51.34 32.02 -51 31 C-50.34 31 -49.68 31 -49 31 C-48.67 30.01 -48.34 29.02 -48 28 C-47.34 28 -46.68 28 -46 28 C-45.835 27.319375 -45.67 26.63875 -45.5 25.9375 C-43.31008067 21.64890797 -39.87999001 18.80490944 -36 16 C-35.34 16 -34.68 16 -34 16 C-33.67 15.01 -33.34 14.02 -33 13 C-32.34 13 -31.68 13 -31 13 C-31 12.34 -31 11.68 -31 11 C-28.35261084 9.5393715 -27.10551666 9 -24 9 C-24 8.34 -24 7.68 -24 7 C-22.02 6.67 -20.04 6.34 -18 6 C-18 5.34 -18 4.68 -18 4 C-14.535 3.505 -14.535 3.505 -11 3 C-11 2.34 -11 1.68 -11 1 C-9.5437328 0.63743142 -8.08488815 0.28520207 -6.625 -0.0625 C-5.81289063 -0.25972656 -5.00078125 -0.45695313 -4.1640625 -0.66015625 C-2 -1 -2 -1 0 0 Z " fill="#252A52" transform="translate(415,195)"/>
<path d="M0 0 C0.66 0 1.32 0 2 0 C2 1.32 2 2.64 2 4 C1.34 4 0.68 4 0 4 C-0.04898438 4.59425781 -0.09796875 5.18851563 -0.1484375 5.80078125 C-0.96618053 14.86644967 -1.89433854 22.78867708 -6 31 C41.19 31 88.38 31 137 31 C137 31.33 137 31.66 137 32 C89.48 32 41.96 32 -7 32 C-7 31.34 -7 30.68 -7 30 C-7.66 30 -8.32 30 -9 30 C-8.67 27.36 -8.34 24.72 -8 22 C-7.34 22 -6.68 22 -6 22 C-5.67 18.7 -5.34 15.4 -5 12 C-4.34 12 -3.68 12 -3 12 C-2.67 9.03 -2.34 6.06 -2 3 C-1.34 3 -0.68 3 0 3 C0 2.01 0 1.02 0 0 Z " fill="#029201" transform="translate(94,227)"/>
<path d="M0 0 C1.66560234 0.33861147 3.33195323 0.67364302 5 1 C5 1.66 5 2.32 5 3 C7.31 3.33 9.62 3.66 12 4 C12 4.66 12 5.32 12 6 C13.051875 6.103125 14.10375 6.20625 15.1875 6.3125 C18.90104094 6.98215492 20.99303465 7.78899607 24 10 C24.495 10.99 24.495 10.99 25 12 C25.99 12.33 26.98 12.66 28 13 C28 13.66 28 14.32 28 15 C28.66 15 29.32 15 30 15 C30 16.65 30 18.3 30 20 C29.01 19.67 28.02 19.34 27 19 C26.505 18.01 26.505 18.01 26 17 C24.35636866 16.27840576 22.68949614 15.60648579 21 15 C21 14.34 21 13.68 21 13 C19.9790625 12.8453125 19.9790625 12.8453125 18.9375 12.6875 C15.37084011 11.85274981 12.33777806 10.50527246 9 9 C9 8.34 9 7.68 9 7 C6.36 6.67 3.72 6.34 1 6 C1 5.34 1 4.68 1 4 C-0.71509766 3.92652344 -0.71509766 3.92652344 -2.46484375 3.8515625 C-3.95575473 3.77654811 -5.44663892 3.70099972 -6.9375 3.625 C-7.69224609 3.5940625 -8.44699219 3.563125 -9.22460938 3.53125 C-11.15507395 3.4273685 -13.07942081 3.22104386 -15 3 C-15.33 2.34 -15.66 1.68 -16 1 C-10.98378566 -3.49729561 -5.94159224 -1.40003036 0 0 Z " fill="#606060" transform="translate(230,158)"/>
<path d="M0 0 C2.27864583 0.06510417 4.55729167 0.13020833 6.8359375 0.1953125 C6.8359375 3.1653125 6.8359375 6.1353125 6.8359375 9.1953125 C7.8259375 9.1953125 8.8159375 9.1953125 9.8359375 9.1953125 C9.8359375 6.2253125 9.8359375 3.2553125 9.8359375 0.1953125 C10.8259375 0.1953125 11.8159375 0.1953125 12.8359375 0.1953125 C12.8359375 3.8253125 12.8359375 7.4553125 12.8359375 11.1953125 C10.37731349 11.24915098 7.919862 11.28890288 5.4609375 11.3203125 C4.41292969 11.34544922 4.41292969 11.34544922 3.34375 11.37109375 C1.50696264 11.38875517 -0.33008213 11.29834511 -2.1640625 11.1953125 C-4.1640625 9.1953125 -4.1640625 9.1953125 -4.4140625 5.6953125 C-4.14689263 1.9549343 -3.95834754 0.35725158 0 0 Z " fill="#028B03" transform="translate(173.1640625,228.8046875)"/>
<path d="M0 0 C3.63 0.33 7.26 0.66 11 1 C11 5.95 11 10.9 11 16 C9.02 16 7.04 16 5 16 C4 15 4 15 3.90234375 13.15234375 C3.93489583 11.1015625 3.96744792 9.05078125 4 7 C3.01 7 2.02 7 1 7 C1 9.97 1 12.94 1 16 C0.34 16 -0.32 16 -1 16 C-1.02692484 13.70839681 -1.04636124 11.41670454 -1.0625 9.125 C-1.07410156 7.84882813 -1.08570313 6.57265625 -1.09765625 5.2578125 C-1 2 -1 2 0 0 Z " fill="#01AC02" transform="translate(325,274)"/>
<path d="M0 0 C-0.33 0.66 -0.66 1.32 -1 2 C-3.31312122 2.60430292 -5.65236404 3.11048541 -8 3.5625 C-12.32673606 4.06104207 -12.32673606 4.06104207 -16 6 C-23.88576891 7.25114993 -31.80350223 7.15254326 -39.76586914 7.13037109 C-42.06077658 7.12500403 -44.35548907 7.13034607 -46.65039062 7.13671875 C-48.13281292 7.13605799 -49.6152351 7.13477686 -51.09765625 7.1328125 C-51.77184097 7.13483673 -52.4460257 7.13686096 -53.14064026 7.13894653 C-57.84544304 7.11616757 -62.35059385 6.65203704 -67 6 C-67 5.34 -67 4.68 -67 4 C-65.34738159 4.0314209 -65.34738159 4.0314209 -63.66137695 4.06347656 C-36.51397132 4.83887217 -36.51397132 4.83887217 -9.7734375 0.875 C-6.34728341 0.08052949 -3.49551226 -0.17642964 0 0 Z " fill="#1F4C1F" transform="translate(351,296)"/>
<path d="M0 0 C0.66 0 1.32 0 2 0 C1.4685789 4.51707932 -0.29015683 7.38687577 -3 11 C-3.99 11.495 -3.99 11.495 -5 12 C-5.72693904 13.97888961 -6.39816251 15.97954558 -7 18 C-7.66 18 -8.32 18 -9 18 C-9.33 20.31 -9.66 22.62 -10 25 C-11.32 25.33 -12.64 25.66 -14 26 C-14.33 27.32 -14.66 28.64 -15 30 C-15.66 30 -16.32 30 -17 30 C-17.33 32.31 -17.66 34.62 -18 37 C-18.66 37 -19.32 37 -20 37 C-20.185625 38.6396875 -20.185625 38.6396875 -20.375 40.3125 C-21 44 -21 44 -23 47 C-23.66 47 -24.32 47 -25 47 C-25 46.01 -25 45.02 -25 44 C-24.34 44 -23.68 44 -23 44 C-22.67 41.36 -22.34 38.72 -22 36 C-21.34 36 -20.68 36 -20 36 C-19.67 33.69 -19.34 31.38 -19 29 C-18.34 29 -17.68 29 -17 29 C-16.896875 28.278125 -16.79375 27.55625 -16.6875 26.8125 C-15.93652335 23.7403228 -14.67985763 21.65977458 -13 19 C-12.67 18.01 -12.34 17.02 -12 16 C-11.34 16 -10.68 16 -10 16 C-9.87625 15.195625 -9.7525 14.39125 -9.625 13.5625 C-9.41875 12.716875 -9.2125 11.87125 -9 11 C-8.34 10.67 -7.68 10.34 -7 10 C-6.67 9.01 -6.34 8.02 -6 7 C-5.34 7 -4.68 7 -4 7 C-3.67 6.01 -3.34 5.02 -3 4 C-2.34 4 -1.68 4 -1 4 C-0.67 2.68 -0.34 1.36 0 0 Z " fill="#116D10" transform="translate(120,179)"/>
<path d="M0 0 C11.81311026 -0.02314495 23.62621515 -0.04092611 35.43934345 -0.05181217 C40.9243328 -0.05703627 46.40930667 -0.06412538 51.89428711 -0.07543945 C57.18512818 -0.08628507 62.47595433 -0.09228041 67.76680565 -0.09487724 C69.78786644 -0.09672846 71.80892639 -0.10034329 73.82998085 -0.10573006 C76.65530808 -0.11296266 79.48057324 -0.11398999 82.3059082 -0.11352539 C83.56610527 -0.1189183 83.56610527 -0.1189183 84.85176086 -0.12442017 C88.15895238 -0.11851447 90.840008 -0.05333067 94 1 C94 1.66 94 2.32 94 3 C92.04402816 4.39712274 90.0340906 5.71927629 88 7 C86.948125 7.7425 85.89625 8.485 84.8125 9.25 C82 11 82 11 79 11 C79 10.34 79 9.68 79 9 C81.64738916 7.5393715 82.89448334 7 86 7 C86 6.34 86 5.68 86 5 C86.99 4.01 87.98 3.02 89 2 C59.96 1.67 30.92 1.34 1 1 C1.33 2.98 1.66 4.96 2 7 C1.01 6.67 0.02 6.34 -1 6 C-0.67 4.02 -0.34 2.04 0 0 Z " fill="#007E02" transform="translate(313,264)"/>
<path d="M0 0 C2.31 0 4.62 0 7 0 C7 0.66 7 1.32 7 2 C7.66 2 8.32 2 9 2 C9 2.99 9 3.98 9 5 C10.32 5 11.64 5 13 5 C13 7.64 13 10.28 13 13 C11.35 13.33 9.7 13.66 8 14 C6.68 12.35 5.36 10.7 4 9 C3.67 10.65 3.34 12.3 3 14 C2.01 13.67 1.02 13.34 0 13 C0 8.71 0 4.42 0 0 Z " fill="#0101A6" transform="translate(402,227)"/>
<path d="M0 0 C0.66 0 1.32 0 2 0 C2 3.63 2 7.26 2 11 C3.65 11 5.3 11 7 11 C7 10.34 7 9.68 7 9 C10 7 10 7 13 7 C13 6.34 13 5.68 13 5 C11.68 5 10.36 5 9 5 C9 4.34 9 3.68 9 3 C10.65 3 12.3 3 14 3 C14 3.66 14 4.32 14 5 C14.66 5 15.32 5 16 5 C16 7.97 16 10.94 16 14 C10.72 14 5.44 14 0 14 C0 9.38 0 4.76 0 0 Z " fill="#029002" transform="translate(280,276)"/>
<path d="M0 0 C0.66 0 1.32 0 2 0 C1.1875 2.9375 1.1875 2.9375 0 6 C-0.99 6.33 -1.98 6.66 -3 7 C-4.52468269 9.43751758 -4.52468269 9.43751758 -5.875 12.4375 C-6.39191406 13.51902344 -6.90882813 14.60054687 -7.44140625 15.71484375 C-7.95574219 16.79894531 -8.47007812 17.88304687 -9 19 C-10.33235192 21.61851564 -11.67437553 24.23179715 -13.01953125 26.84375 C-13.95102594 28.89229609 -14.53572034 30.80340804 -15 33 C-15.66 33 -16.32 33 -17 33 C-17.495 35.475 -17.495 35.475 -18 38 C-18.66 38 -19.32 38 -20 38 C-19.505 35.03 -19.505 35.03 -19 32 C-18.34 32 -17.68 32 -17 32 C-16.979375 30.96875 -16.95875 29.9375 -16.9375 28.875 C-16.40172463 24.36961621 -14.57465455 20.57454298 -12.5625 16.5625 C-12.09348267 15.62156494 -12.09348267 15.62156494 -11.61499023 14.66162109 C-9.26979874 10.13489937 -9.26979874 10.13489937 -7 9 C-6.67 8.01 -6.34 7.02 -6 6 C-5.34 6 -4.68 6 -4 6 C-3.67 5.01 -3.34 4.02 -3 3 C-2.34 3 -1.68 3 -1 3 C-0.67 2.01 -0.34 1.02 0 0 Z " fill="#3D4167" transform="translate(370,220)"/>
<path d="M0 0 C3.63 0 7.26 0 11 0 C11 3.63 11 7.26 11 11 C7.37 11 3.74 11 0 11 C0 9.02 0 7.04 0 5 C1.32 4.67 2.64 4.34 4 4 C4 3.34 4 2.68 4 2 C2.68 2 1.36 2 0 2 C0 1.34 0 0.68 0 0 Z " fill="#028E03" transform="translate(134,229)"/>
<path d="M0 0 C3.80999969 2.53999979 4.46118745 4.74994628 6 9 C6 10.32 6 11.64 6 13 C6.66 13 7.32 13 8 13 C8.70133599 14.57725347 9.385583 16.16211333 10.0625 17.75 C10.44535156 18.63171875 10.82820313 19.5134375 11.22265625 20.421875 C12.04600008 23.15256309 11.9773992 24.36901347 11 27 C10.01 26.67 9.02 26.34 8 26 C8 25.01 8 24.02 8 23 C7.34 23 6.68 23 6 23 C5.67 20.36 5.34 17.72 5 15 C4.34 15 3.68 15 3 15 C2.67 13.02 2.34 11.04 2 9 C1.34 9 0.68 9 0 9 C-0.33 7.35 -0.66 5.7 -1 4 C-0.34 4 0.32 4 1 4 C0.67 2.68 0.34 1.36 0 0 Z " fill="#595959" transform="translate(292,216)"/>
<path d="M0 0 C0.66 0 1.32 0 2 0 C2 4.95 2 9.9 2 15 C0.02 15 -1.96 15 -4 15 C-6 13 -6 13 -6.23046875 11.08984375 C-6.11111111 5.11111111 -6.11111111 5.11111111 -5 4 C-3.33382885 3.95936168 -1.66611905 3.957279 0 4 C0 2.68 0 1.36 0 0 Z " fill="#037A04" transform="translate(159,225)"/>
<path d="M0 0 C2.31 0 4.62 0 7 0 C7 0.66 7 1.32 7 2 C7.928125 2.2475 8.85625 2.495 9.8125 2.75 C14.97281056 4.21527337 19.97615859 6.12855094 25 8 C25 8.66 25 9.32 25 10 C15.23234298 10.13953796 8.2965863 6.63882124 0 2 C0 1.34 0 0.68 0 0 Z " fill="#05B905" transform="translate(259,290)"/>
<path d="M0 0 C-0.33 0.99 -0.66 1.98 -1 3 C-1.99 3 -2.98 3 -4 3 C-4 3.66 -4 4.32 -4 5 C-5.98 5.33 -7.96 5.66 -10 6 C-10 6.66 -10 7.32 -10 8 C-10.89203125 8.33773438 -11.7840625 8.67546875 -12.703125 9.0234375 C-13.87359375 9.46945312 -15.0440625 9.91546875 -16.25 10.375 C-17.41015625 10.81585938 -18.5703125 11.25671875 -19.765625 11.7109375 C-22.8755221 12.89085912 -22.8755221 12.89085912 -25.25 14.15625 C-27.56034153 15.27016467 -29.47140205 15.14047766 -32 15 C-32 14.34 -32 13.68 -32 13 C-29.36 12.67 -26.72 12.34 -24 12 C-24 11.34 -24 10.68 -24 10 C-22.02 9.67 -20.04 9.34 -18 9 C-18 8.34 -18 7.68 -18 7 C-17.01 7 -16.02 7 -15 7 C-15 6.34 -15 5.68 -15 5 C-12.03 4.34 -9.06 3.68 -6 3 C-6 2.34 -6 1.68 -6 1 C-3 0 -3 0 0 0 Z " fill="#18611B" transform="translate(383,281)"/>
<path d="M0 0 C3.95371299 0.56481614 6.71675094 1.71996593 10 4 C10.33 4.66 10.66 5.32 11 6 C11.99 6.33 12.98 6.66 14 7 C14 7.66 14 8.32 14 9 C14.66 9 15.32 9 16 9 C16 10.65 16 12.3 16 14 C15.01 13.67 14.02 13.34 13 13 C12.67 12.34 12.34 11.68 12 11 C10.35636866 10.27840576 8.68949614 9.60648579 7 9 C7 8.34 7 7.68 7 7 C6.2575 6.896875 5.515 6.79375 4.75 6.6875 C1.82985982 5.95746496 0.26812446 4.93210602 -2 3 C-1.34 2.01 -0.68 1.02 0 0 Z " fill="#5E5E5E" transform="translate(244,164)"/>
<path d="M0 0 C8.58 0 17.16 0 26 0 C25.01 1.485 25.01 1.485 24 3 C21.56982422 3.34057617 21.56982422 3.34057617 18.5546875 3.29296875 C17.47832031 3.28330078 16.40195313 3.27363281 15.29296875 3.26367188 C14.16503906 3.23853516 13.03710938 3.21339844 11.875 3.1875 C10.73933594 3.17396484 9.60367188 3.16042969 8.43359375 3.14648438 C5.62192613 3.11104319 2.81119583 3.06163517 0 3 C0 2.01 0 1.02 0 0 Z " fill="#272727" transform="translate(193,156)"/>
<path d="M0 0 C0 0.66 0 1.32 0 2 C-6.30529616 5.78317769 -11.44650525 8.35969023 -19 8 C-19 8.66 -19 9.32 -19 10 C-20.32 10.33 -21.64 10.66 -23 11 C-23 10.34 -23 9.68 -23 9 C-22.01 9 -21.02 9 -20 9 C-20 8.34 -20 7.68 -20 7 C-19.01 6.67 -18.02 6.34 -17 6 C-16.34 5.01 -15.68 4.02 -15 3 C-13.68 3 -12.36 3 -11 3 C-11 2.34 -11 1.68 -11 1 C-9.5437328 0.63743142 -8.08488815 0.28520207 -6.625 -0.0625 C-5.81289063 -0.25972656 -5.00078125 -0.45695313 -4.1640625 -0.66015625 C-2 -1 -2 -1 0 0 Z " fill="#0605B7" transform="translate(415,195)"/>
<path d="M0 0 C0.99 0.33 1.98 0.66 3 1 C3.33 1.99 3.66 2.98 4 4 C4.515625 4.495 5.03125 4.99 5.5625 5.5 C7 7 7 7 7 10 C7.99 10.33 8.98 10.66 10 11 C10 11.99 10 12.98 10 14 C10.66 14 11.32 14 12 14 C12.33 15.98 12.66 17.96 13 20 C13.66 20 14.32 20 15 20 C15.33 21.98 15.66 23.96 16 26 C16.66 26 17.32 26 18 26 C18 26.66 18 27.32 18 28 C14.61444353 26.59908008 12.81809026 25.20330189 11 22 C10.3125 18.25 10.3125 18.25 10 15 C9.34 15 8.68 15 8 15 C4 9.70588235 4 9.70588235 4 6 C3.01 5.67 2.02 5.34 1 5 C0.67 3.35 0.34 1.7 0 0 Z " fill="#296026" transform="translate(204,179)"/>
<path d="M0 0 C0.79148438 -0.01417969 1.58296875 -0.02835938 2.3984375 -0.04296875 C4.625 0.1875 4.625 0.1875 7.625 2.1875 C3.665 2.1875 -0.295 2.1875 -4.375 2.1875 C-4.375 2.8475 -4.375 3.5075 -4.375 4.1875 C-8.83 4.6825 -8.83 4.6825 -13.375 5.1875 C-13.375 5.8475 -13.375 6.5075 -13.375 7.1875 C-14.8312545 7.85869549 -16.29007867 8.52431807 -17.75 9.1875 C-18.96816406 9.744375 -18.96816406 9.744375 -20.2109375 10.3125 C-22.375 11.1875 -22.375 11.1875 -24.375 11.1875 C-24.045 10.1975 -23.715 9.2075 -23.375 8.1875 C-22.385 8.1875 -21.395 8.1875 -20.375 8.1875 C-20.375 7.5275 -20.375 6.8675 -20.375 6.1875 C-18.395 5.8575 -16.415 5.5275 -14.375 5.1875 C-14.375 4.5275 -14.375 3.8675 -14.375 3.1875 C-13.41787109 2.98833984 -13.41787109 2.98833984 -12.44140625 2.78515625 C-11.61511719 2.60855469 -10.78882813 2.43195313 -9.9375 2.25 C-8.70193359 1.98896484 -8.70193359 1.98896484 -7.44140625 1.72265625 C-0.81515557 0.00659511 -0.81515557 0.00659511 0 0 Z " fill="#3C523D" transform="translate(159.375,155.8125)"/>
<path d="M0 0 C0.66 0 1.32 0 2 0 C2.72109084 1.88857124 3.43816417 3.77875863 4.13671875 5.67578125 C4.68043519 7.13963321 5.24303273 8.59674233 5.83203125 10.04296875 C8.43300691 16.87213146 8.70085504 23.74831359 9 31 C8.34 30.67 7.68 30.34 7 30 C5.82830688 26.01624339 5.91910573 22.12560776 6 18 C5.34 18 4.68 18 4 18 C3.66179834 16.4176994 3.32964061 14.83410625 3 13.25 C2.814375 12.36828125 2.62875 11.4865625 2.4375 10.578125 C2 8 2 8 2 4 C1.34 4 0.68 4 0 4 C0 2.68 0 1.36 0 0 Z " fill="#124311" transform="translate(221,209)"/>
<path d="M0 0 C0.99 0.33 1.98 0.66 3 1 C2.34 1 1.68 1 1 1 C1 1.99 1 2.98 1 4 C2.98 4 4.96 4 7 4 C7 7.63 7 11.26 7 15 C6.01 14.67 5.02 14.34 4 14 C4 11.36 4 8.72 4 6 C3.01 6 2.02 6 1 6 C1 8.97 1 11.94 1 15 C0.34 15 -0.32 15 -1 15 C-1.02685412 12.68756208 -1.04632841 10.3750373 -1.0625 8.0625 C-1.07410156 6.77472656 -1.08570313 5.48695313 -1.09765625 4.16015625 C-1 1 -1 1 0 0 Z " fill="#026802" transform="translate(325,275)"/>
<path d="M0 0 C2 0.875 2 0.875 4 2 C4.66 2.33 5.32 2.66 6 3 C6 3.66 6 4.32 6 5 C7.32 5.33 8.64 5.66 10 6 C10 6.66 10 7.32 10 8 C10.99 8.33 11.98 8.66 13 9 C13 9.66 13 10.32 13 11 C13.99 11.33 14.98 11.66 16 12 C16 12.66 16 13.32 16 14 C16.99 14.33 17.98 14.66 19 15 C19 15.66 19 16.32 19 17 C17.3125 16.875 17.3125 16.875 15 16 C13.89305657 14.5911629 12.78847237 13.18037086 11.69921875 11.7578125 C8.71978462 8.67563927 4.99349279 6.6913246 1.328125 4.515625 C-1 3 -1 3 -2 1 C-1.34 0.67 -0.68 0.34 0 0 Z " fill="#3C6E3D" transform="translate(185,162)"/>
<path d="M0 0 C0.33 0.66 0.66 1.32 1 2 C2.64363134 2.72159424 4.31050386 3.39351421 6 4 C6 4.66 6 5.32 6 6 C6.928125 6.4640625 6.928125 6.4640625 7.875 6.9375 C9.25 7.625 10.625 8.3125 12 9 C12.625 11.5625 12.625 11.5625 13 14 C12.01 14.33 11.02 14.66 10 15 C9.443125 14.2575 8.88625 13.515 8.3125 12.75 C6.13038496 9.9275867 6.13038496 9.9275867 3.3125 8.0625 C0.42322693 5.48558078 0.25790313 3.78257924 0 0 Z " fill="#404040" transform="translate(260,174)"/>
<path d="M0 0 C1.2077558 3.62326739 0.54311128 4.64146369 -1 8 C-1.66 8 -2.32 8 -3 8 C-3.33 10.31 -3.66 12.62 -4 15 C-4.66 15 -5.32 15 -6 15 C-6.185625 16.6396875 -6.185625 16.6396875 -6.375 18.3125 C-7 22 -7 22 -9 25 C-9.66 25 -10.32 25 -11 25 C-11 24.01 -11 23.02 -11 22 C-10.34 22 -9.68 22 -9 22 C-8.67 19.36 -8.34 16.72 -8 14 C-7.34 14 -6.68 14 -6 14 C-5.67 11.69 -5.34 9.38 -5 7 C-4.34 7 -3.68 7 -3 7 C-2.87625 6.21625 -2.7525 5.4325 -2.625 4.625 C-2 2 -2 2 0 0 Z " fill="#154913" transform="translate(106,201)"/>
<path d="M0 0 C13.53 0 27.06 0 41 0 C41 0.33 41 0.66 41 1 C27.8 1 14.6 1 1 1 C1.33 2.98 1.66 4.96 2 7 C1.01 6.67 0.02 6.34 -1 6 C-0.67 4.02 -0.34 2.04 0 0 Z " fill="#017A01" transform="translate(313,264)"/>
<path d="M0 0 C0 0.66 0 1.32 0 2 C-0.66 2 -1.32 2 -2 2 C-2 2.66 -2 3.32 -2 4 C-4.1464753 3.88655624 -6.29220592 3.75893655 -8.4375 3.625 C-9.63246094 3.55539063 -10.82742187 3.48578125 -12.05859375 3.4140625 C-13.02925781 3.27742187 -13.99992188 3.14078125 -15 3 C-15.33 2.34 -15.66 1.68 -16 1 C-11.01547669 -3.46888297 -5.91576863 -1.44009079 0 0 Z " fill="#5C5C5C" transform="translate(230,158)"/>
<path d="M0 0 C0.66 0 1.32 0 2 0 C2 3.63 2 7.26 2 11 C3.65 11 5.3 11 7 11 C7 10.34 7 9.68 7 9 C7.66 9 8.32 9 9 9 C9 10.65 9 12.3 9 14 C6.03 14 3.06 14 0 14 C0 9.38 0 4.76 0 0 Z " fill="#027204" transform="translate(280,276)"/>
<path d="M0 0 C0.66 0 1.32 0 2 0 C2 4.62 2 9.24 2 14 C0 12 0 12 -0.125 8.875 C-0.08375 7.92625 -0.0425 6.9775 0 6 C-0.99 6 -1.98 6 -3 6 C-3 7.98 -3 9.96 -3 12 C-2.34 12.33 -1.68 12.66 -1 13 C-2.32 13 -3.64 13 -5 13 C-5 10.36 -5 7.72 -5 5 C-3.35 4.67 -1.7 4.34 0 4 C0 2.68 0 1.36 0 0 Z " fill="#016E03" transform="translate(313,275)"/>
<path d="M0 0 C2.33294775 -0.04241723 4.66702567 -0.04092937 7 0 C8 1 8 1 8.09765625 3.06640625 C8.08605469 3.89011719 8.07445312 4.71382813 8.0625 5.5625 C8.05347656 6.38878906 8.04445313 7.21507812 8.03515625 8.06640625 C8.02355469 8.70449219 8.01195312 9.34257812 8 10 C7.34 10 6.68 10 6 10 C6 7.36 6 4.72 6 2 C5.01 2.33 4.02 2.66 3 3 C2.67 5.64 2.34 8.28 2 11 C1.34 11 0.68 11 0 11 C0 7.37 0 3.74 0 0 Z " fill="#026403" transform="translate(297,279)"/>
<path d="M0 0 C3.14958831 3.42346555 3.56179109 6.44262737 4 11 C2.68 11 1.36 11 0 11 C0 10.01 0 9.02 0 8 C-0.66 8 -1.32 8 -2 8 C-2.33 5.69 -2.66 3.38 -3 1 C-2.01 0.67 -1.02 0.34 0 0 Z " fill="#676767" transform="translate(300,231)"/>
<path d="M0 0 C0.66 0 1.32 0 2 0 C1.1875 2.9375 1.1875 2.9375 0 6 C-0.99 6.33 -1.98 6.66 -3 7 C-4.69281093 9.77713308 -4.69281093 9.77713308 -6.1875 13.0625 C-6.71730469 14.16722656 -7.24710937 15.27195313 -7.79296875 16.41015625 C-8.39044922 17.69212891 -8.39044922 17.69212891 -9 19 C-9.33 17.68 -9.66 16.36 -10 15 C-9.34 15 -8.68 15 -8 15 C-8.33 13.35 -8.66 11.7 -9 10 C-8.34 9.67 -7.68 9.34 -7 9 C-6.67 8.01 -6.34 7.02 -6 6 C-5.34 6 -4.68 6 -4 6 C-3.67 5.01 -3.34 4.02 -3 3 C-2.34 3 -1.68 3 -1 3 C-0.67 2.01 -0.34 1.02 0 0 Z " fill="#161E4D" transform="translate(370,220)"/>
<path d="M0 0 C2.64 0 5.28 0 8 0 C8.5625 1.9375 8.5625 1.9375 9 4 C8 5 8 5 6.15234375 5.09765625 C4.1015625 5.06510417 2.05078125 5.03255208 0 5 C0 5.66 0 6.32 0 7 C-0.66 7 -1.32 7 -2 7 C-1.34 4.69 -0.68 2.38 0 0 Z " fill="#797A79" transform="translate(185,156)"/>
<path d="M0 0 C2.92869654 2.82410024 5.58427923 5.72152181 8 9 C8 9.66 8 10.32 8 11 C8.99 11.33 9.98 11.66 11 12 C11.6875 14.0625 11.6875 14.0625 12 16 C11.01 15.67 10.02 15.34 9 15 C9 14.34 9 13.68 9 13 C8.01 12.67 7.02 12.34 6 12 C6 11.34 6 10.68 6 10 C5.01 9.67 4.02 9.34 3 9 C3 8.01 3 7.02 3 6 C2.01 5.67 1.02 5.34 0 5 C-0.75 3 -0.75 3 -1 1 C-0.67 0.67 -0.34 0.34 0 0 Z " fill="#1F611C" transform="translate(235,265)"/>
<path d="M0 0 C4.75 1.875 4.75 1.875 7 3 C7.6328125 5.06640625 7.6328125 5.06640625 8.125 7.5625 C8.29257812 8.38878906 8.46015625 9.21507812 8.6328125 10.06640625 C8.75398438 10.70449219 8.87515625 11.34257812 9 12 C7.68 11.67 6.36 11.34 5 11 C4.67 9.35 4.34 7.7 4 6 C3.34 6 2.68 6 2 6 C1.34 4.02 0.68 2.04 0 0 Z " fill="#515151" transform="translate(284,208)"/>
<path d="M0 0 C4 1 4 1 5 2 C5.07179964 3.51928038 5.08392007 5.04167482 5.0625 6.5625 C5.05347656 7.38878906 5.04445312 8.21507812 5.03515625 9.06640625 C5.01775391 10.02353516 5.01775391 10.02353516 5 11 C3.68 11 2.36 11 1 11 C0.67 7.37 0.34 3.74 0 0 Z " fill="#028C03" transform="translate(146,229)"/>
<path d="M0 0 C0.66 0 1.32 0 2 0 C2.33 0.66 2.66 1.32 3 2 C5.31 2 7.62 2 10 2 C9.67 2.99 9.34 3.98 9 5 C6.03 4.505 6.03 4.505 3 4 C3.33 5.32 3.66 6.64 4 8 C4.66 8 5.32 8 6 8 C6 8.66 6 9.32 6 10 C4.68 9.67 3.36 9.34 2 9 C1.67 7.35 1.34 5.7 1 4 C0.34 4 -0.32 4 -1 4 C-0.67 2.68 -0.34 1.36 0 0 Z " fill="#505151" transform="translate(299,249)"/>
<path d="M0 0 C1.65 0 3.3 0 5 0 C5 2.64 5 5.28 5 8 C4.01 8.33 3.02 8.66 2 9 C0.4375 7.3125 0.4375 7.3125 -1 5 C-0.6875 2.25 -0.6875 2.25 0 0 Z " fill="#0200B4" transform="translate(410,232)"/>
<path d="M0 0 C0.33 0 0.66 0 1 0 C1 2.31 1 4.62 1 7 C1.66 6.67 2.32 6.34 3 6 C3 4.02 3 2.04 3 0 C3.99 0 4.98 0 6 0 C6.66 2.97 7.32 5.94 8 9 C2.25 9.125 2.25 9.125 0 8 C0 5.36 0 2.72 0 0 Z " fill="#019903" transform="translate(307,281)"/>
<path d="M0 0 C0.66 0 1.32 0 2 0 C2 3.96 2 7.92 2 12 C3.98 12 5.96 12 8 12 C8 12.66 8 13.32 8 14 C5.36 14 2.72 14 0 14 C0 9.38 0 4.76 0 0 Z " fill="#025A03" transform="translate(125,226)"/>
<path d="M0 0 C0.99 0 1.98 0 3 0 C2.8125 2.3125 2.8125 2.3125 2 5 C-0.84825221 7.15543411 -3.4948582 8.35089967 -7 9 C-6.67 8.01 -6.34 7.02 -6 6 C-5.34 6 -4.68 6 -4 6 C-3.67 5.01 -3.34 4.02 -3 3 C-2.34 3 -1.68 3 -1 3 C-0.67 2.01 -0.34 1.02 0 0 Z " fill="#05A404" transform="translate(132,167)"/>
<path d="M0 0 C0 0.99 0 1.98 0 3 C-10.89 2.67 -21.78 2.34 -33 2 C-33 1.67 -33 1.34 -33 1 C-28.62175807 0.85717344 -24.24350273 0.71476747 -19.86523438 0.57275391 C-18.37532174 0.52436747 -16.88541286 0.47586542 -15.39550781 0.42724609 C-13.2558691 0.3574443 -11.11621732 0.28805616 -8.9765625 0.21875 C-7.04417725 0.1559082 -7.04417725 0.1559082 -5.07275391 0.09179688 C-3.38231328 0.04129587 -1.69119481 0 0 0 Z " fill="#157817" transform="translate(326,300)"/>
<path d="M0 0 C0.66 0 1.32 0 2 0 C1.61020794 6.55925943 0.57886807 11.94526627 -2 18 C-2.66 18 -3.32 18 -4 18 C-3.67 15.36 -3.34 12.72 -3 10 C-2.34 10 -1.68 10 -1 10 C-0.67 6.7 -0.34 3.4 0 0 Z " fill="#2A4727" transform="translate(89,239)"/>
<path d="M0 0 C1 3 1 3 0 6 C-0.66 6 -1.32 6 -2 6 C-2.33 8.31 -2.66 10.62 -3 13 C-4.32 13.33 -5.64 13.66 -7 14 C-6.34 10.7 -5.68 7.4 -5 4 C-3.68 4 -2.36 4 -1 4 C-0.67 2.68 -0.34 1.36 0 0 Z " fill="#0B9B0C" transform="translate(113,191)"/>
<path d="M0 0 C1.65 0 3.3 0 5 0 C4.01 0.33 3.02 0.66 2 1 C2 2.65 2 4.3 2 6 C2.598125 6.0825 3.19625 6.165 3.8125 6.25 C6.62932273 7.21576779 7.47799132 8.48868567 9 11 C9 11.66 9 12.32 9 13 C5.66462511 11.88820837 4.36292656 10.52588702 2 8 C1.01 8.495 1.01 8.495 0 9 C0 6.03 0 3.06 0 0 Z " fill="#01015A" transform="translate(403,228)"/>
<path d="M0 0 C0.66 0 1.32 0 2 0 C2 0.99 2 1.98 2 3 C2.99 3 3.98 3 5 3 C5 3.66 5 4.32 5 5 C4.01 5 3.02 5 2 5 C2 7.31 2 9.62 2 12 C2.99 12 3.98 12 5 12 C5 12.66 5 13.32 5 14 C1.125 13.125 1.125 13.125 0 12 C-0.07244053 9.98035801 -0.08377188 7.95832876 -0.0625 5.9375 C-0.05347656 4.83277344 -0.04445312 3.72804687 -0.03515625 2.58984375 C-0.02355469 1.73519531 -0.01195312 0.88054687 0 0 Z " fill="#025703" transform="translate(188,226)"/>
<path d="M0 0 C0 0.66 0 1.32 0 2 C-1.95597184 3.39712274 -3.9659094 4.71927629 -6 6 C-7.5778125 7.11375 -7.5778125 7.11375 -9.1875 8.25 C-12 10 -12 10 -15 10 C-15 9.34 -15 8.68 -15 8 C-12.35261084 6.5393715 -11.10551666 6 -8 6 C-8 5.34 -8 4.68 -8 4 C-5.17157511 0.56548406 -4.64779334 0 0 0 Z " fill="#235523" transform="translate(407,265)"/>
<path d="M0 0 C1.2065625 0.0309375 1.2065625 0.0309375 2.4375 0.0625 C2.4375 2.3725 2.4375 4.6825 2.4375 7.0625 C-0.5325 6.5675 -0.5325 6.5675 -3.5625 6.0625 C-3.605221 4.39638095 -3.60313832 2.72867115 -3.5625 1.0625 C-2.5625 0.0625 -2.5625 0.0625 0 0 Z " fill="#02F203" transform="translate(174.5625,230.9375)"/>
<path d="M0 0 C0.99 0 1.98 0 3 0 C4.10228696 4.40914783 4.07654536 8.48382401 4 13 C3.34 13 2.68 13 2 13 C1.814375 11.576875 1.814375 11.576875 1.625 10.125 C1.28312823 6.91332809 1.28312823 6.91332809 -1 5 C-0.625 2.375 -0.625 2.375 0 0 Z " fill="#414041" transform="translate(310,245)"/>
<path d="M0 0 C0 0.66 0 1.32 0 2 C-3.3 2.33 -6.6 2.66 -10 3 C-10 3.66 -10 4.32 -10 5 C-11.65 5 -13.3 5 -15 5 C-15 4.34 -15 3.68 -15 3 C-13.68 3 -12.36 3 -11 3 C-11 2.34 -11 1.68 -11 1 C-9.5437328 0.63743142 -8.08488815 0.28520207 -6.625 -0.0625 C-5.81289063 -0.25972656 -5.00078125 -0.45695313 -4.1640625 -0.66015625 C-2 -1 -2 -1 0 0 Z " fill="#36355D" transform="translate(415,195)"/>
<path d="M0 0 C2.375 0.3125 2.375 0.3125 5 1 C5.66 1.99 6.32 2.98 7 4 C6.67 4.99 6.34 5.98 6 7 C3.0280615 5.87548273 0.66559313 4.77706209 -2 3 C-1.34 2.01 -0.68 1.02 0 0 Z " fill="#818181" transform="translate(244,164)"/>
<path d="M0 0 C1.32 0 2.64 0 4 0 C4 0.66 4 1.32 4 2 C3.01 2.33 2.02 2.66 1 3 C1 4.65 1 6.3 1 8 C1.99 8.33 2.98 8.66 4 9 C4 9.66 4 10.32 4 11 C-0.875 10.125 -0.875 10.125 -2 9 C-2.1875 5.5625 -2.1875 5.5625 -2 2 C-1.34 1.34 -0.68 0.68 0 0 Z " fill="#027303" transform="translate(171,229)"/>
<path d="M0 0 C0 0.66 0 1.32 0 2 C-1.55780332 2.67756882 -3.12150096 3.34159457 -4.6875 4 C-5.99267578 4.556875 -5.99267578 4.556875 -7.32421875 5.125 C-10.0572002 6.01870488 -12.14700934 6.16449676 -15 6 C-15 5.34 -15 4.68 -15 4 C-12.36 3.67 -9.72 3.34 -7 3 C-7 2.34 -7 1.68 -7 1 C-4 0 -4 0 0 0 Z " fill="#144414" transform="translate(366,290)"/>
<path d="M0 0 C0.66 0 1.32 0 2 0 C3.76054874 4.64144669 5.46527032 9.27775484 7 14 C6.01 14.33 5.02 14.66 4 15 C2.80712589 11.12315913 2 8.08378077 2 4 C1.34 4 0.68 4 0 4 C0 2.68 0 1.36 0 0 Z " fill="#254525" transform="translate(221,209)"/>
<path d="M0 0 C0.99 0.33 1.98 0.66 3 1 C3.33 1.99 3.66 2.98 4 4 C4.515625 4.495 5.03125 4.99 5.5625 5.5 C7 7 7 7 7 10 C7.99 10.33 8.98 10.66 10 11 C9.67 11.66 9.34 12.32 9 13 C6.5 11.1875 6.5 11.1875 4 9 C4 8.01 4 7.02 4 6 C3.01 5.67 2.02 5.34 1 5 C0.67 3.35 0.34 1.7 0 0 Z " fill="#3A633D" transform="translate(204,179)"/>
<path d="M0 0 C0.66 0 1.32 0 2 0 C1.67 2.64 1.34 5.28 1 8 C0.34 8 -0.32 8 -1 8 C-1.33 9.65 -1.66 11.3 -2 13 C-2.66 13 -3.32 13 -4 13 C-3.67 11.02 -3.34 9.04 -3 7 C-2.34 7 -1.68 7 -1 7 C-0.67 4.69 -0.34 2.38 0 0 Z " fill="#232850" transform="translate(354,245)"/>
<path d="M0 0 C0.66 0 1.32 0 2 0 C2.73030908 6.21324498 3.23180249 11.84098757 2 18 C1.67 18 1.34 18 1 18 C0.22959149 11.93303301 -0.09706112 6.11485027 0 0 Z " fill="#154D17" transform="translate(230,240)"/>
<path d="M0 0 C3.60654039 2.40436026 3.85452932 3.94679607 5 8 C3.35 8.33 1.7 8.66 0 9 C-0.33 7.35 -0.66 5.7 -1 4 C-0.34 4 0.32 4 1 4 C0.67 2.68 0.34 1.36 0 0 Z " fill="#818181" transform="translate(292,216)"/>
<path d="M0 0 C3.63 0 7.26 0 11 0 C10.01 1.485 10.01 1.485 9 3 C6.8359375 3.29296875 6.8359375 3.29296875 4.375 3.1875 C3.55773437 3.16042969 2.74046875 3.13335937 1.8984375 3.10546875 C1.27195313 3.07066406 0.64546875 3.03585938 0 3 C0 2.01 0 1.02 0 0 Z " fill="#252525" transform="translate(208,156)"/>
<path d="M0 0 C9.41002278 0.96355353 9.41002278 0.96355353 14 2 C14 2.66 14 3.32 14 4 C12.22825181 3.91276622 10.45752623 3.80458345 8.6875 3.6875 C7.70136719 3.62949219 6.71523438 3.57148438 5.69921875 3.51171875 C2.75615543 2.95377187 1.81817001 2.31459868 0 0 Z " fill="#1F4D21" transform="translate(270,296)"/>
<path d="M0 0 C2.97 0.495 2.97 0.495 6 1 C6 1.66 6 2.32 6 3 C7.65 3.33 9.3 3.66 11 4 C11 4.66 11 5.32 11 6 C6.64477147 5.49357808 3.55760365 4.61588503 0 2 C0 1.34 0 0.68 0 0 Z " fill="#214B1D" transform="translate(259,290)"/>
<path d="M0 0 C0.66 0 1.32 0 2 0 C2 1.32 2 2.64 2 4 C1.34 4 0.68 4 0 4 C-0.33 6.64 -0.66 9.28 -1 12 C-1.66 12 -2.32 12 -3 12 C-2.67 9.03 -2.34 6.06 -2 3 C-1.34 3 -0.68 3 0 3 C0 2.01 0 1.02 0 0 Z " fill="#1C4A18" transform="translate(94,227)"/>
<path d="M0 0 C0.66 0 1.32 0 2 0 C6 4.58823529 6 4.58823529 6 6 C4.02 6 2.04 6 0 6 C-0.38218767 4.34385343 -0.71395102 2.67542976 -1 1 C-0.67 0.67 -0.34 0.34 0 0 Z " fill="#6B6B6B" transform="translate(273,187)"/>
<path d="M0 0 C1.32 0 2.64 0 4 0 C3.67 1.65 3.34 3.3 3 5 C-3.15234375 4.4140625 -3.15234375 4.4140625 -5 4 C-5.33 3.34 -5.66 2.68 -6 2 C-4.02 2 -2.04 2 0 2 C0 1.34 0 0.68 0 0 Z " fill="#1D4A1E" transform="translate(180,158)"/>
<path d="M0 0 C0.99 0 1.98 0 3 0 C3 1.98 3 3.96 3 6 C1.68 6.33 0.36 6.66 -1 7 C-1.04254356 5.00045254 -1.04080783 2.99958364 -1 1 C-0.67 0.67 -0.34 0.34 0 0 Z " fill="#01DE02" transform="translate(156,231)"/>
<path d="M0 0 C1.65 0.99 3.3 1.98 5 3 C4.01 3.495 4.01 3.495 3 4 C3 5.32 3 6.64 3 8 C3.66 8 4.32 8 5 8 C5.33 9.98 5.66 11.96 6 14 C5.34 14 4.68 14 4 14 C3.32968281 12.0429132 2.66385317 10.08428887 2 8.125 C1.62875 7.03445312 1.2575 5.94390625 0.875 4.8203125 C0 2 0 2 0 0 Z " fill="#079509" transform="translate(218,205)"/>
<path d="M0 0 C0.99 0.33 1.98 0.66 3 1 C3 1.66 3 2.32 3 3 C3.99 3.33 4.98 3.66 6 4 C6 4.66 6 5.32 6 6 C6.99 6.33 7.98 6.66 9 7 C9 7.66 9 8.32 9 9 C6.66471585 8.82701599 5.30822418 8.29774631 3.62109375 6.66796875 C0 2.42788462 0 2.42788462 0 0 Z " fill="#17451D" transform="translate(195,170)"/>
<path d="M0 0 C0.556875 0.226875 1.11375 0.45375 1.6875 0.6875 C0.6975 1.1825 0.6975 1.1825 -0.3125 1.6875 C-0.3125 2.6775 -0.3125 3.6675 -0.3125 4.6875 C-2.2925 4.6875 -4.2725 4.6875 -6.3125 4.6875 C-6.6425 4.0275 -6.9725 3.3675 -7.3125 2.6875 C-2.88173077 -0.38942308 -2.88173077 -0.38942308 0 0 Z " fill="#8F8F8F" transform="translate(221.3125,156.3125)"/>
<path d="M0 0 C0.99 0 1.98 0 3 0 C3 2.64 3 5.28 3 8 C2.34 7.01 1.68 6.02 1 5 C0.34 5.99 -0.32 6.98 -1 8 C-1.04241723 5.66705225 -1.04092937 3.33297433 -1 1 C-0.67 0.67 -0.34 0.34 0 0 Z " fill="#01D503" transform="translate(300,281)"/>
<path d="M0 0 C2.31 0.66 4.62 1.32 7 2 C6.67 3.32 6.34 4.64 6 6 C5.01 5.67 4.02 5.34 3 5 C3 4.34 3 3.68 3 3 C2.01 2.67 1.02 2.34 0 2 C0 1.34 0 0.68 0 0 Z " fill="#1F721E" transform="translate(247,281)"/>
<path d="M0 0 C-0.33 0.99 -0.66 1.98 -1 3 C-1.99 3 -2.98 3 -4 3 C-4 3.66 -4 4.32 -4 5 C-5.65 5.33 -7.3 5.66 -9 6 C-9 5.34 -9 4.68 -9 4 C-7.68 3.67 -6.36 3.34 -5 3 C-5 2.34 -5 1.68 -5 1 C-2 0 -2 0 0 0 Z " fill="#126011" transform="translate(392,275)"/>
<path d="M0 0 C1 3 1 3 0.3125 5.625 C-1 8 -1 8 -3.125 8.8125 C-3.74375 8.874375 -4.3625 8.93625 -5 9 C-5 8.34 -5 7.68 -5 7 C-4.34 7 -3.68 7 -3 7 C-2.87625 6.21625 -2.7525 5.4325 -2.625 4.625 C-2 2 -2 2 0 0 Z " fill="#2E452E" transform="translate(106,201)"/>
<path d="M0 0 C0.99 0 1.98 0 3 0 C3 0.66 3 1.32 3 2 C3.66 2 4.32 2 5 2 C4.67 2.99 4.34 3.98 4 5 C2.68 5 1.36 5 0 5 C-0.5625 3.0625 -0.5625 3.0625 -1 1 C-0.67 0.67 -0.34 0.34 0 0 Z " fill="#474747" transform="translate(239,162)"/>
<path d="M0 0 C0.33 1.32 0.66 2.64 1 4 C-1.35438733 5.42944945 -2.48032433 6.08661261 -5.25 5.625 C-5.8275 5.41875 -6.405 5.2125 -7 5 C-6.34 5 -5.68 5 -5 5 C-5 4.01 -5 3.02 -5 2 C-3.35 2.33 -1.7 2.66 0 3 C0 2.01 0 1.02 0 0 Z " fill="#717171" transform="translate(309,246)"/>
<path d="M0 0 C0.33 0 0.66 0 1 0 C1.06058594 0.62648437 1.12117187 1.25296875 1.18359375 1.8984375 C1.26738281 2.71570313 1.35117188 3.53296875 1.4375 4.375 C1.51871094 5.18710938 1.59992188 5.99921875 1.68359375 6.8359375 C1.89090114 9.04272805 1.89090114 9.04272805 3 11 C1.68 11.33 0.36 11.66 -1 12 C-1.08159574 7.83861737 -0.98248524 4.0527516 0 0 Z " fill="#03E802" transform="translate(187,229)"/>
<path d="M0 0 C1.32 0 2.64 0 4 0 C2.90931332 3.77545388 2.0916909 6.47043472 -1 9 C-1 7.68 -1 6.36 -1 5 C-0.34 5 0.32 5 1 5 C0.67 3.35 0.34 1.7 0 0 Z " fill="#181969" transform="translate(361,230)"/>
<path d="M0 0 C0.33 0 0.66 0 1 0 C1 1.98 1 3.96 1 6 C-1.31 6.33 -3.62 6.66 -6 7 C-5.67 6.01 -5.34 5.02 -5 4 C-3.35 4 -1.7 4 0 4 C0 2.68 0 1.36 0 0 Z " fill="#027803" transform="translate(159,225)"/>
<path d="M0 0 C0.33 1.98 0.66 3.96 1 6 C-0.32 5.67 -1.64 5.34 -3 5 C-3.33 3.68 -3.66 2.36 -4 1 C-2 0 -2 0 0 0 Z " fill="#616161" transform="translate(292,214)"/>
<path d="M0 0 C0.99 0 1.98 0 3 0 C1.9024777 2.99324263 1.32317108 3.84610901 -1.625 5.25 C-2.40875 5.4975 -3.1925 5.745 -4 6 C-3.67 5.01 -3.34 4.02 -3 3 C-2.34 3 -1.68 3 -1 3 C-0.67 2.01 -0.34 1.02 0 0 Z " fill="#246F24" transform="translate(132,167)"/>
<path d="M0 0 C0.66 0.33 1.32 0.66 2 1 C1.319375 1.61875 1.319375 1.61875 0.625 2.25 C-1.05950374 4.06408095 -1.99265971 5.75285627 -3 8 C-3.99 7.34 -4.98 6.68 -6 6 C-4.02 4.02 -2.04 2.04 0 0 Z " fill="#66689A" transform="translate(376,213)"/>
<path d="M0 0 C1.32 0.66 2.64 1.32 4 2 C-1.75 5 -1.75 5 -4 5 C-3.67 4.01 -3.34 3.02 -3 2 C-2.01 2 -1.02 2 0 2 C0 1.34 0 0.68 0 0 Z " fill="#1C4B1E" transform="translate(139,162)"/>
<path d="M0 0 C0.99 0 1.98 0 3 0 C3 1.98 3 3.96 3 6 C2.01 6 1.02 6 0 6 C0 4.02 0 2.04 0 0 Z " fill="#00E704" transform="translate(310,281)"/>
<path d="M0 0 C0.66 0 1.32 0 2 0 C3.4783226 2.95664519 3.06032783 5.74229737 3 9 C2.34 8.67 1.68 8.34 1 8 C0.40644386 5.35139573 0.25790731 2.70802678 0 0 Z " fill="#0D670C" transform="translate(227,231)"/>
<path d="M0 0 C0.66 0 1.32 0 2 0 C2.33 1.98 2.66 3.96 3 6 C3.66 6 4.32 6 5 6 C5 6.66 5 7.32 5 8 C3.0625 7.375 3.0625 7.375 1 6 C0.25 2.875 0.25 2.875 0 0 Z " fill="#325433" transform="translate(217,199)"/>
<path d="M0 0 C1.98 0 3.96 0 6 0 C6 0.99 6 1.98 6 3 C4.02 3 2.04 3 0 3 C0 2.01 0 1.02 0 0 Z " fill="#121212" transform="translate(193,156)"/>
</svg>
