<?xml version="1.0" encoding="UTF-8"?>
<svg version="1.1" xmlns="http://www.w3.org/2000/svg" width="500" height="500">
<path d="M0 0 C0.91909149 0.00215515 1.83818298 0.0043103 2.78512573 0.00653076 C53.99498674 0.19867117 104.98634682 15.64635388 146.375 46.3125 C146.96249023 46.74449707 147.54998047 47.17649414 148.15527344 47.62158203 C154.76469208 52.50736797 161.0593493 57.65859024 167.109375 63.23046875 C169.18392036 65.1369044 171.29765931 66.9801561 173.4375 68.8125 C181.60852053 75.96624488 188.65955737 83.79036469 195.375 92.3125 C196.56416016 93.79363281 196.56416016 93.79363281 197.77734375 95.3046875 C229.19477543 135.11002748 250.31221825 186.85668042 250.578125 238.04296875 C250.58513931 238.947659 250.59215363 239.85234924 250.59938049 240.78445435 C250.6168005 243.68968735 250.62323321 246.59471668 250.625 249.5 C250.62567474 250.49148041 250.62634949 251.48296082 250.62704468 252.50448608 C250.61169249 266.6739795 250.21256564 280.38999536 247.375 294.3125 C247.0311632 296.16795267 246.6874171 298.02342214 246.34375 299.87890625 C240.04836093 332.33659542 226.94005613 365.47736837 207.375 392.3125 C206.94106934 392.91336426 206.50713867 393.51422852 206.06005859 394.13330078 C192.26711181 413.16898686 177.01823462 430.85935225 158.375 445.3125 C156.93833984 446.47458984 156.93833984 446.47458984 155.47265625 447.66015625 C111.45776238 482.6833568 56.73149676 500.86260006 0.75 500.625 C-0.16909149 500.62284485 -1.08818298 500.6206897 -2.03512573 500.61846924 C-40.21132518 500.47523139 -76.25718959 492.00461598 -110.625 475.3125 C-111.34606934 474.96493652 -112.06713867 474.61737305 -112.81005859 474.25927734 C-136.57733618 462.65917221 -157.55869473 446.50844612 -176.625 428.3125 C-177.49769531 427.48105469 -178.37039062 426.64960938 -179.26953125 425.79296875 C-185.21147529 419.99706327 -190.55582775 413.87883342 -195.625 407.3125 C-196.14078613 406.65137207 -196.65657227 405.99024414 -197.18798828 405.30908203 C-225.20150601 369.19000705 -242.81161776 326.63951227 -248.625 281.3125 C-248.71232895 280.64062653 -248.7996579 279.96875305 -248.88963318 279.27651978 C-249.56555995 273.69796354 -249.79894817 268.19848719 -249.828125 262.58203125 C-249.83864647 261.22499588 -249.83864647 261.22499588 -249.84938049 259.84054565 C-249.8668005 256.93531265 -249.87323321 254.03028332 -249.875 251.125 C-249.87567474 250.13351959 -249.87634949 249.14203918 -249.87704468 248.12051392 C-249.8616899 233.94862705 -249.45342533 220.2383518 -246.625 206.3125 C-246.29256516 204.49226116 -245.96055109 202.67194544 -245.62890625 200.8515625 C-238.34014691 162.75569062 -221.76012351 126.66892591 -197.625 96.3125 C-196.90957031 95.405 -196.19414062 94.4975 -195.45703125 93.5625 C-154.07561078 42.00051768 -93.89419932 8.42042819 -28.08779907 0.98945618 C-18.73423218 0.01775952 -9.39564812 -0.03987758 0 0 Z " fill="#FEFDFE" transform="translate(249.625,-0.3125)"/>
<path d="M0 0 C1.86751923 -0.01268921 1.86751923 -0.01268921 3.77276611 -0.02563477 C5.14978158 -0.01980204 6.52679576 -0.01365754 7.90380859 -0.00723267 C9.35602208 -0.01129838 10.80823248 -0.01664027 12.26043701 -0.02316284 C16.20256887 -0.03684236 20.14446526 -0.03153525 24.08660126 -0.02202559 C28.21138648 -0.01443226 32.33615149 -0.02147369 36.4609375 -0.02618408 C43.38789491 -0.03164259 50.31475637 -0.02444754 57.24169922 -0.01016235 C65.25110628 0.00616438 73.26028424 0.00087594 81.26968575 -0.01564157 C88.14537581 -0.02925374 95.0209969 -0.03117742 101.89669609 -0.02332556 C106.00369904 -0.01864755 110.11059429 -0.01802767 114.21759033 -0.02793503 C118.07869445 -0.03659854 121.93950308 -0.03059426 125.80057526 -0.01325226 C127.21794392 -0.00928409 128.63533744 -0.01042713 130.05269623 -0.01704025 C131.98661921 -0.02523191 133.9205965 -0.01314022 135.85449219 0 C136.93701263 0.00113108 138.01953308 0.00226215 139.13485718 0.00342751 C142.29788956 0.43106092 143.68312513 1.13750095 145.92724609 3.38095093 C146.43518066 6.18917847 146.43518066 6.18917847 146.44482422 9.64071655 C146.45743286 10.93215576 146.4700415 12.22359497 146.48303223 13.5541687 C146.47587264 14.96518498 146.4676687 16.3761963 146.45849609 17.78720093 C146.46119056 19.23304506 146.46507261 20.67888742 146.47009277 22.12472534 C146.4759901 25.1544826 146.46741811 28.18376806 146.44873047 31.21347046 C146.42593984 35.09774578 146.43906181 38.98091569 146.46302032 42.86515045 C146.47747254 45.85061986 146.47287518 48.83582703 146.46250916 51.82130432 C146.45984022 53.25344473 146.46311754 54.68560892 146.47242737 56.11772156 C146.48258134 58.11887153 146.46436126 60.12010494 146.44482422 62.1211853 C146.44164185 63.26019287 146.43845947 64.39920044 146.43518066 65.57272339 C145.92724609 68.38095093 145.92724609 68.38095093 144.27784061 70.03265572 C141.27549707 71.75479256 139.26500509 71.75832036 135.80979919 71.76190186 C134.55492706 71.77036133 133.30005493 71.7788208 132.00715637 71.78753662 C130.61910881 71.78170392 129.23106253 71.77555942 127.84301758 71.76913452 C126.37932951 71.77320016 124.91564451 71.778542 123.45196533 71.7850647 C119.47891046 71.79874389 115.50608924 71.79343756 111.53303027 71.78392744 C107.37708068 71.77633538 103.22115118 71.78337506 99.06520081 71.78808594 C92.08696905 71.79354421 85.10883253 71.78634938 78.13061523 71.77206421 C70.05870482 71.75573113 61.98702165 71.76103062 53.91511673 71.77754343 C46.98763819 71.79114865 40.06022813 71.79308288 33.13274056 71.78522742 C28.9939117 71.7805464 24.85518974 71.77993789 20.71636772 71.78983688 C16.82654023 71.79849054 12.93700639 71.79251426 9.04721069 71.77515411 C7.61813406 71.77118093 6.18903279 71.77233752 4.7599659 71.77894211 C2.81255591 71.78711386 0.86509203 71.77505932 -1.08229065 71.76190186 C-2.17310723 71.76077078 -3.26392382 71.7596397 -4.38779545 71.75847435 C-7.07275391 71.38095093 -7.07275391 71.38095093 -8.92292786 70.03265572 C-10.71215809 67.46245812 -10.4621119 65.21899639 -10.47680664 62.1211853 C-10.48949081 60.82974609 -10.50217499 59.53830688 -10.51524353 58.20773315 C-10.51319224 56.79672079 -10.51020433 55.38570952 -10.50634766 53.97470093 C-10.51090802 52.52885695 -10.51621316 51.08301515 -10.52223206 49.63717651 C-10.53116749 46.6075052 -10.52873494 43.57809743 -10.51879883 40.5484314 C-10.50730189 36.66419558 -10.5275282 32.78086789 -10.55671597 28.8967514 C-10.57505298 25.91130794 -10.57479072 22.92608317 -10.56907845 19.94059753 C-10.56892496 18.50844548 -10.5749922 17.07627887 -10.58736992 15.6441803 C-10.6022298 13.64307626 -10.58899883 11.64182297 -10.57446289 9.64071655 C-10.57429672 8.50170898 -10.57413055 7.36270142 -10.57395935 6.18917847 C-10.07275391 3.38095093 -10.07275391 3.38095093 -8.42097569 1.72924614 C-5.43145084 0.01272938 -3.44107741 0.00359543 0 0 Z " fill="#4B208C" transform="translate(182.07275390625,292.6190490722656)"/>
<path d="M0 0 C5.33845574 -0.12368107 10.67607624 -0.21437609 16.015625 -0.2746582 C17.83152799 -0.299789 19.64732996 -0.33389961 21.46289062 -0.37719727 C24.07447223 -0.43791511 26.68471594 -0.46622281 29.296875 -0.48828125 C30.10743347 -0.51408768 30.91799194 -0.5398941 31.75311279 -0.56648254 C35.50294626 -0.5683447 37.46968488 -0.51591613 40.21396255 2.1538496 C42.28845473 5.45966872 42.5055692 7.2331066 42.51898193 11.10603333 C42.53289474 12.33295898 42.54680756 13.55988464 42.56114197 14.82398987 C42.55642938 16.17538586 42.55133548 17.52678056 42.54589844 18.87817383 C42.55463659 20.30747603 42.56512323 21.73676846 42.57722473 23.16604614 C42.6050762 27.03967137 42.60848962 30.91297727 42.60750484 34.78668809 C42.6106347 38.8373315 42.6362544 42.88783125 42.65948486 46.93840027 C42.70004288 54.60578877 42.72038508 62.27309223 42.73345876 69.94057149 C42.74932949 78.67094827 42.78774541 87.40118034 42.82805204 96.13147318 C42.91044824 114.08760303 42.96454208 132.0437192 43 150 C42.31728027 150.12334717 41.63456055 150.24669434 40.93115234 150.3737793 C40.03348145 150.54304932 39.13581055 150.71231934 38.2109375 150.88671875 C37.32196777 151.05131592 36.43299805 151.21591309 35.51708984 151.38549805 C29.83258964 152.77326594 26.22219536 156.28178536 23 161 C20.99900812 165.07221113 20.75644291 168.3871367 20.77294922 172.90161133 C20.77265717 173.57533783 20.77236511 174.24906433 20.77206421 174.94320679 C20.77345062 177.15628214 20.78897889 179.36901516 20.8046875 181.58203125 C20.80842009 183.12188025 20.8112659 184.66173163 20.81326294 186.20158386 C20.82088006 190.24415708 20.84051192 194.28658539 20.8626709 198.32910156 C20.88317082 202.4583134 20.89227351 206.58754876 20.90234375 210.71679688 C20.92375974 218.81126423 20.95787234 226.90561406 21 235 C17.75030231 235.11638036 14.5011417 235.18730581 11.25 235.25 C10.32960937 235.28351563 9.40921875 235.31703125 8.4609375 235.3515625 C1.64871613 235.45029035 1.64871613 235.45029035 -1.59326172 233.19995117 C-3.60950856 230.04680985 -3.85478943 226.95611438 -4.125 223.3125 C-4.1964624 222.53068359 -4.2679248 221.74886719 -4.34155273 220.94335938 C-4.49544515 219.22029897 -4.64044674 217.49642773 -4.77783203 215.77197266 C-5.0078601 212.90193011 -5.26598824 210.0353175 -5.52734375 207.16796875 C-5.70724144 205.11211094 -5.88563989 203.05612135 -6.0625 201 C-6.14193848 200.09677002 -6.22137695 199.19354004 -6.30322266 198.26293945 C-8.24138156 174.12980082 -8.16051525 149.92228386 -8.13037109 125.73071289 C-8.12465311 121.10078115 -8.12808554 116.47090656 -8.13379478 111.84097672 C-8.15899388 88.04721288 -7.88720738 64.4805092 -5.38037109 40.796875 C-5.1242575 38.36795832 -4.87993753 35.93805068 -4.63671875 33.5078125 C-3.48532533 22.26842189 -1.86460132 11.14220622 0 0 Z " fill="#4C228D" transform="translate(137,129)"/>
<path d="M0 0 C0.83920486 0.00424484 1.67840973 0.00848969 2.54304504 0.01286316 C5.2230337 0.02965411 7.90226995 0.06730645 10.58203125 0.10546875 C12.39907768 0.12051508 14.2161359 0.13420357 16.03320312 0.14648438 C20.48726901 0.17955893 24.94077257 0.23134362 29.39453125 0.29296875 C31.75069827 14.82236539 33.73244727 29.32571613 35.08203125 43.98046875 C35.20102783 45.26566406 35.32002441 46.55085938 35.44262695 47.875 C36.85913485 63.79054362 37.56222188 79.57272501 37.59765625 95.546875 C37.60454398 97.48280865 37.61149328 99.41874207 37.61849976 101.35467529 C37.63757922 107.52160828 37.64215831 113.68851002 37.64453125 119.85546875 C37.64541496 120.89994045 37.64629868 121.94441216 37.64720917 123.02053452 C37.68488183 173.0758826 37.68488183 173.0758826 36.01953125 196.60546875 C35.95640747 197.4979129 35.89328369 198.39035706 35.82824707 199.30984497 C35.48700674 203.93894161 35.08561398 208.55776976 34.60900879 213.17486572 C34.38400393 215.39693277 34.18630028 217.62068177 33.98730469 219.84521484 C33.84088488 221.30062696 33.69284187 222.75587694 33.54296875 224.2109375 C33.41841309 225.48090576 33.29385742 226.75087402 33.16552734 228.05932617 C32.39453125 231.29296875 32.39453125 231.29296875 30.96337891 233.7199707 C26.87549424 236.22312989 22.83000916 235.71358839 18.14453125 235.54296875 C17.20867187 235.52492188 16.2728125 235.506875 15.30859375 235.48828125 C13.0028611 235.44122548 10.6992218 235.37550588 8.39453125 235.29296875 C8.4034137 234.44629639 8.41229614 233.59962402 8.42144775 232.72729492 C8.50180004 224.72426078 8.56260015 216.72136333 8.60177994 208.71801758 C8.62260035 204.60399073 8.65081536 200.49029892 8.69628906 196.37646484 C8.73994648 192.40179174 8.76371002 188.42743965 8.77404022 184.45254517 C8.78139612 182.94075471 8.79576025 181.42898061 8.81745148 179.91732788 C9.11547536 167.3794491 9.11547536 167.3794491 2.98223877 156.7890625 C-2.11164253 152.20988969 -6.94657983 151.07636745 -13.60546875 150.29296875 C-13.44372162 149.41844055 -13.28197449 148.54391235 -13.11532593 147.6428833 C-12.27359022 141.69448775 -12.45263857 135.68915883 -12.44775391 129.69433594 C-12.44307935 128.31887654 -12.43793474 126.94341868 -12.43235779 125.56796265 C-12.42112619 122.61768491 -12.41266876 119.66741698 -12.40623856 116.71712494 C-12.3955188 112.05301698 -12.37526721 107.3889805 -12.3531189 102.72491455 C-12.29131582 89.46638229 -12.23709596 76.20785645 -12.20410156 62.94921875 C-12.1857777 55.61779387 -12.15687985 48.28649091 -12.11609685 40.95515561 C-12.09500812 37.07794975 -12.07956677 33.20089753 -12.07728958 29.32363129 C-12.07514803 25.68242796 -12.05933 22.0415458 -12.03289986 18.40044022 C-12.02224578 16.4246731 -12.02646831 14.44884343 -12.03108215 12.47305298 C-12.01998917 11.30106354 -12.00889618 10.1290741 -11.99746704 8.92156982 C-11.99415689 7.90101879 -11.99084675 6.88046776 -11.98743629 5.82899094 C-11.60546875 3.29296875 -11.60546875 3.29296875 -10.32027245 1.46246719 C-7.26172822 -0.62346411 -3.57318791 -0.06782566 0 0 Z " fill="#4B208C" transform="translate(333.60546875,128.70703125)"/>
<path d="M0 0 C0.67987528 -0.00453111 1.35975055 -0.00906223 2.06022811 -0.01373065 C4.33162394 -0.02636072 6.60277955 -0.0247552 8.87420654 -0.02310181 C10.50564379 -0.02908802 12.13707821 -0.03589379 13.76850891 -0.04345703 C18.19637703 -0.06111694 22.62416783 -0.06581247 27.05206776 -0.0670886 C29.82060613 -0.06851102 32.58912489 -0.07278237 35.35765839 -0.07808304 C45.02252956 -0.09658483 54.68734559 -0.10475366 64.35223389 -0.10317993 C73.35053721 -0.1019792 82.34860042 -0.12306778 91.346843 -0.15466726 C99.08036525 -0.18085409 106.81380921 -0.19154618 114.54737544 -0.19026911 C119.16262297 -0.18976009 123.77765718 -0.19540977 128.39286041 -0.21662521 C132.73663404 -0.23604766 137.07999179 -0.23610485 141.42378044 -0.22159195 C143.01321714 -0.21950755 144.60268014 -0.22418268 146.19207191 -0.23631287 C164.00731483 -0.36341254 164.00731483 -0.36341254 170.95419693 5.92959023 C176.9119477 12.07189426 178.58176032 20.50861679 180.38104248 28.62289429 C180.67432182 29.91989006 180.67432182 29.91989006 180.973526 31.24308777 C181.3820975 33.05680683 181.78783765 34.87116584 182.19085693 36.68612671 C182.80779786 39.45930431 183.43657857 42.22961327 184.06658936 44.99984741 C184.46378266 46.76987077 184.860291 48.540048 185.25604248 50.31039429 C185.44349533 51.1344426 185.63094818 51.95849091 185.82408142 52.80751038 C185.99458511 53.58214127 186.16508881 54.35677216 186.34075928 55.15487671 C186.4915947 55.83023972 186.64243011 56.50560272 186.7978363 57.20143127 C187.11932373 59.26742554 187.11932373 59.26742554 187.11932373 64.26742554 C182.49932373 64.26742554 177.87932373 64.26742554 173.11932373 64.26742554 C171.72570063 59.54288801 170.53643327 54.83214016 169.49822998 50.01351929 C169.1997482 48.65081317 168.90090934 47.28818523 168.60174561 45.92562866 C168.13965963 43.81123525 167.68000155 41.69642237 167.22650146 39.58016968 C166.78267205 37.51462823 166.32872936 35.45151423 165.87322998 33.38851929 C165.6084082 32.16576294 165.34358643 30.94300659 165.07073975 29.68319702 C163.38056919 23.61515076 161.32824213 19.87359982 156.11932373 16.26742554 C153.36705452 14.89129093 151.15445001 15.13195028 148.07275391 15.12025452 C146.78289581 15.11309921 145.49303772 15.10594391 144.16409302 15.09857178 C142.7263186 15.09573136 141.28854392 15.09301965 139.85076904 15.09042358 C138.34298546 15.08416 136.83520343 15.0775133 135.3274231 15.07051086 C131.22396913 15.05309042 127.12052682 15.04254607 123.01704502 15.03430533 C120.45375173 15.02915695 117.89046206 15.02308111 115.32717133 15.0167942 C107.30851833 14.99773844 99.28987457 14.98350863 91.27120328 14.97518224 C82.01277246 14.96541008 72.75458074 14.93909286 63.49623418 14.89868134 C56.34201709 14.86852509 49.18786854 14.8537138 42.03358912 14.85040122 C37.75986682 14.84804999 33.48639983 14.83908048 29.21274567 14.81394005 C25.19077437 14.790663 21.16922654 14.78642443 17.14720535 14.79670143 C15.67260708 14.79719701 14.197988 14.79086992 12.72345352 14.77714539 C10.70698936 14.75942998 8.69034139 14.76891676 6.67382812 14.77967834 C4.98254728 14.77609581 4.98254728 14.77609581 3.25709915 14.77244091 C-1.38207838 15.50427199 -4.50080777 17.78088957 -7.66192627 21.18637085 C-9.09116532 23.62684233 -9.73569307 25.8106446 -10.38067627 28.56430054 C-10.62672607 29.59885376 -10.87277588 30.63340698 -11.12628174 31.6993103 C-11.37523193 32.79428833 -11.62418213 33.88926636 -11.88067627 35.01742554 C-12.27150391 36.68986328 -12.27150391 36.68986328 -12.67022705 38.39608765 C-14.65225151 46.98424055 -16.36353425 55.58600177 -17.88067627 64.26742554 C-22.83067627 64.26742554 -27.78067627 64.26742554 -32.88067627 64.26742554 C-32.29631299 58.36176535 -31.45712817 52.65602134 -30.17364502 46.86508179 C-30.0069783 46.10247543 -29.84031158 45.33986908 -29.66859436 44.55415344 C-29.31718022 42.95453739 -28.96328621 41.35546424 -28.60699463 39.75692749 C-28.07068299 37.34121655 -27.54857994 34.92271677 -27.02716064 32.50375366 C-22.13435295 10.17132786 -22.13435295 10.17132786 -15.94317627 5.26742554 C-15.29477783 4.73117554 -14.64637939 4.19492554 -13.97833252 3.64242554 C-9.35769517 0.61362787 -5.49021172 0.01514254 0 0 Z " fill="#4C218C" transform="translate(172.88067626953125,49.732574462890625)"/>
<path d="M0 0 C66 0 132 0 200 0 C200 4.62 200 9.24 200 14 C134 14 68 14 0 14 C0 9.38 0 4.76 0 0 Z " fill="#4B208C" transform="translate(150,436)"/>
<path d="M0 0 C66 0 132 0 200 0 C200 4.62 200 9.24 200 14 C134 14 68 14 0 14 C0 9.38 0 4.76 0 0 Z " fill="#4E238E" transform="translate(150,379)"/>
<path d="M0 0 C6.97851438 3.89116116 12.79255975 9.23096058 15.24609375 17.0390625 C16.79380347 25.66788663 17.11099089 34.23877337 12.1015625 41.7109375 C7.46531326 47.5766893 1.28595763 53.13866755 -6.3125 54.5 C-16.74022452 55.48907956 -24.00674559 53.86250918 -32.125 47.1875 C-39.43080507 38.21179662 -41.18317633 31.11730984 -40.3125 19.5 C-38.69825911 12.28453772 -35.19408111 6.95861794 -29.3125 2.5 C-19.88105314 -3.18660766 -10.26265397 -4.76941979 0 0 Z " fill="#4C218C" transform="translate(262.3125,159.5)"/>
<path d="M0 0 C3.5 0.875 3.5 0.875 5.4375 2.625 C6.73001293 5.36208621 6.84651063 6.86784215 6.5 9.875 C4.91357422 12.1640625 4.91357422 12.1640625 2.6796875 14.5 C1.85694336 15.36882812 1.03419922 16.23765625 0.18652344 17.1328125 C-1.14330566 18.49019531 -1.14330566 18.49019531 -2.5 19.875 C-3.37881836 20.77992188 -4.25763672 21.68484375 -5.16308594 22.6171875 C-7.88136207 25.38945612 -10.62378471 28.1354424 -13.375 30.875 C-14.32047897 31.82405294 -15.26579212 32.77327109 -16.2109375 33.72265625 C-17.55671875 35.06650391 -17.55671875 35.06650391 -18.9296875 36.4375 C-19.73647949 37.24316406 -20.54327148 38.04882812 -21.37451172 38.87890625 C-24.03185005 41.37447232 -25.7897175 42.76921324 -29.4375 43.3125 C-32.5 42.875 -32.5 42.875 -34.9375 40.8125 C-37.03217005 36.8745203 -36.63724621 35.168314 -35.5 30.875 C-33.67546188 28.25172212 -31.46959205 26.11996845 -29.1640625 23.91796875 C-28.52890717 23.28893143 -27.89375183 22.6598941 -27.23934937 22.01179504 C-25.21490612 20.01419966 -23.17030131 18.0387098 -21.125 16.0625 C-19.75649514 14.71552982 -18.38929248 13.36723526 -17.0234375 12.01757812 C-14.51875394 9.55494445 -12.0124212 7.09426497 -9.48681641 4.65307617 C-8.98131256 4.16344894 -8.47580872 3.67382172 -7.95498657 3.1693573 C-5.09000269 0.62066519 -3.90501997 -0.139465 0 0 Z " fill="#F8F6FA" transform="translate(236.5,307.125)"/>
<path d="M0 0 C0.97453125 0.05800781 1.9490625 0.11601562 2.953125 0.17578125 C3.8802832 0.23096924 4.80744141 0.28615723 5.76269531 0.34301758 C6.56803711 0.39095459 7.37337891 0.4388916 8.203125 0.48828125 C8.2714774 10.29495238 8.07237879 20.06308601 7.703125 29.86328125 C7.65471725 31.19660623 7.60653926 32.52993957 7.55859375 33.86328125 C7.44234656 37.07170361 7.3238279 40.28002397 7.203125 43.48828125 C5.62218783 43.62404875 4.03785548 43.7206287 2.453125 43.80078125 C1.57140625 43.85878906 0.6896875 43.91679687 -0.21875 43.9765625 C-2.796875 43.48828125 -2.796875 43.48828125 -5.09179688 41.43945312 C-7.15573645 37.86715909 -7.37591551 34.97262268 -7.328125 30.95703125 C-7.3319519 30.24349487 -7.33577881 29.5299585 -7.33972168 28.7947998 C-7.34243347 27.29205914 -7.33512354 25.78927069 -7.31835938 24.28662109 C-7.29693492 21.99469138 -7.31818139 19.70589546 -7.34375 17.4140625 C-7.34110659 15.94921188 -7.33598132 14.48436319 -7.328125 13.01953125 C-7.33622192 12.33918823 -7.34431885 11.65884521 -7.35266113 10.95788574 C-7.24696953 5.55815896 -5.75591895 1.00487412 0 0 Z " fill="#4D228D" transform="translate(106.796875,206.51171875)"/>
<path d="M0 0 C9.16949005 -0.48903947 9.16949005 -0.48903947 12.62573242 1.54614258 C15.74852917 4.77362125 15.72514191 7.38343994 15.6640625 11.65234375 C15.66884613 12.38949112 15.67362976 13.12663849 15.67855835 13.88612366 C15.68195379 15.44192646 15.67277577 16.99780095 15.65185547 18.5534668 C15.62511547 20.92724899 15.65158748 23.29628778 15.68359375 25.66992188 C15.68028883 27.18490622 15.67388088 28.69988762 15.6640625 30.21484375 C15.67418365 30.9201976 15.68430481 31.62555145 15.69473267 32.35227966 C15.60517355 36.14480792 15.06703784 37.9112322 12.75927734 40.96704102 C9.82329612 43.13019051 8.74450617 43.57794822 5.1875 43.3125 C4.39730469 43.26738281 3.60710937 43.22226563 2.79296875 43.17578125 C1.90544922 43.08876953 1.90544922 43.08876953 1 43 C0.85426591 39.12641892 0.71205216 35.25272422 0.57275391 31.37890625 C0.5020777 29.43222726 0.42881241 27.48564281 0.35546875 25.5390625 C0.05117953 17.01896429 -0.0594191 8.52499023 0 0 Z " fill="#4C228D" transform="translate(385,207)"/>
<path d="M0 0 C9.57 0 19.14 0 29 0 C29 4.95 29 9.9 29 15 C19.43 15 9.86 15 0 15 C0 10.05 0 5.1 0 0 Z " fill="#562E93" transform="translate(307,407)"/>
<path d="M0 0 C9.57 0 19.14 0 29 0 C29 4.95 29 9.9 29 15 C19.43 15 9.86 15 0 15 C0 10.05 0 5.1 0 0 Z " fill="#562E93" transform="translate(164,407)"/>
<path d="M0 0 C9.24 0 18.48 0 28 0 C28 4.95 28 9.9 28 15 C18.76 15 9.52 15 0 15 C0 10.05 0 5.1 0 0 Z " fill="#542B91" transform="translate(236,407)"/>
<path d="M0 0 C5.28 0 10.56 0 16 0 C16 9.24 16 18.48 16 28 C10.72 28 5.44 28 0 28 C0.165 26.9275 0.33 25.855 0.5 24.75 C1.52630024 16.48095237 1.26476678 8.22098406 0 0 Z " fill="#4B218C" transform="translate(291,172)"/>
<path d="M0 0 C5.28 0 10.56 0 16 0 C15.67 1.98 15.34 3.96 15 6 C14.90820346 8.67829908 14.85990617 11.32336012 14.875 14 C14.87113281 14.68578125 14.86726562 15.3715625 14.86328125 16.078125 C14.87122964 20.24308018 15.3063602 23.83816122 16 28 C10.72 28 5.44 28 0 28 C0 18.76 0 9.52 0 0 Z " fill="#4B208C" transform="translate(193,172)"/>
<path d="M0 0 C2.9425305 2.01331034 3.82340722 3.29362888 4.6875 6.75 C3.64337999 11.68584003 0.48735421 14.49771066 -3 18 C-3.48855469 18.56589844 -3.97710937 19.13179688 -4.48046875 19.71484375 C-6.90729432 21.76735175 -9.07080827 21.41770183 -12.125 21.27734375 C-14 21 -14 21 -16 19.9375 C-17.60661474 16.82468393 -17.35271868 14.45520335 -17 11 C-15.32445111 8.64170965 -13.93774301 6.99431761 -11.875 5.0625 C-11.1634375 4.32290039 -11.1634375 4.32290039 -10.4375 3.56835938 C-7.00919955 0.22808285 -4.73507196 -0.71159087 0 0 Z " fill="#FAF9FC" transform="translate(203,307)"/>
</svg>
