<?xml version="1.0" encoding="UTF-8"?>
<svg version="1.1" xmlns="http://www.w3.org/2000/svg" width="500" height="500">
<path d="M0 0 C1.11181641 -0.02513672 1.11181641 -0.02513672 2.24609375 -0.05078125 C7.19604316 0.72551773 10.60882878 4.10736291 14.0456543 7.53686523 C15.32674324 8.8084977 15.32674324 8.8084977 16.63371277 10.1058197 C17.54220474 11.01836014 18.45069672 11.93090057 19.38671875 12.87109375 C20.33856013 13.82158645 21.29069812 14.7717822 22.24311829 15.72169495 C24.23248462 17.70812105 26.21820971 19.69809822 28.20141602 21.69067383 C30.74001375 24.24068099 33.28750628 26.78158272 35.83778667 29.31989956 C37.80339657 31.27827438 39.76420819 33.24139771 41.72361183 35.2059803 C43.11575223 36.60009746 44.51191085 37.99019835 45.90812683 39.38023376 C46.75272964 40.2311409 47.59733246 41.08204803 48.4675293 41.95874023 C49.21189743 42.70469955 49.95626556 43.45065887 50.72319031 44.21922302 C54.13403278 48.1010261 54.96811208 51.05660617 54.8125 56.2890625 C54.27578215 60.63312261 52.33997125 63.46642834 49.4375 66.625 C45.50982136 68.9303766 42.09188226 69.48204907 37.5625 69.3125 C32.13915121 67.73068994 28.79550558 63.7627987 25.00390625 59.76171875 C23.02859853 57.78009005 21.03744991 55.96886284 18.90991211 54.15942383 C18.28225449 53.6246492 17.65459686 53.08987457 17.00791931 52.53889465 C16.53093094 52.13418442 16.05394257 51.72947418 15.5625 51.3125 C15.46890562 71.20158538 15.39844693 91.09062584 15.35525131 110.97988605 C15.33465844 120.21558829 15.30660072 129.45115339 15.26074219 138.68676758 C15.22077386 146.73999651 15.1950434 154.79312609 15.18614602 162.84645146 C15.18094813 167.10752524 15.16880015 171.36831487 15.13957977 175.62929726 C15.11225232 179.64713415 15.10408963 183.6645722 15.11006927 187.68249321 C15.10897673 189.1501597 15.10112642 190.61784074 15.0856781 192.08542633 C14.98646838 202.00418488 15.66309592 211.47994227 21.8125 219.6875 C31.84011313 229.25931254 42.19059333 229.60959779 55.515625 229.53955078 C57.02417493 229.53898593 58.53272541 229.53930467 60.04127502 229.54043579 C64.11716631 229.54100742 68.19293885 229.52928394 72.26880264 229.51528788 C76.5355595 229.5027488 80.80231936 229.50160752 85.0690918 229.49923706 C93.14015045 229.49303161 101.21115465 229.47663348 109.28218937 229.45653808 C118.47445352 229.43414994 127.66672033 229.42317833 136.85900497 229.41314721 C155.76020081 229.3922664 174.66134602 229.35710865 193.5625 229.3125 C192.67046875 228.44367188 191.7784375 227.57484375 190.859375 226.6796875 C189.67681465 225.51589795 188.494538 224.35182008 187.3125 223.1875 C186.72597656 222.61773437 186.13945312 222.04796875 185.53515625 221.4609375 C180.44937244 216.43229733 176.04466052 211.72823058 175.46484375 204.33203125 C175.70046237 199.45943816 177.62368481 196.18262139 181.125 192.9375 C184.31721889 190.80935407 186.07722203 190.13909384 189.875 190.0625 C190.63425781 190.03671875 191.39351562 190.0109375 192.17578125 189.984375 C197.17518794 190.67169114 200.58958322 194.08815836 204.0456543 197.53686523 C204.89971359 198.38462021 205.75377289 199.23237518 206.63371277 200.1058197 C207.99645073 201.47463036 207.99645073 201.47463036 209.38671875 202.87109375 C210.33856013 203.82158645 211.29069812 204.7717822 212.24311829 205.72169495 C214.23248462 207.70812105 216.21820971 209.69809822 218.20141602 211.69067383 C220.74001375 214.24068099 223.28750628 216.78158272 225.83778667 219.31989956 C227.80339657 221.27827438 229.76420819 223.24139771 231.72361183 225.2059803 C233.11575223 226.60009746 234.51191085 227.99019835 235.90812683 229.38023376 C236.75272964 230.2311409 237.59733246 231.08204803 238.4675293 231.95874023 C239.21189743 232.70469955 239.95626556 233.45065887 240.72319031 234.21922302 C243.98720778 237.93392787 245.14948262 241.09070093 244.99899292 246.12411499 C243.38479679 254.21698992 235.4267169 260.86453196 229.8046875 266.3984375 C228.97921417 267.22203766 228.15374084 268.04563782 227.30325317 268.89419556 C225.57043073 270.62033761 223.8340353 272.34289964 222.09423828 274.06201172 C219.43124259 276.69368381 216.77922192 279.33603287 214.12890625 281.98046875 C212.43812413 283.66208609 210.74673886 285.34309727 209.0546875 287.0234375 C208.26295135 287.81092377 207.47121521 288.59841003 206.65548706 289.40975952 C205.91436676 290.14127228 205.17324646 290.87278503 204.40966797 291.62646484 C203.4375386 292.5883522 203.4375386 292.5883522 202.44577026 293.56967163 C198.11418133 297.57823918 194.62429783 299.4941269 188.5625 299.3125 C183.33501811 297.71767502 180.0944884 295.46778047 176.5625 291.3125 C175.07960548 286.86381643 174.92183335 283.04005636 176.56640625 278.60546875 C179.33436652 274.03914682 182.92574479 270.63149673 186.75 266.9375 C187.49958984 266.20144531 188.24917969 265.46539062 189.02148438 264.70703125 C190.86184824 262.90183357 192.70885923 261.10404492 194.5625 259.3125 C193.7368133 259.31011165 192.91112659 259.30772329 192.06041908 259.30526257 C171.94489311 259.24605788 151.82948639 259.17047278 131.71409035 259.07678509 C121.98632518 259.03187054 112.25859626 258.99244588 102.53076172 258.96606445 C94.04934686 258.9430492 85.56804715 258.90961182 77.08672369 258.86379844 C72.59831193 258.83991375 68.11001387 258.82115386 63.62154007 258.81488609 C59.39109738 258.80881367 55.16094545 258.7887364 50.93061066 258.75822449 C49.38355152 258.7494787 47.83645433 258.74571446 46.28937149 258.74749184 C28.96249325 258.76110479 14.61381441 254.08502943 1.84375 241.8125 C-12.0427147 226.5944565 -14.56340187 210.03290987 -14.64282227 190.26757812 C-14.65241429 188.7491734 -14.66242512 187.23077126 -14.67282104 185.71237183 C-14.69973283 181.60968732 -14.72081623 177.50699147 -14.74082303 173.40426826 C-14.76276779 169.10945725 -14.79011474 164.81468065 -14.81687927 160.51989746 C-14.86669181 152.39575986 -14.91167283 144.27160304 -14.95490164 136.14742804 C-15.00437209 126.89467516 -15.05925369 117.64195682 -15.11458123 108.3892374 C-15.22822555 89.36369038 -15.33510246 70.33811071 -15.4375 51.3125 C-15.87618408 51.7564209 -16.31486816 52.2003418 -16.7668457 52.65771484 C-18.75859614 54.67027029 -20.75424474 56.6789162 -22.75 58.6875 C-23.44029297 59.38617188 -24.13058594 60.08484375 -24.84179688 60.8046875 C-25.50888672 61.475 -26.17597656 62.1453125 -26.86328125 62.8359375 C-27.47598877 63.45388184 -28.08869629 64.07182617 -28.7199707 64.70849609 C-33.13498476 68.83168619 -36.60266347 68.86569881 -42.4140625 68.74609375 C-46.34427852 68.18245812 -48.42198611 67.05455349 -51.16015625 64.22265625 C-54.09746369 59.83016898 -54.73781607 55.4147125 -54 50.25 C-49.95028856 42.6365425 -42.84335076 36.5592222 -36.80078125 30.5078125 C-35.99891891 29.70262177 -35.19705658 28.89743103 -34.37089539 28.06784058 C-32.68891995 26.38083594 -31.00561765 24.69515327 -29.32104492 23.01074219 C-26.74174326 20.4292362 -24.17056685 17.83981296 -21.59960938 15.25 C-19.95882272 13.60628217 -18.3175633 11.96303611 -16.67578125 10.3203125 C-15.90905594 9.54640167 -15.14233063 8.77249084 -14.35237122 7.97512817 C-13.63449936 7.26033295 -12.9166275 6.54553772 -12.17700195 5.80908203 C-11.54969681 5.18035187 -10.92239166 4.5516217 -10.27607727 3.90383911 C-7.02477702 1.08974947 -4.2792949 0.02224937 0 0 Z " fill="#4A1F8B" transform="translate(155.4375,100.6875)"/>
<path d="M0 0 C0.96697311 -0.0071553 1.93394623 -0.01431061 2.93022156 -0.02168274 C3.99507278 -0.02437164 5.05992401 -0.02706055 6.15704346 -0.02983093 C7.27601517 -0.03640213 8.39498688 -0.04297333 9.54786682 -0.04974365 C13.26817895 -0.06952451 16.98845047 -0.08115473 20.70880127 -0.09111023 C21.98030281 -0.09518576 23.25180435 -0.09926128 24.56183624 -0.10346031 C30.60601463 -0.12219292 36.65016844 -0.13674745 42.69436812 -0.14507228 C49.64409529 -0.15480407 56.59350048 -0.18100909 63.54311442 -0.22157317 C69.5808356 -0.25558801 75.61840302 -0.26723557 81.65622711 -0.27127647 C84.21247783 -0.27612681 86.76872551 -0.28769605 89.32491302 -0.30631447 C110.27398426 -0.44931914 128.29394178 0.98210714 144.47052002 16.01045227 C156.83248794 29.61607893 161.7186284 44.45087622 161.70245361 62.63618469 C161.70917084 63.73830795 161.71588806 64.84043121 161.72280884 65.97595215 C161.74168019 69.58906152 161.74570662 73.20198431 161.74786377 76.81513977 C161.75429593 79.33998693 161.7610246 81.86483334 161.76803589 84.38967896 C161.77997902 89.66749777 161.78380552 94.94526967 161.78253174 100.22309875 C161.78132773 106.31040258 161.80249739 112.39735338 161.83401906 118.48456782 C161.8633721 124.364292 161.87050677 130.24387671 161.86931229 136.12366676 C161.87167011 138.61591859 161.88050374 141.10817313 161.89597702 143.60037804 C161.91558558 147.08266485 161.90981975 150.56403926 161.89776611 154.04634094 C161.90900513 155.07144775 161.92024414 156.09655457 161.93182373 157.15272522 C161.86912182 164.28610304 160.59078743 168.61510306 155.72442627 174.02217102 C151.36260951 176.14413593 146.84747801 176.89721983 142.15411377 175.45185852 C138.38236358 173.68428556 135.41783879 171.92300636 133.41192627 168.14717102 C132.51483395 165.20069142 132.28539885 162.55458876 132.28062439 159.48149109 C132.27461212 158.08134262 132.27461212 158.08134262 132.26847839 156.65290833 C132.26927147 155.12712158 132.26927147 155.12712158 132.27008057 153.57051086 C132.26660614 152.49358978 132.26313171 151.4166687 132.259552 150.30711365 C132.25219919 147.96740103 132.24685128 145.62768146 132.24326134 143.28796005 C132.23609045 139.57989107 132.22041802 135.871954 132.20191956 132.16392517 C132.14948638 121.62042122 132.10149674 111.07702383 132.08599854 100.53340149 C132.07589644 94.0836383 132.04651306 87.63420627 132.00467873 81.18457413 C131.992394 78.73112624 131.98724282 76.27763152 131.98947716 73.8241539 C131.99183971 70.38247826 131.96958892 66.94174614 131.94195557 63.50019836 C131.94855698 62.49515259 131.95515839 61.49010681 131.96195984 60.4546051 C131.85800484 52.53059755 129.811567 46.20810149 125.78692627 39.39717102 C120.27497129 34.17531893 113.50686482 30.03309557 105.80834961 30.00914001 C104.86354233 30.00368668 103.91873505 29.99823334 102.94529724 29.99261475 C101.39302177 29.99105125 101.39302177 29.99105125 99.80938721 29.98945618 C98.7180397 29.98437546 97.6266922 29.97929474 96.50227356 29.97406006 C94.12870846 29.96334877 91.75513321 29.95473158 89.38155365 29.94794083 C85.62398481 29.93616357 81.86653152 29.91671313 78.10900879 29.89482117 C67.42404475 29.8331688 56.73910627 29.77893304 46.05401611 29.74580383 C39.5211831 29.72545999 32.98853131 29.68954643 26.45581818 29.64504623 C23.96639729 29.63088662 21.4769393 29.62216389 18.98748016 29.61899185 C15.50211159 29.61408123 12.017299 29.59091759 8.53204346 29.56367493 C7.50529007 29.56668106 6.47853668 29.56968719 5.42066956 29.57278442 C-0.35124044 29.50581588 -4.50338515 28.95379008 -9.58807373 26.14717102 C-13.04046539 22.51307454 -14.45802076 19.87037284 -14.83807373 14.83467102 C-14.47523967 9.48286865 -13.00701322 6.42767739 -9.02557373 2.83467102 C-5.68452441 0.52163687 -4.01124092 0.02034 0 0 Z " fill="#4A1F8C" transform="translate(238.58807373046875,100.85282897949219)"/>
<path d="M0 0 C1.34275169 0.98731742 2.67732273 1.98594743 4 3 C6.00611382 2.70568989 8.00519124 2.36311035 10 2 C20.1184418 1.19581801 27.71447458 1.29338861 36.6796875 6.6875 C38.990899 8.24617347 38.990899 8.24617347 42 8 C44.18360378 6.94286819 44.18360378 6.94286819 46.4375 5.5625 C54.34283849 0.86745125 64.03703809 0.6067846 72.92578125 2.68359375 C82.9181267 6.42878077 89.51507477 12.27313987 94 22 C96.26745132 28.28425917 96.32228547 34.20773588 96.3359375 40.84765625 C96.3459227 42.54274574 96.3459227 42.54274574 96.35610962 44.27207947 C96.36620365 46.65313089 96.37092765 49.03421041 96.37060547 51.4152832 C96.37498978 55.05402022 96.41137633 58.69155449 96.44921875 62.33007812 C96.45508534 64.64843337 96.45905579 66.96679435 96.4609375 69.28515625 C96.47530853 70.36966568 96.48967957 71.45417511 96.50448608 72.57154846 C96.46748406 78.69338435 96.12232279 82.35383283 92 87 C88.794598 89.35062814 85.90117562 89.39807915 82 89 C78.43748895 87.5915654 77.24618885 86.44329563 75.37866211 83.08056641 C73.36259642 78.09847238 73.59690175 73.07435591 73.62890625 67.7734375 C73.61153397 65.58593586 73.59394949 63.39843589 73.57617188 61.2109375 C73.56607863 57.7831728 73.56250966 54.35551337 73.56420898 50.92773438 C73.56064296 47.60515181 73.53332687 44.28337653 73.50390625 40.9609375 C73.51208878 39.93688812 73.5202713 38.91283875 73.52870178 37.85775757 C73.47072836 32.0717277 73.47072836 32.0717277 71.09350586 26.87744141 C67.74214252 23.87196221 65.45694706 23.76611407 60.96484375 23.85546875 C58.41323297 24.04316179 57.00150439 24.36914457 55 26 C51.27364707 31.5895294 51.60664399 36.87998643 51.6640625 43.34765625 C51.65155569 45.58398731 51.63851883 47.82031546 51.625 50.05664062 C51.62106279 53.56789373 51.62506794 57.07886166 51.63964844 60.59008789 C51.64820782 63.98887695 51.62656103 67.38647234 51.6015625 70.78515625 C51.61490631 71.83421646 51.62825012 72.88327667 51.64199829 73.96412659 C51.56774196 81.2801023 51.56774196 81.2801023 48.52490234 85.13842773 C47.69168457 85.75274658 46.8584668 86.36706543 46 87 C45.67 87.33 45.34 87.66 45 88 C40.38455511 88.58169863 36.99866833 88.6241677 33 86.125 C30.13662249 83.08266139 29.87223816 81.45629798 29.82641602 77.38598633 C29.81292618 76.42771439 29.79943634 75.46944244 29.78553772 74.48213196 C29.77509933 73.44259872 29.76466095 72.40306549 29.75390625 71.33203125 C29.72095518 69.13736599 29.68774376 66.94270463 29.65429688 64.74804688 C29.60696691 61.28315025 29.56256554 57.81826799 29.52319336 54.35327148 C29.4833421 51.01268572 29.43181452 47.67243221 29.37890625 44.33203125 C29.3704921 43.30261917 29.36207794 42.27320709 29.35340881 41.21260071 C29.26078794 35.79163151 28.95731904 31.08523807 27 26 C23.24041881 23.4567539 18.41691146 23.25046351 14 24 C11.1899654 25.79363911 9.49059532 27.01880935 8 30 C7.89679853 31.53543846 7.85411568 33.07515636 7.84228516 34.61401367 C7.82689194 36.05142159 7.82689194 36.05142159 7.81118774 37.51786804 C7.80388641 38.55740128 7.79658508 39.59693451 7.7890625 40.66796875 C7.76098421 42.86263754 7.73231969 45.0572989 7.703125 47.25195312 C7.66192556 50.71687537 7.62504451 54.18166024 7.59863281 57.64672852 C7.57095069 60.98743539 7.52506654 64.32750784 7.4765625 67.66796875 C7.47330963 68.69738083 7.47005676 69.72679291 7.46670532 70.78739929 C7.36765266 76.61124415 6.84244657 80.87250831 4 86 C1.29013532 88.27042717 -0.45183064 88.91835776 -3.9375 89.4375 C-7.86292527 88.87672496 -9.94797605 87.49711051 -13 85 C-15.4386764 81.42524038 -15.25951586 78.07400121 -15.2746582 73.83227539 C-15.27976913 73.11795853 -15.28488007 72.40364166 -15.29014587 71.66767883 C-15.30402404 69.31091895 -15.3030865 66.95445209 -15.30078125 64.59765625 C-15.30466914 62.95625195 -15.309004 61.31484865 -15.31376648 59.67344666 C-15.32122484 56.2344944 -15.32094019 52.79564481 -15.31567383 49.35668945 C-15.30987939 44.95383419 -15.3268112 40.55139964 -15.3500185 36.14861393 C-15.36476368 32.75908458 -15.36562649 29.36965637 -15.36250877 25.98010063 C-15.36302158 24.35702112 -15.36825178 22.73393589 -15.37832069 21.11088753 C-15.39068342 18.83935478 -15.38389512 16.5686392 -15.37231445 14.29711914 C-15.37294388 13.00568497 -15.3735733 11.71425079 -15.3742218 10.38368225 C-14.97412789 6.76606653 -14.15468952 4.89520234 -12 2 C-8.55795632 -0.67714508 -4.18039801 -0.60711174 0 0 Z " fill="#4A1F8B" transform="translate(208,197)"/>
<path d="M0 0 C4.46341087 3.02306065 7.39332313 7.3440319 9.08203125 12.41015625 C9.78689692 18.64318264 9.78390693 23.94561948 6.05859375 29.15234375 C1.3592931 34.52031959 -3.77567266 39.47114273 -8.91796875 44.41015625 C-7.86996094 44.44753906 -6.82195312 44.48492187 -5.7421875 44.5234375 C-4.3632457 44.5891014 -2.98434104 44.6555486 -1.60546875 44.72265625 C-0.91517578 44.74521484 -0.22488281 44.76777344 0.48632812 44.79101562 C3.42376064 44.94711107 5.58417819 45.06533586 8.0390625 46.765625 C9.69305128 49.37359982 9.4572841 51.40813348 9.08203125 54.41015625 C8.04882812 56.06835938 8.04882812 56.06835938 6.08203125 57.41015625 C3.38984984 57.73261809 0.93295869 57.87817348 -1.76171875 57.87890625 C-2.52722046 57.88651978 -3.29272217 57.8941333 -4.0814209 57.90197754 C-5.69861592 57.91277477 -7.31588066 57.91563314 -8.93310547 57.91113281 C-11.40970725 57.9101595 -13.88322003 57.9517976 -16.359375 57.99609375 C-17.93098312 58.00130014 -19.50260201 58.00398895 -21.07421875 58.00390625 C-21.81490601 58.02030151 -22.55559326 58.03669678 -23.31872559 58.05358887 C-26.8654773 58.00581351 -28.50877707 57.82841589 -31.03320312 55.24804688 C-32.22228427 51.43406253 -31.70879934 49.96682249 -29.91796875 46.41015625 C-28.08885794 44.28436064 -26.31537067 42.4082192 -24.2890625 40.49609375 C-23.46451317 39.69070663 -23.46451317 39.69070663 -22.62330627 38.86904907 C-20.87669664 37.1644702 -19.11753959 35.47373719 -17.35546875 33.78515625 C-15.59078139 32.08855431 -13.82937795 30.38907498 -12.07691956 28.67984009 C-10.98917885 27.6193186 -9.89430669 26.56605046 -8.79161072 25.52108765 C-5.13777356 22.07433489 -5.13777356 22.07433489 -3.91796875 17.41015625 C-5.27610882 14.1930268 -5.27610882 14.1930268 -6.91796875 11.41015625 C-10.93757861 11.14652883 -10.93757861 11.14652883 -14.91796875 11.41015625 C-16.85902904 13.02572822 -16.85902904 13.02572822 -17.91796875 15.41015625 C-18.45421875 16.29703125 -18.99046875 17.18390625 -19.54296875 18.09765625 C-20.22359375 19.24234375 -20.22359375 19.24234375 -20.91796875 20.41015625 C-21.91796875 21.41015625 -21.91796875 21.41015625 -24.79296875 21.59765625 C-27.91796875 21.41015625 -27.91796875 21.41015625 -30.91796875 19.41015625 C-31.90764006 14.95217739 -31.3136966 11.20161196 -29.29296875 7.16015625 C-21.11084433 -2.31388255 -11.655992 -5.69530957 0 0 Z " fill="#4A1F8B" transform="translate(341.91796875,170.58984375)"/>
</svg>
