<?xml version="1.0" encoding="UTF-8"?>
<svg version="1.1" xmlns="http://www.w3.org/2000/svg" width="500" height="500">
<path d="M0 0 C1.20709122 -0.00571014 2.41418243 -0.01142029 3.65785217 -0.01730347 C4.99754323 -0.0185488 6.33723441 -0.0196739 7.67692566 -0.02069092 C9.08633555 -0.02531972 10.49574419 -0.03034447 11.90515137 -0.03573608 C15.73583245 -0.04885634 19.56649601 -0.05530434 23.39719605 -0.05974674 C25.79080774 -0.06267816 28.18441464 -0.06678311 30.57802391 -0.07125092 C38.06807966 -0.08492506 45.55812448 -0.09459204 53.04819185 -0.09845281 C61.69247809 -0.10293307 70.33660617 -0.12047975 78.98084432 -0.1494534 C85.66374911 -0.171075 92.34660943 -0.18115735 99.02954882 -0.18249393 C103.02040002 -0.18354164 107.01110253 -0.18944223 111.00191689 -0.20731354 C114.75710377 -0.2238025 118.51203032 -0.22594584 122.26724052 -0.21717453 C123.64346642 -0.21640458 125.01970635 -0.22074135 126.39589691 -0.23063278 C128.27878115 -0.24336954 130.16177018 -0.23567749 132.04467773 -0.22705078 C133.09715604 -0.22851734 134.14963434 -0.2299839 135.23400593 -0.2314949 C138.76182469 0.20899184 141.17401035 1.32188535 144.21281433 3.14044189 C145.57526948 5.86535219 145.35505829 8.03678102 145.37394714 11.08721924 C145.38355469 12.33546478 145.39316223 13.58371033 145.40306091 14.86978149 C145.40790869 16.23864561 145.41218757 17.60751184 145.41593933 18.97637939 C145.42169098 20.37641401 145.42744871 21.77644859 145.43321228 23.17648315 C145.44372219 26.11369189 145.44956486 29.05087325 145.45304871 31.98809814 C145.45853252 35.7498909 145.4825577 39.51132152 145.51102066 43.27300072 C145.52965452 46.16579237 145.53485303 49.05849694 145.53638458 51.95134354 C145.53941014 53.33801884 145.54743548 54.72469265 145.56056976 56.11130905 C145.57764332 58.05242494 145.57390329 59.99369007 145.56925964 61.93487549 C145.57472809 63.59128555 145.57472809 63.59128555 145.58030701 65.28115845 C145.16632147 68.50218043 144.48635857 69.85402288 142.21281433 72.14044189 C139.00919193 73.20831603 136.71102194 73.27149756 133.3429718 73.28088379 C131.50492477 73.28944901 131.50492477 73.28944901 129.62974548 73.29818726 C128.26957713 73.29943259 126.90940866 73.30055769 125.54924011 73.30157471 C124.11850354 73.30620341 122.6877682 73.31122814 121.2570343 73.31661987 C117.36857096 73.32973998 113.48012488 73.33618794 109.59164286 73.34063053 C107.16252695 73.34356159 104.73341575 73.34766643 102.30430222 73.3521347 C94.70479165 73.36580795 87.10529186 73.37547573 79.50576985 73.3793366 C70.73186349 73.38381857 61.95811282 73.40137357 53.18425381 73.43033719 C46.40285171 73.45194688 39.62149343 73.46204048 32.84005725 73.46337771 C28.78943515 73.46442616 24.73895944 73.47034238 20.68837357 73.48819733 C16.87819891 73.504666 13.06828089 73.5068395 9.25808334 73.49805832 C7.86047428 73.49728732 6.46285148 73.50163898 5.0652771 73.51151657 C3.155768 73.52421985 1.24615596 73.51657343 -0.66337585 73.50793457 C-1.73152464 73.50940113 -2.79967342 73.51086769 -3.90019035 73.51237869 C-7.22007523 73.08467195 -9.10482686 72.11186083 -11.78718567 70.14044189 C-13.14853007 67.41775308 -12.93697651 65.24167077 -12.96418762 62.19366455 C-12.97702286 60.94541901 -12.98985809 59.69717346 -13.00308228 58.41110229 C-13.01124905 57.04224035 -13.0186929 55.67337394 -13.02546692 54.30450439 C-13.03158021 53.27216738 -13.03158021 53.27216738 -13.037817 52.21897507 C-13.05867437 48.57691498 -13.07297799 44.93489254 -13.08235168 41.29278564 C-13.09342118 37.5308849 -13.12782719 33.76957487 -13.16752338 30.00788307 C-13.19366525 27.11509093 -13.20204124 24.22244013 -13.20563316 21.32954025 C-13.21050479 19.94284445 -13.22213535 18.55615521 -13.24067116 17.16957474 C-13.26500795 15.22853071 -13.26168316 13.28719961 -13.25715637 11.3460083 C-13.26595573 9.68959824 -13.26595573 9.68959824 -13.27493286 7.99972534 C-12.67093665 4.45896409 -11.59157922 3.3165807 -8.78718567 1.14044189 C-5.60632457 0.08015486 -3.34235769 0.00945681 0 0 Z M3.46672058 25.18341064 C1.92142578 27.18351202 1.92142578 27.18351202 2.33781433 30.20294189 C3.35436548 33.90664599 3.35436548 33.90664599 6.21281433 36.14044189 C10.48617413 36.48231068 12.25046044 35.89790754 15.63468933 33.23419189 C21.16376821 28.13307163 21.16376821 28.13307163 23.21281433 21.14044189 C22.23551214 18.43406661 21.80768988 17.43787967 19.21281433 16.14044189 C12.0099617 14.76846997 7.79212224 20.12259394 3.46672058 25.18341064 Z M30.4103241 33.64776611 C29.31218522 34.73426278 28.20956363 35.81624574 27.10270691 36.89385986 C25.48502148 38.46899339 23.88089378 40.05686095 22.27922058 41.64825439 C21.7845076 42.12545929 21.28979462 42.60266418 20.78009033 43.09432983 C17.91822709 45.97461049 16.47729554 48.04730106 16.21281433 52.14044189 C16.63741365 54.40640853 16.63741365 54.40640853 18.21281433 56.14044189 C20.9872491 57.73196997 20.9872491 57.73196997 24.21281433 58.14044189 C28.88838247 55.95781165 32.21486192 52.41289901 35.79093933 48.79278564 C36.40298218 48.18028458 37.01502502 47.56778351 37.64561462 46.9367218 C38.93211158 45.64721498 40.21618858 44.35528982 41.49797058 43.06109619 C43.46487182 41.07586523 45.43973148 39.09882632 47.41593933 37.12286377 C48.66641355 35.86747658 49.91642979 34.611633 51.16593933 33.35528564 C51.75755859 32.76255356 52.34917786 32.16982147 52.95872498 31.55912781 C57.08379072 27.55343261 57.08379072 27.55343261 58.46281433 22.20294189 C58.44664396 19.21635022 58.44664396 19.21635022 57.08781433 17.26544189 C47.46916454 11.49425202 36.6829674 27.42153071 30.4103241 33.64776611 Z " fill="#4B208C" transform="translate(183.7871856689453,291.85955810546875)"/>
<path d="M0 0 C5.17772746 -0.12385084 10.35458788 -0.21445571 15.53344727 -0.2746582 C17.29401676 -0.29976061 19.05448247 -0.33385028 20.81469727 -0.37719727 C23.34938179 -0.43804115 25.88268575 -0.46625113 28.41796875 -0.48828125 C29.20149216 -0.51408768 29.98501556 -0.5398941 30.7922821 -0.56648254 C31.90286736 -0.56704903 31.90286736 -0.56704903 33.03588867 -0.56762695 C34.00518562 -0.58428154 34.00518562 -0.58428154 34.99406433 -0.60127258 C37.45915172 0.13762921 39.23390851 1.14794088 40.98247814 3.05107403 C43.4695253 7.81467764 42.69475178 13.72059101 42.65942383 18.9699707 C42.6678797 20.40912768 42.67852504 21.84827322 42.69119263 23.28739929 C42.71933247 27.18796496 42.71686872 31.08798059 42.70889878 34.98861718 C42.7057734 39.06729761 42.73080894 43.14580295 42.75285339 47.22441101 C42.79030533 54.94495679 42.80244205 62.66532643 42.8054778 70.38595408 C42.81016739 79.17679781 42.84308748 87.96746495 42.87837565 96.75823081 C42.95032295 114.83880353 42.98682896 132.91929374 43 151 C42.38801758 151.12407227 41.77603516 151.24814453 41.14550781 151.37597656 C40.33952148 151.54581055 39.53353516 151.71564453 38.703125 151.890625 C37.90551758 152.05594727 37.10791016 152.22126953 36.28613281 152.39160156 C30.22743391 154.00397637 26.59553632 158.17170837 23 163 C21.83964495 166.48106514 21.87997296 169.1847233 21.88647461 172.8581543 C21.88632858 173.55109589 21.88618256 174.24403748 21.8860321 174.95797729 C21.88672837 177.24675637 21.8945074 179.5354539 21.90234375 181.82421875 C21.90420894 183.41176814 21.90563237 184.99931811 21.90663147 186.58686829 C21.91044866 190.7642272 21.92027214 194.94155131 21.93133545 199.11889648 C21.94156672 203.38199391 21.94613277 207.64509696 21.95117188 211.90820312 C21.96189511 220.27215138 21.97896197 228.63607136 22 237 C18.77113991 237.11667875 15.54282555 237.18740546 12.3125 237.25 C11.40048828 237.28351563 10.48847656 237.31703125 9.54882812 237.3515625 C5.32854992 237.41294836 2.6902821 237.37685701 -1.06860352 235.32470703 C-3.34001017 232.59074999 -3.80440205 231.06834814 -4.21484375 227.5546875 C-4.3526123 226.39807617 -4.49038086 225.24146484 -4.63232422 224.04980469 C-4.75975901 222.70032138 -4.88197983 221.35033924 -5 220 C-5.06697083 219.24948364 -5.13394165 218.49896729 -5.20294189 217.72570801 C-5.73722026 211.53071658 -6.15974764 205.32973642 -6.5625 199.125 C-6.62692291 198.14870636 -6.69134583 197.17241272 -6.75772095 196.16653442 C-16.40151652 49.20454956 -16.40151652 49.20454956 0 0 Z " fill="#4B208B" transform="translate(137,128)"/>
<path d="M0 0 C0.74039017 0.00037766 1.48078033 0.00075531 2.24360657 0.00114441 C3.02712997 0.02695084 3.81065338 0.05275726 4.61791992 0.0793457 C5.43209885 0.08642044 6.24627777 0.09349518 7.08512878 0.1007843 C9.6738351 0.12867097 12.2603414 0.19139379 14.84838867 0.25512695 C16.60812295 0.28021745 18.3678913 0.30302931 20.12768555 0.32348633 C24.43126164 0.37847824 28.73320277 0.46470704 33.03588867 0.56762695 C34.96918163 9.13504553 36.0297497 17.79086637 37.03588867 26.50512695 C37.12270905 27.24928864 37.20952942 27.99345032 37.29898071 28.76016235 C38.45788431 38.74479825 39.47828662 48.72977879 40.22338867 58.75512695 C40.29493164 59.71733154 40.36647461 60.67953613 40.44018555 61.67089844 C41.73424523 80.58081667 42.24159208 99.49195608 42.22338867 118.44262695 C42.22311676 119.52535889 42.22284485 120.60809082 42.2225647 121.72363281 C42.18726671 152.79264035 41.1148905 183.85141098 38.53588867 214.81762695 C38.47621918 215.55118408 38.41654968 216.28474121 38.35507202 217.04052734 C37.05072248 232.72585103 37.05072248 232.72585103 33.25866699 236.19219971 C30.66814509 237.79518205 29.28832392 237.91863532 26.27026367 237.8605957 C25.38081055 237.85092773 24.49135742 237.84125977 23.57495117 237.83129883 C22.65456055 237.80616211 21.73416992 237.78102539 20.78588867 237.75512695 C19.8500293 237.7415918 18.91416992 237.72805664 17.94995117 237.71411133 C15.6446754 237.67882649 13.34057807 237.62952977 11.03588867 237.56762695 C11.04477112 236.69367783 11.05365356 235.8197287 11.06280518 234.91929626 C11.14309685 226.66577424 11.20392702 218.41238421 11.24313736 210.15856075 C11.26397387 205.91559568 11.29221884 201.67295448 11.33764648 197.43017578 C11.38124575 193.33231504 11.40505537 189.234765 11.41539764 185.13669014 C11.42276387 183.57662633 11.43714847 182.0165787 11.4588089 180.45664787 C11.48803181 178.26402493 11.49183706 176.0726705 11.48999023 173.87988281 C11.49887268 172.63411972 11.50775513 171.38835663 11.51690674 170.10484314 C10.79703153 164.81116619 8.3936235 160.1223055 4.09838867 156.75512695 C-0.54636248 153.43744756 -4.38681879 152.45631642 -9.96411133 151.56762695 C-9.95030717 132.61780715 -9.90808913 113.66825397 -9.83202076 94.71857929 C-9.79736387 85.91994261 -9.77201433 77.12146272 -9.76855469 68.32275391 C-9.76551575 60.65400056 -9.74503498 52.98552638 -9.70358676 45.31688088 C-9.68224839 41.25610112 -9.66966027 37.19571832 -9.67795753 33.13488197 C-9.68549265 29.31219597 -9.66969821 25.49031463 -9.63605118 21.66777611 C-9.6278112 20.26536302 -9.62807603 18.86287001 -9.63751411 17.46046448 C-9.70980548 5.53777516 -9.70980548 5.53777516 -6.6706543 2.22998047 C-4.12247917 0.66489618 -2.92870508 -0.05032139 0 0 Z " fill="#4B208B" transform="translate(329.964111328125,127.432373046875)"/>
<path d="M0 0 C0.69112265 -0.00367669 1.3822453 -0.00735338 2.09431106 -0.01114148 C4.41564947 -0.02217528 6.73694312 -0.02602165 9.05830383 -0.02983093 C10.72062319 -0.03609587 12.38294115 -0.04274269 14.04525757 -0.04974365 C19.50963872 -0.07078465 24.97402015 -0.08114674 30.43843079 -0.09111023 C32.32004626 -0.09515791 34.20166158 -0.09927483 36.08327675 -0.10346031 C44.92419213 -0.12251284 53.76509916 -0.13674319 62.60603112 -0.14507228 C72.80792043 -0.15484238 83.00959264 -0.18115572 93.21140546 -0.22157317 C101.0985764 -0.25174694 108.98568517 -0.2665424 116.8729127 -0.26985329 C121.58262659 -0.27220254 126.29210856 -0.28114653 131.00176048 -0.30631447 C135.43494835 -0.32962197 139.86775204 -0.3338177 144.30098534 -0.32355309 C145.92471089 -0.32305825 147.54845551 -0.32936335 149.17212296 -0.34310913 C159.12398397 -0.42262032 166.57266388 -0.41567607 174.05171204 6.89717102 C179.20713113 14.55665081 180.71097961 23.71024776 182.73921204 32.58467102 C182.89262054 33.24759155 183.04602905 33.91051208 183.2040863 34.59352112 C185.54910229 44.73150501 187.59108759 54.87063034 189.23921204 65.14717102 C183.95921204 65.14717102 178.67921204 65.14717102 173.23921204 65.14717102 C172.70811829 62.58064758 172.17702454 60.01412415 171.62983704 57.36982727 C171.1026292 54.85718462 170.57196346 52.34529531 170.04096985 49.83345032 C169.67667878 48.10113346 169.31592902 46.36806764 168.9589386 44.63423157 C166.86580777 29.58202723 166.86580777 29.58202723 159.06896973 17.57150841 C155.710118 15.88085549 153.49900346 15.76994283 149.7492218 15.76622009 C148.43696625 15.75776062 147.12471069 15.74930115 145.77268982 15.74058533 C144.32533139 15.74641779 142.8779742 15.75256226 141.43061829 15.75898743 C139.90106329 15.75492078 138.37151123 15.74957838 136.84196472 15.74305725 C132.6932237 15.72938879 128.54470666 15.73468031 124.39596176 15.74419451 C120.0527715 15.75179354 115.70960032 15.74474482 111.3664093 15.74003601 C104.07299865 15.73457917 96.77967916 15.74176819 89.48628235 15.75605774 C81.05596264 15.77238414 72.62586059 15.76709558 64.19554615 15.75057852 C56.9554931 15.73696161 49.71550556 15.73504499 42.47544384 15.74289453 C38.15212626 15.74756992 33.82891097 15.74819959 29.50559998 15.73828506 C25.44093265 15.72961468 21.37654577 15.7356385 17.31190872 15.75296783 C15.82078136 15.75693231 14.32963036 15.75579927 12.83851242 15.74917984 C10.80208432 15.74097359 8.7656046 15.7530924 6.72920227 15.76622009 C5.58990768 15.76735117 4.4506131 15.76848225 3.27679443 15.7696476 C-0.12523181 16.19246562 -2.00550023 17.14674745 -4.76078796 19.14717102 C-10.36801727 26.4990471 -11.19186802 38.37551516 -13.01078796 47.20967102 C-13.37705844 48.95140057 -13.74423816 50.69293918 -14.11235046 52.4342804 C-15.00737606 56.66952538 -15.88358044 60.90804436 -16.76078796 65.14717102 C-22.04078796 65.14717102 -27.32078796 65.14717102 -32.76078796 65.14717102 C-30.41259562 51.68143086 -27.96635197 38.25154532 -24.76078796 24.95967102 C-24.53632996 23.98836243 -24.31187195 23.01705383 -24.08061218 22.01631165 C-21.7197555 12.54633981 -18.15831998 6.27899614 -9.76078796 1.14717102 C-6.31233171 -0.0023144 -3.6390886 0.01253672 0 0 Z " fill="#4B208B" transform="translate(171.7607879638672,49.85282897949219)"/>
<path d="M0 0 C66 0 132 0 200 0 C200 4.95 200 9.9 200 15 C134 15 68 15 0 15 C0 10.05 0 5.1 0 0 Z " fill="#4B208C" transform="translate(150,435)"/>
<path d="M0 0 C66 0 132 0 200 0 C200 4.95 200 9.9 200 15 C134 15 68 15 0 15 C0 10.05 0 5.1 0 0 Z " fill="#4B208C" transform="translate(150,378)"/>
<path d="M0 0 C7.65141601 4.36497004 11.80862699 9.48984388 14.80859375 17.76171875 C16.76400313 25.32926354 16.25834082 33.51738039 12.5 40.4375 C6.91133553 48.25931611 1.26836555 53.02618149 -8.16015625 54.9921875 C-16.18420664 56.09817475 -22.58666575 54.50926519 -29.6875 50.75 C-37.18212463 44.58775308 -41.66771271 38.53274913 -42.8125 28.7734375 C-43.19057692 20.38485583 -40.97101021 13.27789756 -35.8125 6.625 C-26.59688871 -3.31939688 -12.15231106 -5.71873462 0 0 Z " fill="#4B208C" transform="translate(263.5,159.5625)"/>
<path d="M0 0 C3.96 0 7.92 0 12 0 C11.67 14.19 11.34 28.38 11 43 C7.04 43 3.08 43 -1 43 C-4.29543734 39.70456266 -4.36270243 38.72501513 -4.44248962 34.27394104 C-4.43955399 33.51451706 -4.43661835 32.75509308 -4.43359375 31.97265625 C-4.4388356 31.18733017 -4.44407745 30.40200409 -4.44947815 29.59288025 C-4.45589822 27.9327818 -4.4545615 26.27263785 -4.44604492 24.61254883 C-4.43754141 22.07485725 -4.46628235 19.53942186 -4.49804688 17.00195312 C-4.49965919 15.38802151 -4.49908077 13.77408591 -4.49609375 12.16015625 C-4.50732773 11.4027565 -4.51856171 10.64535675 -4.53013611 9.86500549 C-4.45999391 4.55057625 -4.05238514 4.05238514 0 0 Z " fill="#4B208B" transform="translate(104,207)"/>
<path d="M0 0 C11 0 11 0 13.65649414 1.48999023 C15.54324292 5.01491558 15.55394625 8.25971519 15.49609375 12.16015625 C15.49754898 12.94643906 15.49900421 13.73272186 15.50050354 14.54283142 C15.49884683 16.20119949 15.48731089 17.85958329 15.46655273 19.51782227 C15.43755747 22.0574661 15.44595503 24.59502692 15.45898438 27.13476562 C15.45274784 28.74740598 15.44435755 30.36003975 15.43359375 31.97265625 C15.43652939 32.73208023 15.43946503 33.49150421 15.44248962 34.27394104 C15.36270243 38.72501513 15.29543734 39.70456266 12 43 C8.04 43 4.08 43 0 43 C0 28.81 0 14.62 0 0 Z " fill="#4B208B" transform="translate(385,207)"/>
<path d="M0 0 C5.94 0 11.88 0 18 0 C18 9.57 18 19.14 18 29 C12.06 29 6.12 29 0 29 C0.33 27.02 0.66 25.04 1 23 C1.08215406 21.63717268 1.13041604 20.27154918 1.1328125 18.90625 C1.13410156 18.18566406 1.13539063 17.46507812 1.13671875 16.72265625 C1.13285156 15.98917969 1.12898438 15.25570312 1.125 14.5 C1.12886719 13.76652344 1.13273437 13.03304687 1.13671875 12.27734375 C1.13542969 11.55675781 1.13414062 10.83617187 1.1328125 10.09375 C1.13168457 9.45115234 1.13055664 8.80855469 1.12939453 8.14648438 C0.96443271 5.40998564 0.45069429 2.70416575 0 0 Z " fill="#4B208B" transform="translate(290,171)"/>
<path d="M0 0 C5.94 0 11.88 0 18 0 C17.67 1.98 17.34 3.96 17 6 C16.91784594 7.36282732 16.86958396 8.72845082 16.8671875 10.09375 C16.86589844 10.81433594 16.86460937 11.53492188 16.86328125 12.27734375 C16.86908203 13.37755859 16.86908203 13.37755859 16.875 14.5 C16.87113281 15.23347656 16.86726563 15.96695313 16.86328125 16.72265625 C16.86521484 17.80353516 16.86521484 17.80353516 16.8671875 18.90625 C16.86831543 19.54884766 16.86944336 20.19144531 16.87060547 20.85351562 C17.03556729 23.59001436 17.54930571 26.29583425 18 29 C12.06 29 6.12 29 0 29 C0 19.43 0 9.86 0 0 Z " fill="#4B208B" transform="translate(192,171)"/>
<path d="M0 0 C9.9 0 19.8 0 30 0 C30 4.95 30 9.9 30 15 C20.1 15 10.2 15 0 15 C0 10.05 0 5.1 0 0 Z " fill="#4B208B" transform="translate(235,407)"/>
<path d="M0 0 C9.57 0 19.14 0 29 0 C29 4.95 29 9.9 29 15 C19.43 15 9.86 15 0 15 C0 10.05 0 5.1 0 0 Z " fill="#4B208B" transform="translate(307,407)"/>
<path d="M0 0 C9.57 0 19.14 0 29 0 C29 4.95 29 9.9 29 15 C19.43 15 9.86 15 0 15 C0 10.05 0 5.1 0 0 Z " fill="#4B208B" transform="translate(164,407)"/>
</svg>
