<?xml version="1.0" encoding="UTF-8"?>
<svg version="1.1" xmlns="http://www.w3.org/2000/svg" width="500" height="500">
<path d="M0 0 C2.77676402 2.49199465 4.47950602 5.2616753 6.35546875 8.47265625 C7.28842773 10.06883789 7.28842773 10.06883789 8.24023438 11.69726562 C8.88283203 12.80779297 9.52542969 13.91832031 10.1875 15.0625 C11.16879883 16.7340918 11.16879883 16.7340918 12.16992188 18.43945312 C17 26.74476994 17 26.74476994 17 29 C14.03 29 11.06 29 8 29 C8 73.88 8 118.76 8 165 C52.88 165 97.76 165 144 165 C144 162.03 144 159.06 144 156 C149.18967576 156.52307009 153.02413493 159.15406059 157.375 161.8125 C158.8409213 162.69438375 160.30706476 163.57589834 161.7734375 164.45703125 C162.47823242 164.88322754 163.18302734 165.30942383 163.90917969 165.74853516 C166.91314429 167.54656441 169.95323527 169.27564371 173 171 C171.6594487 175.0216539 169.93003657 175.48958952 166.28515625 177.57421875 C165.42874794 178.0672625 165.42874794 178.0672625 164.55503845 178.57026672 C163.34782892 179.26282285 162.13808039 179.95096918 160.92602539 180.63500977 C159.06767329 181.6845782 157.21798274 182.74823913 155.36914062 183.81445312 C146.29828377 189 146.29828377 189 144 189 C144 186.03 144 183.06 144 180 C99.12 180 54.24 180 8 180 C8 230.16 8 280.32 8 332 C3.05 332 -1.9 332 -7 332 C-7 281.84 -7 231.68 -7 180 C-57.16 180 -107.32 180 -159 180 C-159 175.05 -159 170.1 -159 165 C-108.84 165 -58.68 165 -7 165 C-7 120.12 -7 75.24 -7 29 C-9.97 29 -12.94 29 -16 29 C-14.74109231 24.86985949 -13.20794294 21.3409162 -10.99609375 17.63671875 C-10.13274414 16.18362305 -10.13274414 16.18362305 -9.25195312 14.70117188 C-8.65318359 13.70666016 -8.05441406 12.71214844 -7.4375 11.6875 C-6.53354492 10.16672852 -6.53354492 10.16672852 -5.61132812 8.61523438 C-1.16534728 1.16534728 -1.16534728 1.16534728 0 0 Z " fill="#4A1F8B" transform="translate(243,84)"/>
<path d="M0 0 C3.6875 0.4375 3.6875 0.4375 6.5625 2.625 C8.76968691 5.54627679 9.43111848 6.84815876 9.6875 10.4375 C9.81125 12.0771875 9.81125 12.0771875 9.9375 13.75 C9.64930938 18.00081166 8.77561917 21.69950889 6.6875 25.4375 C2.9669164 27.91788907 1.08953429 27.90087203 -3.3125 27.4375 C-6.21967073 25.21886971 -7.15231643 23.91805071 -8.3125 20.4375 C-8.45804833 18.3158532 -8.53330412 16.18893294 -8.5625 14.0625 C-8.58828125 12.94101562 -8.6140625 11.81953125 -8.640625 10.6640625 C-8.08338489 5.18453471 -5.68444642 0.75077594 0 0 Z M-1.3125 5.4375 C-2.73847611 8.28945222 -2.4445252 10.76211175 -2.4375 13.9375 C-2.44007813 15.1028125 -2.44265625 16.268125 -2.4453125 17.46875 C-2.5173431 20.36680786 -2.5173431 20.36680786 -1.3125 22.4375 C0.0075 22.1075 1.3275 21.7775 2.6875 21.4375 C3.54080338 15.60274985 4.17101814 10.98889349 1.6875 5.4375 C0.6975 5.4375 -0.2925 5.4375 -1.3125 5.4375 Z " fill="#65BB69" transform="translate(220.3125,271.5625)"/>
<path d="M0 0 C2.75 -0.375 2.75 -0.375 6 0 C8.375 3 8.375 3 10 6 C10.53625 5.01 11.0725 4.02 11.625 3 C12.40875 2.01 13.1925 1.02 14 0 C17.25 -0.375 17.25 -0.375 20 0 C19.53496068 3.02275559 18.69489169 4.43074114 16.875 7 C14.76082857 9.68880055 14.76082857 9.68880055 15.22265625 11.9296875 C16.0874619 14.23293873 17.1977719 16.07985191 18.5625 18.125 C21 21.78470255 21 21.78470255 21 24 C18.25 24.375 18.25 24.375 15 24 C12.625 21 12.625 21 11 18 C8.12579877 20.71604715 8.12579877 20.71604715 6 24 C3.69 24 1.38 24 -1 24 C-0.66226562 23.39671875 -0.32453125 22.7934375 0.0234375 22.171875 C0.46945312 21.37265625 0.91546875 20.5734375 1.375 19.75 C1.81585938 18.96109375 2.25671875 18.1721875 2.7109375 17.359375 C3.85747823 15.26085803 4.94649552 13.1463923 6 11 C5.566875 10.37351562 5.13375 9.74703125 4.6875 9.1015625 C4.130625 8.28429687 3.57375 7.46703125 3 6.625 C2.443125 5.81289063 1.88625 5.00078125 1.3125 4.1640625 C0 2 0 2 0 0 Z " fill="#65BB69" transform="translate(391,282)"/>
<path d="M0 0 C1.98 0 3.96 0 6 0 C7.32 2.31 8.64 4.62 10 7 C12.77000825 3.67913229 12.77000825 3.67913229 15 0 C16.98 0 18.96 0 21 0 C19.97160213 3.73962862 18.6471153 6.60800368 16.4375 9.75 C13.44509377 14.29141652 13.12042391 18.6575575 13 24 C11.35 24 9.7 24 8 24 C8.00902344 23.40574219 8.01804688 22.81148437 8.02734375 22.19921875 C7.7770529 15.20195721 5.53971451 11.00221647 1.49609375 5.34765625 C0 3 0 3 0 0 Z " fill="#65BB69" transform="translate(194,107)"/>
<path d="M0 0 C2.64 0 5.28 0 8 0 C8 3.3 8 6.6 8 10 C5.36 10 2.72 10 0 10 C0 6.7 0 3.4 0 0 Z " fill="#66BA69" transform="translate(359,232)"/>
<path d="M0 0 C2.64 0 5.28 0 8 0 C8 3.3 8 6.6 8 10 C5.36 10 2.72 10 0 10 C0 6.7 0 3.4 0 0 Z " fill="#65BB6A" transform="translate(338,232)"/>
<path d="M0 0 C2.64 0 5.28 0 8 0 C8 3.3 8 6.6 8 10 C5.36 10 2.72 10 0 10 C0 6.7 0 3.4 0 0 Z " fill="#65BA69" transform="translate(317,232)"/>
<path d="M0 0 C2.64 0 5.28 0 8 0 C8 3.3 8 6.6 8 10 C5.36 10 2.72 10 0 10 C0 6.7 0 3.4 0 0 Z " fill="#65BA69" transform="translate(296,232)"/>
<path d="M0 0 C2.64 0 5.28 0 8 0 C8 3.3 8 6.6 8 10 C5.36 10 2.72 10 0 10 C0 6.7 0 3.4 0 0 Z " fill="#65BA69" transform="translate(275,232)"/>
<path d="M0 0 C3.3 0 6.6 0 10 0 C10 2.64 10 5.28 10 8 C6.7 8 3.4 8 0 8 C0 5.36 0 2.72 0 0 Z " fill="#65BA69" transform="translate(257,217)"/>
<path d="M0 0 C3.3 0 6.6 0 10 0 C10 2.64 10 5.28 10 8 C6.7 8 3.4 8 0 8 C0 5.36 0 2.72 0 0 Z " fill="#65BA69" transform="translate(257,174)"/>
<path d="M0 0 C3.3 0 6.6 0 10 0 C10 2.64 10 5.28 10 8 C6.7 8 3.4 8 0 8 C0 5.36 0 2.72 0 0 Z " fill="#65BA69" transform="translate(257,153)"/>
<path d="M0 0 C3.3 0 6.6 0 10 0 C10 2.64 10 5.28 10 8 C6.7 8 3.4 8 0 8 C0 5.36 0 2.72 0 0 Z " fill="#65BA69" transform="translate(257,132)"/>
<path d="M0 0 C3.3 0 6.6 0 10 0 C10 2.31 10 4.62 10 7 C6.7 7 3.4 7 0 7 C0 4.69 0 2.38 0 0 Z " fill="#65BA69" transform="translate(257,196)"/>
</svg>
